<svg width="1254" height="283" viewBox="0 0 1254 283" fill="none" xmlns="http://www.w3.org/2000/svg">
<path d="M375.97 166.083V146.148H390.797V71.0245H375.97V51.0903H430.666V71.0245H415.839V146.148H430.666V166.083H375.97ZM494.857 111.717L483.819 88.6522H483.325V166.083H459.767V51.0903H487.114L518.581 105.456L529.619 128.521H530.113V51.0903H553.671V166.083H526.324L494.857 111.717ZM587.219 51.0903H630.547C638.125 51.0903 645.045 52.2984 651.305 54.7147C657.565 57.1309 662.892 60.7553 667.285 65.5879C671.678 70.3106 675.083 76.2963 677.499 83.5451C679.916 90.6841 681.124 99.0312 681.124 108.586C681.124 118.142 679.916 126.544 677.499 133.792C675.083 140.931 671.678 146.917 667.285 151.75C662.892 156.472 657.565 160.042 651.305 162.458C645.045 164.874 638.125 166.083 630.547 166.083H587.219V51.0903ZM630.547 143.842C638.015 143.842 643.891 141.755 648.175 137.582C652.458 133.408 654.6 126.708 654.6 117.483V99.6902C654.6 90.4644 652.458 83.7648 648.175 79.5912C643.891 75.4177 638.015 73.3309 630.547 73.3309H612.26V143.842H630.547ZM734.051 51.0903V121.601C734.051 129.729 735.643 135.824 738.828 139.888C742.013 143.842 747.34 145.819 754.809 145.819C762.277 145.819 767.604 143.842 770.789 139.888C773.974 135.824 775.567 129.729 775.567 121.601V51.0903H799.949V118.965C799.949 127.422 799.125 134.781 797.478 141.041C795.94 147.192 793.359 152.299 789.735 156.363C786.11 160.316 781.443 163.282 775.731 165.259C770.02 167.126 763.046 168.059 754.809 168.059C746.571 168.059 739.597 167.126 733.886 165.259C728.175 163.282 723.507 160.316 719.883 156.363C716.258 152.299 713.622 147.192 711.975 141.041C710.437 134.781 709.668 127.422 709.668 118.965V51.0903H734.051ZM870.186 168.059C860.081 168.059 851.515 166.357 844.486 162.952C837.456 159.438 831.471 154.935 826.528 149.443L843.003 132.804C850.801 141.59 860.411 145.984 871.833 145.984C877.984 145.984 882.542 144.721 885.507 142.194C888.473 139.668 889.955 136.319 889.955 132.145C889.955 128.96 889.077 126.324 887.319 124.237C885.562 122.041 881.993 120.558 876.611 119.789L865.243 118.306C853.052 116.769 844.101 113.089 838.39 107.268C832.789 101.447 829.988 93.7044 829.988 84.0393C829.988 78.8773 830.976 74.1546 832.953 69.8712C834.93 65.5879 837.731 61.9086 841.355 58.8333C845.09 55.7581 849.593 53.3967 854.864 51.7493C860.246 49.992 866.342 49.1133 873.151 49.1133C881.828 49.1133 889.461 50.4862 896.051 53.232C902.641 55.9777 908.297 59.9865 913.02 65.2584L896.38 82.0624C893.635 78.8773 890.285 76.2963 886.331 74.3194C882.487 72.2326 877.599 71.1892 871.668 71.1892C866.067 71.1892 861.894 72.1777 859.148 74.1546C856.402 76.1316 855.029 78.8773 855.029 82.3919C855.029 86.3458 856.073 89.2014 858.159 90.9587C860.356 92.7159 863.871 93.979 868.703 94.7478L880.07 96.56C891.932 98.4271 900.719 102.106 906.43 107.598C912.141 112.98 914.997 120.668 914.997 130.662C914.997 136.154 914.008 141.206 912.031 145.819C910.054 150.432 907.144 154.386 903.3 157.681C899.565 160.975 894.898 163.556 889.296 165.424C883.695 167.181 877.325 168.059 870.186 168.059ZM988.075 73.3309V166.083H963.034V73.3309H931.897V51.0903H1019.21V73.3309H988.075ZM1069.62 166.083H1044.58V51.0903H1099.11C1104.38 51.0903 1109.16 51.9689 1113.44 53.7262C1117.73 55.4835 1121.35 58.0096 1124.32 61.3045C1127.39 64.4896 1129.75 68.3336 1131.4 72.8367C1133.05 77.3397 1133.87 82.337 1133.87 87.8285C1133.87 95.6264 1132.11 102.436 1128.6 108.257C1125.2 114.078 1119.98 118.306 1112.95 120.942L1135.52 166.083H1107.68L1087.58 123.908H1069.62V166.083ZM1095.98 102.82C1099.72 102.82 1102.63 101.887 1104.71 100.02C1106.91 98.0427 1108.01 95.1871 1108.01 91.4529V84.2041C1108.01 80.4699 1106.91 77.6692 1104.71 75.8021C1102.63 73.8251 1099.72 72.8367 1095.98 72.8367H1069.62V102.82H1095.98ZM1185.4 166.083V121.107L1146.03 51.0903H1174.04L1198.75 96.8895H1199.08L1222.8 51.0903H1249.98L1210.61 120.942V166.083H1185.4Z" fill="#151E35"/>
<path d="M371.795 251.684V216.784H386.795C390.028 216.784 392.528 217.734 394.295 219.634C396.062 221.534 396.945 224.084 396.945 227.284C396.945 230.484 396.062 233.034 394.295 234.934C392.528 236.834 390.028 237.784 386.795 237.784H377.445V251.684H371.795ZM377.445 232.834H386.445C387.878 232.834 388.995 232.467 389.795 231.734C390.595 230.967 390.995 229.884 390.995 228.484V226.084C390.995 224.684 390.595 223.617 389.795 222.884C388.995 222.117 387.878 221.734 386.445 221.734H377.445V232.834ZM413.293 251.684H407.643V216.784H422.693C425.826 216.784 428.293 217.734 430.093 219.634C431.893 221.501 432.793 224.051 432.793 227.284C432.793 229.784 432.209 231.867 431.043 233.534C429.909 235.167 428.226 236.317 425.993 236.984L433.543 251.684H427.243L420.243 237.584H413.293V251.684ZM422.293 232.834C423.726 232.834 424.843 232.467 425.643 231.734C426.443 230.967 426.843 229.884 426.843 228.484V226.084C426.843 224.684 426.443 223.617 425.643 222.884C424.843 222.117 423.726 221.734 422.293 221.734H413.293V232.834H422.293ZM457.918 252.284C455.651 252.284 453.585 251.901 451.718 251.134C449.885 250.334 448.301 249.184 446.968 247.684C445.668 246.151 444.651 244.267 443.918 242.034C443.218 239.767 442.868 237.167 442.868 234.234C442.868 231.301 443.218 228.717 443.918 226.484C444.651 224.217 445.668 222.334 446.968 220.834C448.301 219.301 449.885 218.151 451.718 217.384C453.585 216.584 455.651 216.184 457.918 216.184C460.185 216.184 462.235 216.584 464.068 217.384C465.935 218.151 467.518 219.301 468.818 220.834C470.151 222.334 471.168 224.217 471.868 226.484C472.601 228.717 472.968 231.301 472.968 234.234C472.968 237.167 472.601 239.767 471.868 242.034C471.168 244.267 470.151 246.151 468.818 247.684C467.518 249.184 465.935 250.334 464.068 251.134C462.235 251.901 460.185 252.284 457.918 252.284ZM457.918 247.234C459.251 247.234 460.468 247.001 461.568 246.534C462.701 246.067 463.651 245.401 464.418 244.534C465.218 243.634 465.835 242.551 466.268 241.284C466.701 240.017 466.918 238.584 466.918 236.984V231.484C466.918 229.884 466.701 228.451 466.268 227.184C465.835 225.917 465.218 224.851 464.418 223.984C463.651 223.084 462.701 222.401 461.568 221.934C460.468 221.467 459.251 221.234 457.918 221.234C456.551 221.234 455.318 221.467 454.218 221.934C453.118 222.401 452.168 223.084 451.368 223.984C450.601 224.851 450.001 225.917 449.568 227.184C449.135 228.451 448.918 229.884 448.918 231.484V236.984C448.918 238.584 449.135 240.017 449.568 241.284C450.001 242.551 450.601 243.634 451.368 244.534C452.168 245.401 453.118 246.067 454.218 246.534C455.318 247.001 456.551 247.234 457.918 247.234ZM501.589 216.784V242.184C501.589 243.717 501.339 245.101 500.839 246.334C500.339 247.567 499.623 248.634 498.689 249.534C497.789 250.401 496.673 251.084 495.339 251.584C494.039 252.051 492.589 252.284 490.989 252.284C487.956 252.284 485.556 251.484 483.789 249.884C482.056 248.251 480.956 246.134 480.489 243.534L485.689 242.384C485.989 243.884 486.556 245.067 487.389 245.934C488.256 246.801 489.456 247.234 490.989 247.234C492.489 247.234 493.689 246.767 494.589 245.834C495.489 244.901 495.939 243.484 495.939 241.584V221.484H484.539V216.784H501.589ZM514.502 251.684V216.784H536.852V221.784H520.152V231.484H535.302V236.484H520.152V246.684H536.852V251.684H514.502ZM561.741 252.284C557.174 252.284 553.591 250.751 550.991 247.684C548.391 244.584 547.091 240.101 547.091 234.234C547.091 231.301 547.424 228.717 548.091 226.484C548.757 224.251 549.724 222.367 550.991 220.834C552.257 219.301 553.791 218.151 555.591 217.384C557.424 216.584 559.474 216.184 561.741 216.184C564.774 216.184 567.307 216.851 569.341 218.184C571.407 219.517 573.024 221.484 574.191 224.084L569.441 226.684C568.841 225.017 567.907 223.701 566.641 222.734C565.407 221.734 563.774 221.234 561.741 221.234C559.041 221.234 556.924 222.151 555.391 223.984C553.857 225.817 553.091 228.351 553.091 231.584V236.884C553.091 240.117 553.857 242.651 555.391 244.484C556.924 246.317 559.041 247.234 561.741 247.234C563.841 247.234 565.541 246.701 566.841 245.634C568.174 244.534 569.157 243.134 569.791 241.434L574.341 244.184C573.174 246.717 571.541 248.701 569.441 250.134C567.341 251.567 564.774 252.284 561.741 252.284ZM597.78 221.784V251.684H592.13V221.784H581.73V216.784H608.18V221.784H597.78ZM634.504 251.684V216.784H649.504C652.737 216.784 655.237 217.734 657.004 219.634C658.771 221.534 659.654 224.084 659.654 227.284C659.654 230.484 658.771 233.034 657.004 234.934C655.237 236.834 652.737 237.784 649.504 237.784H640.154V251.684H634.504ZM640.154 232.834H649.154C650.587 232.834 651.704 232.467 652.504 231.734C653.304 230.967 653.704 229.884 653.704 228.484V226.084C653.704 224.684 653.304 223.617 652.504 222.884C651.704 222.117 650.587 221.734 649.154 221.734H640.154V232.834ZM691.802 236.484H676.002V251.684H670.352V216.784H676.002V231.484H691.802V216.784H697.452V251.684H691.802V236.484ZM732.345 251.684L729.195 242.234H716.145L713.095 251.684H707.345L719.245 216.784H726.345L738.245 251.684H732.345ZM722.795 221.984H722.545L717.495 237.384H727.795L722.795 221.984ZM758.6 252.284C755.667 252.284 753.167 251.751 751.1 250.684C749.067 249.617 747.317 248.184 745.85 246.384L749.75 242.734C750.984 244.234 752.334 245.367 753.8 246.134C755.3 246.901 757 247.284 758.9 247.284C761.134 247.284 762.817 246.784 763.95 245.784C765.084 244.784 765.65 243.434 765.65 241.734C765.65 240.367 765.25 239.284 764.45 238.484C763.65 237.684 762.234 237.084 760.2 236.684L757.1 236.134C753.7 235.501 751.15 234.384 749.45 232.784C747.75 231.184 746.9 228.984 746.9 226.184C746.9 224.651 747.184 223.267 747.75 222.034C748.35 220.767 749.167 219.717 750.2 218.884C751.267 218.017 752.55 217.351 754.05 216.884C755.55 216.417 757.234 216.184 759.1 216.184C761.734 216.184 764.017 216.651 765.95 217.584C767.884 218.484 769.534 219.801 770.9 221.534L766.95 225.034C766.05 223.867 764.95 222.934 763.65 222.234C762.35 221.534 760.734 221.184 758.8 221.184C756.8 221.184 755.25 221.584 754.15 222.384C753.05 223.184 752.5 224.351 752.5 225.884C752.5 227.351 752.95 228.451 753.85 229.184C754.75 229.884 756.15 230.417 758.05 230.784L761.15 231.434C764.65 232.101 767.2 233.234 768.8 234.834C770.434 236.434 771.25 238.634 771.25 241.434C771.25 243.067 770.967 244.551 770.4 245.884C769.834 247.217 769 248.367 767.9 249.334C766.834 250.267 765.517 251.001 763.95 251.534C762.384 252.034 760.6 252.284 758.6 252.284ZM782.533 251.684V216.784H804.883V221.784H788.183V231.484H803.333V236.484H788.183V246.684H804.883V251.684H782.533ZM830.488 238.834V234.134H856.288V238.834H830.488ZM893.649 252.284C890.716 252.284 888.216 251.751 886.149 250.684C884.116 249.617 882.366 248.184 880.899 246.384L884.799 242.734C886.033 244.234 887.383 245.367 888.849 246.134C890.349 246.901 892.049 247.284 893.949 247.284C896.183 247.284 897.866 246.784 898.999 245.784C900.133 244.784 900.699 243.434 900.699 241.734C900.699 240.367 900.299 239.284 899.499 238.484C898.699 237.684 897.283 237.084 895.249 236.684L892.149 236.134C888.749 235.501 886.199 234.384 884.499 232.784C882.799 231.184 881.949 228.984 881.949 226.184C881.949 224.651 882.233 223.267 882.799 222.034C883.399 220.767 884.216 219.717 885.249 218.884C886.316 218.017 887.599 217.351 889.099 216.884C890.599 216.417 892.283 216.184 894.149 216.184C896.783 216.184 899.066 216.651 900.999 217.584C902.933 218.484 904.583 219.801 905.949 221.534L901.999 225.034C901.099 223.867 899.999 222.934 898.699 222.234C897.399 221.534 895.783 221.184 893.849 221.184C891.849 221.184 890.299 221.584 889.199 222.384C888.099 223.184 887.549 224.351 887.549 225.884C887.549 227.351 887.999 228.451 888.899 229.184C889.799 229.884 891.199 230.417 893.099 230.784L896.199 231.434C899.699 232.101 902.249 233.234 903.849 234.834C905.483 236.434 906.299 238.634 906.299 241.434C906.299 243.067 906.016 244.551 905.449 245.884C904.883 247.217 904.049 248.367 902.949 249.334C901.883 250.267 900.566 251.001 898.999 251.534C897.433 252.034 895.649 252.284 893.649 252.284ZM917.582 251.684V216.784H932.582C935.815 216.784 938.315 217.734 940.082 219.634C941.849 221.534 942.732 224.084 942.732 227.284C942.732 230.484 941.849 233.034 940.082 234.934C938.315 236.834 935.815 237.784 932.582 237.784H923.232V251.684H917.582ZM923.232 232.834H932.232C933.665 232.834 934.782 232.467 935.582 231.734C936.382 230.967 936.782 229.884 936.782 228.484V226.084C936.782 224.684 936.382 223.617 935.582 222.884C934.782 222.117 933.665 221.734 932.232 221.734H923.232V232.834ZM959.08 251.684H953.43V216.784H968.48C971.613 216.784 974.08 217.734 975.88 219.634C977.68 221.501 978.58 224.051 978.58 227.284C978.58 229.784 977.996 231.867 976.83 233.534C975.696 235.167 974.013 236.317 971.78 236.984L979.33 251.684H973.03L966.03 237.584H959.08V251.684ZM968.08 232.834C969.513 232.834 970.63 232.467 971.43 231.734C972.23 230.967 972.63 229.884 972.63 228.484V226.084C972.63 224.684 972.23 223.617 971.43 222.884C970.63 222.117 969.513 221.734 968.08 221.734H959.08V232.834H968.08ZM989.193 251.684V247.084H993.943V221.384H989.193V216.784H1004.39V221.384H999.593V247.084H1004.39V251.684H989.193ZM1025.39 232.384L1021.54 224.984H1021.39V251.684H1015.99V216.784H1022.29L1033.69 236.084L1037.54 243.484H1037.69V216.784H1043.09V251.684H1036.79L1025.39 232.384ZM1078.64 246.384H1078.44C1078.07 248.084 1077.07 249.501 1075.44 250.634C1073.84 251.734 1071.7 252.284 1069.04 252.284C1066.97 252.284 1065.05 251.901 1063.29 251.134C1061.52 250.334 1059.99 249.184 1058.69 247.684C1057.42 246.151 1056.42 244.267 1055.69 242.034C1054.99 239.767 1054.64 237.167 1054.64 234.234C1054.64 231.334 1055 228.767 1055.74 226.534C1056.47 224.267 1057.5 222.367 1058.84 220.834C1060.17 219.301 1061.77 218.151 1063.64 217.384C1065.5 216.584 1067.59 216.184 1069.89 216.184C1073.02 216.184 1075.67 216.884 1077.84 218.284C1080 219.651 1081.69 221.567 1082.89 224.034L1078.29 226.734C1077.62 225.101 1076.59 223.784 1075.19 222.784C1073.79 221.751 1072.02 221.234 1069.89 221.234C1067.12 221.234 1064.89 222.117 1063.19 223.884C1061.52 225.651 1060.69 228.151 1060.69 231.384V237.084C1060.69 240.317 1061.52 242.817 1063.19 244.584C1064.89 246.351 1067.12 247.234 1069.89 247.234C1070.99 247.234 1072.04 247.101 1073.04 246.834C1074.04 246.534 1074.9 246.117 1075.64 245.584C1076.4 245.017 1077 244.334 1077.44 243.534C1077.9 242.701 1078.14 241.734 1078.14 240.634V237.934H1070.94V233.084H1083.59V251.684H1078.64V246.384ZM1135.01 251.684H1111.31V246.284L1122.46 236.334C1124.22 234.734 1125.57 233.217 1126.51 231.784C1127.47 230.317 1127.96 228.784 1127.96 227.184V226.534C1127.96 224.834 1127.44 223.501 1126.41 222.534C1125.41 221.567 1124.04 221.084 1122.31 221.084C1121.34 221.084 1120.49 221.234 1119.76 221.534C1119.06 221.801 1118.44 222.184 1117.91 222.684C1117.37 223.184 1116.92 223.767 1116.56 224.434C1116.22 225.101 1115.96 225.817 1115.76 226.584L1110.81 224.684C1111.17 223.584 1111.67 222.534 1112.31 221.534C1112.94 220.501 1113.74 219.584 1114.71 218.784C1115.67 217.984 1116.81 217.351 1118.11 216.884C1119.44 216.417 1120.99 216.184 1122.76 216.184C1124.52 216.184 1126.11 216.451 1127.51 216.984C1128.91 217.484 1130.07 218.201 1131.01 219.134C1131.97 220.034 1132.71 221.117 1133.21 222.384C1133.71 223.651 1133.96 225.034 1133.96 226.534C1133.96 227.934 1133.74 229.234 1133.31 230.434C1132.87 231.634 1132.27 232.767 1131.51 233.834C1130.74 234.901 1129.84 235.917 1128.81 236.884C1127.81 237.851 1126.74 238.834 1125.61 239.834L1117.41 246.884H1135.01V251.684ZM1157.44 252.284C1155.27 252.284 1153.39 251.884 1151.79 251.084C1150.19 250.251 1148.87 249.067 1147.84 247.534C1146.8 246.001 1146.04 244.117 1145.54 241.884C1145.04 239.651 1144.79 237.101 1144.79 234.234C1144.79 231.401 1145.04 228.867 1145.54 226.634C1146.04 224.367 1146.8 222.467 1147.84 220.934C1148.87 219.401 1150.19 218.234 1151.79 217.434C1153.39 216.601 1155.27 216.184 1157.44 216.184C1161.77 216.184 1164.95 217.767 1166.99 220.934C1169.05 224.101 1170.09 228.534 1170.09 234.234C1170.09 239.934 1169.05 244.367 1166.99 247.534C1164.95 250.701 1161.77 252.284 1157.44 252.284ZM1157.44 247.484C1158.64 247.484 1159.65 247.251 1160.49 246.784C1161.35 246.284 1162.05 245.584 1162.59 244.684C1163.12 243.784 1163.5 242.717 1163.74 241.484C1163.97 240.217 1164.09 238.817 1164.09 237.284V231.184C1164.09 229.651 1163.97 228.267 1163.74 227.034C1163.5 225.767 1163.12 224.684 1162.59 223.784C1162.05 222.884 1161.35 222.201 1160.49 221.734C1159.65 221.234 1158.64 220.984 1157.44 220.984C1156.24 220.984 1155.2 221.234 1154.34 221.734C1153.5 222.201 1152.82 222.884 1152.29 223.784C1151.75 224.684 1151.37 225.767 1151.14 227.034C1150.9 228.267 1150.79 229.651 1150.79 231.184V237.284C1150.79 238.817 1150.9 240.217 1151.14 241.484C1151.37 242.717 1151.75 243.784 1152.29 244.684C1152.82 245.584 1153.5 246.284 1154.34 246.784C1155.2 247.251 1156.24 247.484 1157.44 247.484ZM1203.97 251.684H1180.27V246.284L1191.42 236.334C1193.19 234.734 1194.54 233.217 1195.47 231.784C1196.44 230.317 1196.92 228.784 1196.92 227.184V226.534C1196.92 224.834 1196.4 223.501 1195.37 222.534C1194.37 221.567 1193 221.084 1191.27 221.084C1190.3 221.084 1189.45 221.234 1188.72 221.534C1188.02 221.801 1187.4 222.184 1186.87 222.684C1186.34 223.184 1185.89 223.767 1185.52 224.434C1185.19 225.101 1184.92 225.817 1184.72 226.584L1179.77 224.684C1180.14 223.584 1180.64 222.534 1181.27 221.534C1181.9 220.501 1182.7 219.584 1183.67 218.784C1184.64 217.984 1185.77 217.351 1187.07 216.884C1188.4 216.417 1189.95 216.184 1191.72 216.184C1193.49 216.184 1195.07 216.451 1196.47 216.984C1197.87 217.484 1199.04 218.201 1199.97 219.134C1200.94 220.034 1201.67 221.117 1202.17 222.384C1202.67 223.651 1202.92 225.034 1202.92 226.534C1202.92 227.934 1202.7 229.234 1202.27 230.434C1201.84 231.634 1201.24 232.767 1200.47 233.834C1199.7 234.901 1198.8 235.917 1197.77 236.884C1196.77 237.851 1195.7 238.834 1194.57 239.834L1186.37 246.884H1203.97V251.684ZM1224.5 231.134C1226.67 231.134 1228.27 230.684 1229.3 229.784C1230.33 228.851 1230.85 227.667 1230.85 226.234V225.884C1230.85 224.284 1230.35 223.067 1229.35 222.234C1228.35 221.367 1227 220.934 1225.3 220.934C1223.63 220.934 1222.22 221.317 1221.05 222.084C1219.88 222.817 1218.9 223.851 1218.1 225.184L1214.35 221.934C1214.88 221.167 1215.48 220.434 1216.15 219.734C1216.82 219.034 1217.6 218.434 1218.5 217.934C1219.4 217.401 1220.42 216.984 1221.55 216.684C1222.68 216.351 1223.98 216.184 1225.45 216.184C1227.08 216.184 1228.6 216.384 1230 216.784C1231.4 217.184 1232.6 217.784 1233.6 218.584C1234.6 219.351 1235.38 220.301 1235.95 221.434C1236.52 222.534 1236.8 223.784 1236.8 225.184C1236.8 226.284 1236.62 227.284 1236.25 228.184C1235.92 229.084 1235.43 229.884 1234.8 230.584C1234.2 231.251 1233.48 231.801 1232.65 232.234C1231.85 232.667 1231 232.984 1230.1 233.184V233.434C1231.1 233.634 1232.03 233.967 1232.9 234.434C1233.8 234.867 1234.58 235.451 1235.25 236.184C1235.92 236.884 1236.43 237.734 1236.8 238.734C1237.2 239.701 1237.4 240.817 1237.4 242.084C1237.4 243.617 1237.1 245.017 1236.5 246.284C1235.9 247.517 1235.05 248.584 1233.95 249.484C1232.88 250.384 1231.58 251.084 1230.05 251.584C1228.52 252.051 1226.82 252.284 1224.95 252.284C1223.32 252.284 1221.88 252.101 1220.65 251.734C1219.42 251.401 1218.32 250.951 1217.35 250.384C1216.42 249.784 1215.58 249.117 1214.85 248.384C1214.15 247.617 1213.53 246.834 1213 246.034L1217.15 242.784C1217.58 243.484 1218.03 244.134 1218.5 244.734C1219 245.301 1219.55 245.801 1220.15 246.234C1220.78 246.634 1221.48 246.951 1222.25 247.184C1223.05 247.417 1223.95 247.534 1224.95 247.534C1227.08 247.534 1228.72 247.034 1229.85 246.034C1230.98 245.001 1231.55 243.584 1231.55 241.784V241.434C1231.55 239.634 1230.95 238.267 1229.75 237.334C1228.55 236.401 1226.85 235.934 1224.65 235.934H1220.95V231.134H1224.5Z" fill="#151E35"/>
<path fill-rule="evenodd" clip-rule="evenodd" d="M12.9074 244.905L88.4091 62.6276C91.8923 54.2184 100.098 48.7355 109.2 48.7355C109.385 48.7355 109.57 48.7376 109.753 48.742C109.937 48.7376 110.121 48.7355 110.306 48.7355C119.409 48.7355 127.565 56.0572 131.048 64.4664L206.599 244.905C212.587 259.36 201.963 275.26 186.317 275.26C177.489 275.26 169.52 269.973 166.089 261.839L125.521 165.665C119.637 151.716 99.87 151.716 93.986 165.665L53.4176 261.839C49.9867 269.973 42.0176 275.26 33.1899 275.26C17.544 275.26 6.91995 259.36 12.9074 244.905Z" fill="url(#paint0_linear_23_156)"/>
<path d="M88.5627 62.6276L13.0609 244.905C7.07351 259.36 17.6975 275.26 33.3435 275.26C42.1712 275.26 50.1402 269.973 53.5712 261.839L119.116 106.454L130.142 79.8577C136.285 65.0395 125.395 48.7355 109.354 48.7355C100.252 48.7355 92.0459 54.2184 88.5627 62.6276Z" fill="#151E35" stroke="#151E35" stroke-width="0.629236" stroke-linecap="round" stroke-linejoin="round"/>
<path d="M199.994 62.6276L275.496 244.905C281.483 259.36 270.859 275.26 255.213 275.26C246.386 275.26 238.417 269.973 234.986 261.839L169.441 106.454L158.415 79.8577C152.272 65.0395 163.162 48.7355 179.203 48.7355C188.305 48.7355 196.511 54.2184 199.994 62.6276Z" fill="#151E35"/>
<defs>
<linearGradient id="paint0_linear_23_156" x1="114.179" y1="115.301" x2="255.866" y2="175.63" gradientUnits="userSpaceOnUse">
<stop stop-color="#3F2199"/>
<stop offset="0.162555" stop-color="#5C2EE8"/>
</linearGradient>
</defs>
</svg>
