<svg width="277" height="51" viewBox="0 0 277 51" fill="none" xmlns="http://www.w3.org/2000/svg">
<path d="M26.82 31.21C26.3433 34.4 24.9683 36.93 22.695 38.8C20.4217 40.6333 17.5433 41.55 14.06 41.55C9.80667 41.55 6.47 40.2117 4.05 37.535C1.63 34.8583 0.42 31.2467 0.42 26.7C0.42 22.0067 1.685 18.34 4.215 15.7C6.745 13.06 10.0817 11.74 14.225 11.74C17.5617 11.74 20.3483 12.6383 22.585 14.435C24.8217 16.2317 26.1783 18.6333 26.655 21.64H21.925C21.4483 19.6967 20.495 18.23 19.065 17.24C17.6717 16.25 15.985 15.755 14.005 15.755C11.4383 15.755 9.34833 16.5983 7.735 18.285C6.12167 19.935 5.315 22.08 5.315 24.72V29.065C5.315 31.6317 6.10333 33.7033 7.68 35.28C9.29333 36.82 11.4017 37.59 14.005 37.59C16.1317 37.59 17.91 37.0217 19.34 35.885C20.8067 34.7117 21.7233 33.1533 22.09 31.21H26.82ZM33.1149 26.645C33.1149 22.025 34.3799 18.395 36.9099 15.755C39.4399 13.0783 42.7766 11.74 46.9199 11.74C51.0633 11.74 54.3816 13.06 56.8749 15.7C59.4049 18.34 60.6699 21.9883 60.6699 26.645C60.6699 31.1917 59.4599 34.8217 57.0399 37.535C54.6199 40.2117 51.2466 41.55 46.9199 41.55C42.6299 41.55 39.2566 40.2117 36.7999 37.535C34.3433 34.8583 33.1149 31.2283 33.1149 26.645ZM38.0099 29.01C38.0099 31.7233 38.8533 33.8317 40.5399 35.335C42.2633 36.8383 44.3899 37.59 46.9199 37.59C49.4866 37.59 51.6133 36.8383 53.2999 35.335C54.9866 33.795 55.8299 31.6867 55.8299 29.01V24.555C55.8299 21.915 54.9866 19.7883 53.2999 18.175C51.6499 16.5617 49.5233 15.755 46.9199 15.755C44.3166 15.755 42.1716 16.58 40.4849 18.23C38.8349 19.8433 38.0099 21.9517 38.0099 24.555V29.01ZM84.1463 35.39C86.8963 35.39 89.0413 36.0317 90.5813 37.315C92.1213 38.5983 92.8913 40.3583 92.8913 42.595C92.8913 45.345 91.663 47.4167 89.2063 48.81C86.7863 50.24 83.413 50.955 79.0863 50.955C74.943 50.955 71.8447 50.3317 69.7913 49.085C67.7747 47.875 66.7663 46.2067 66.7663 44.08C66.7663 41.1467 68.233 39.2217 71.1663 38.305V37.92C70.323 37.6267 69.6447 37.1317 69.1313 36.435C68.618 35.7017 68.3613 34.895 68.3613 34.015C68.3613 32.915 68.7097 31.9433 69.4063 31.1C70.103 30.22 71.0197 29.615 72.1563 29.285V28.955C69.3697 27.2317 67.9763 24.665 67.9763 21.255C67.9763 18.4317 68.9663 16.14 70.9463 14.38C72.963 12.62 75.548 11.74 78.7013 11.74C80.6813 11.74 82.4047 12.0517 83.8713 12.675V11.74C83.8713 9.43 85.1913 8.275 87.8313 8.275H92.5063V12.18H87.0613V14.71C88.8213 16.47 89.7013 18.7067 89.7013 21.42C89.7013 24.2067 88.7113 26.4617 86.7313 28.185C84.788 29.9083 82.2763 30.77 79.1963 30.77C77.7297 30.77 76.4097 30.605 75.2363 30.275C74.4297 30.4217 73.8063 30.7517 73.3663 31.265C72.9263 31.7417 72.7063 32.2917 72.7063 32.915C72.7063 34.565 73.9897 35.39 76.5563 35.39H84.1463ZM72.7063 20.32V22.3C72.7063 23.8033 73.2563 25.0317 74.3563 25.985C75.493 26.9017 76.9963 27.36 78.8663 27.36C80.6997 27.36 82.1847 26.9017 83.3213 25.985C84.458 25.0317 85.0263 23.8033 85.0263 22.3V20.32C85.0263 18.8167 84.458 17.5883 83.3213 16.635C82.1847 15.6817 80.6997 15.205 78.8663 15.205C77.033 15.205 75.548 15.6817 74.4113 16.635C73.2747 17.5517 72.7063 18.78 72.7063 20.32ZM79.3613 47.38C85.228 47.38 88.1613 45.8583 88.1613 42.815C88.1613 40.5417 86.6947 39.405 83.7613 39.405H75.9513C72.798 39.405 71.2213 40.6517 71.2213 43.145C71.2213 45.9683 73.9347 47.38 79.3613 47.38ZM100.44 41V12.29H104.62L105.225 17.625H105.61C106.49 15.7917 107.773 14.3617 109.46 13.335C111.183 12.2717 113.127 11.74 115.29 11.74C118.407 11.74 120.845 12.785 122.605 14.875C124.365 16.965 125.245 19.7883 125.245 23.345V41H120.46V23.84C120.46 18.5967 118.205 15.975 113.695 15.975C111.165 15.975 109.112 16.8917 107.535 18.725C105.995 20.5583 105.225 22.9783 105.225 25.985V41H100.44ZM133.724 26.645C133.724 22.025 134.989 18.395 137.519 15.755C140.049 13.0783 143.386 11.74 147.529 11.74C151.672 11.74 154.991 13.06 157.484 15.7C160.014 18.34 161.279 21.9883 161.279 26.645C161.279 31.1917 160.069 34.8217 157.649 37.535C155.229 40.2117 151.856 41.55 147.529 41.55C143.239 41.55 139.866 40.2117 137.409 37.535C134.952 34.8583 133.724 31.2283 133.724 26.645ZM138.619 29.01C138.619 31.7233 139.462 33.8317 141.149 35.335C142.872 36.8383 144.999 37.59 147.529 37.59C150.096 37.59 152.222 36.8383 153.909 35.335C155.596 33.795 156.439 31.6867 156.439 29.01V24.555C156.439 21.915 155.596 19.7883 153.909 18.175C152.259 16.5617 150.132 15.755 147.529 15.755C144.926 15.755 142.781 16.58 141.094 18.23C139.444 19.8433 138.619 21.9517 138.619 24.555V29.01ZM176.066 37.04H182.116V41H175.516C172.729 41 171.336 39.6617 171.336 36.985V16.25H166.111V12.29H171.336V2.775H176.066V12.29H182.061V16.25H176.066V37.04ZM191.733 37.535C189.313 34.8217 188.103 31.155 188.103 26.535C188.103 21.915 189.313 18.3033 191.733 15.7C194.153 13.06 197.435 11.74 201.578 11.74C205.502 11.74 208.6 12.895 210.873 15.205C213.183 17.515 214.338 20.6683 214.338 24.665C214.338 25.765 214.283 26.755 214.173 27.635H192.998V29.285C192.998 31.815 193.787 33.85 195.363 35.39C196.977 36.93 199.103 37.7 201.743 37.7C203.76 37.7 205.483 37.2233 206.913 36.27C208.343 35.28 209.297 33.9783 209.773 32.365H214.503C213.917 35.1517 212.45 37.3883 210.103 39.075C207.757 40.725 204.933 41.55 201.633 41.55C197.453 41.55 194.153 40.2117 191.733 37.535ZM192.998 24.115H209.608V23.015C209.608 20.7783 208.857 18.9817 207.353 17.625C205.887 16.2683 203.962 15.59 201.578 15.59C199.048 15.59 196.977 16.305 195.363 17.735C193.787 19.165 192.998 21.035 192.998 23.345V24.115ZM222.278 41V34.07H228.438V41H222.278ZM236.143 32.75C236.143 29.9267 237.06 27.745 238.893 26.205C240.763 24.665 243.33 23.895 246.593 23.895H255.228V21.695C255.228 17.5883 253.065 15.535 248.738 15.535C246.611 15.535 244.98 16.0117 243.843 16.965C242.706 17.9183 242.101 19.22 242.028 20.87H237.353C237.5 18.01 238.6 15.7733 240.653 14.16C242.743 12.5467 245.53 11.74 249.013 11.74C250.92 11.74 252.588 12.015 254.018 12.565C255.448 13.115 256.53 13.775 257.263 14.545C257.996 15.315 258.583 16.2133 259.023 17.24C259.463 18.2667 259.72 19.1283 259.793 19.825C259.903 20.485 259.958 21.145 259.958 21.805V37.48H264.193V41H259.298C257.978 41 257.043 40.725 256.493 40.175C255.943 39.625 255.631 38.8183 255.558 37.755L255.503 36.27H255.173C254.55 37.8833 253.34 39.1667 251.543 40.12C249.783 41.0733 247.73 41.55 245.383 41.55C242.486 41.55 240.213 40.7617 238.563 39.185C236.95 37.5717 236.143 35.4267 236.143 32.75ZM241.038 31.54V33.3C241.038 34.73 241.533 35.83 242.523 36.6C243.513 37.3333 244.833 37.7 246.483 37.7C249.16 37.7 251.286 36.8933 252.863 35.28C254.44 33.6667 255.228 31.54 255.228 28.9V27.36H247.033C245.126 27.36 243.641 27.745 242.578 28.515C241.551 29.285 241.038 30.2933 241.038 31.54ZM271.849 6.955V0.684998H276.579V6.955H271.849ZM271.849 41V12.29H276.579V41H271.849Z" fill="black"/>
</svg>
