<svg width="183" height="41" viewBox="0 0 183 41" fill="none" xmlns="http://www.w3.org/2000/svg">
<path d="M54.7002 25V22.096H56.8602V11.152H54.7002V8.24796H62.6682V11.152H60.5082V22.096H62.6682V25H54.7002Z" fill="#151E35"/>
<path d="M72.0196 17.08L70.4116 13.72H70.3396V25H66.9076V8.24796H70.8916L75.4756 16.168L77.0836 19.528H77.1556V8.24796H80.5876V25H76.6036L72.0196 17.08Z" fill="#151E35"/>
<path d="M85.4748 8.24796H91.7868C92.8908 8.24796 93.8988 8.42396 94.8108 8.77596C95.7228 9.12796 96.4988 9.65596 97.1388 10.36C97.7788 11.048 98.2748 11.92 98.6268 12.976C98.9788 14.016 99.1548 15.232 99.1548 16.624C99.1548 18.016 98.9788 19.24 98.6268 20.296C98.2748 21.336 97.7788 22.208 97.1388 22.912C96.4988 23.6 95.7228 24.12 94.8108 24.472C93.8988 24.824 92.8908 25 91.7868 25H85.4748V8.24796ZM91.7868 21.76C92.8748 21.76 93.7308 21.456 94.3548 20.848C94.9788 20.24 95.2908 19.264 95.2908 17.92V15.328C95.2908 13.984 94.9788 13.008 94.3548 12.4C93.7308 11.792 92.8748 11.488 91.7868 11.488H89.1228V21.76H91.7868Z" fill="#151E35"/>
<path d="M106.865 8.24796V18.52C106.865 19.704 107.097 20.592 107.561 21.184C108.025 21.76 108.801 22.048 109.889 22.048C110.977 22.048 111.753 21.76 112.217 21.184C112.681 20.592 112.913 19.704 112.913 18.52V8.24796H116.465V18.136C116.465 19.368 116.345 20.44 116.105 21.352C115.881 22.248 115.505 22.992 114.977 23.584C114.449 24.16 113.769 24.592 112.937 24.88C112.105 25.152 111.089 25.288 109.889 25.288C108.689 25.288 107.673 25.152 106.841 24.88C106.009 24.592 105.329 24.16 104.801 23.584C104.273 22.992 103.889 22.248 103.649 21.352C103.425 20.44 103.313 19.368 103.313 18.136V8.24796H106.865Z" fill="#151E35"/>
<path d="M126.697 25.288C125.225 25.288 123.977 25.04 122.953 24.544C121.929 24.032 121.057 23.376 120.337 22.576L122.737 20.152C123.873 21.432 125.273 22.072 126.937 22.072C127.833 22.072 128.497 21.888 128.929 21.52C129.361 21.152 129.577 20.664 129.577 20.056C129.577 19.592 129.449 19.208 129.193 18.904C128.937 18.584 128.417 18.368 127.633 18.256L125.977 18.04C124.201 17.816 122.897 17.28 122.065 16.432C121.249 15.584 120.841 14.456 120.841 13.048C120.841 12.296 120.985 11.608 121.273 10.984C121.561 10.36 121.969 9.82396 122.497 9.37596C123.041 8.92796 123.697 8.58396 124.465 8.34396C125.249 8.08796 126.137 7.95996 127.129 7.95996C128.393 7.95996 129.505 8.15996 130.465 8.55996C131.425 8.95996 132.249 9.54396 132.937 10.312L130.513 12.76C130.113 12.296 129.625 11.92 129.049 11.632C128.489 11.328 127.777 11.176 126.913 11.176C126.097 11.176 125.489 11.32 125.089 11.608C124.689 11.896 124.489 12.296 124.489 12.808C124.489 13.384 124.641 13.8 124.945 14.056C125.265 14.312 125.777 14.496 126.481 14.608L128.137 14.872C129.865 15.144 131.145 15.68 131.977 16.48C132.809 17.264 133.225 18.384 133.225 19.84C133.225 20.64 133.081 21.376 132.793 22.048C132.505 22.72 132.081 23.296 131.521 23.776C130.977 24.256 130.297 24.632 129.481 24.904C128.665 25.16 127.737 25.288 126.697 25.288Z" fill="#151E35"/>
<path d="M143.871 11.488V25H140.223V11.488H135.687V8.24796H148.407V11.488H143.871Z" fill="#151E35"/>
<path d="M155.751 25H152.103V8.24796H160.047C160.815 8.24796 161.511 8.37596 162.135 8.63196C162.759 8.88796 163.287 9.25596 163.719 9.73596C164.167 10.2 164.511 10.76 164.751 11.416C164.991 12.072 165.111 12.8 165.111 13.6C165.111 14.736 164.855 15.728 164.343 16.576C163.847 17.424 163.087 18.04 162.063 18.424L165.351 25H161.295L158.367 18.856H155.751V25ZM159.591 15.784C160.135 15.784 160.559 15.648 160.863 15.376C161.183 15.088 161.343 14.672 161.343 14.128V13.072C161.343 12.528 161.183 12.12 160.863 11.848C160.559 11.56 160.135 11.416 159.591 11.416H155.751V15.784H159.591Z" fill="#151E35"/>
<path d="M172.618 25V18.448L166.882 8.24796H170.962L174.562 14.92H174.61L178.066 8.24796H182.026L176.29 18.424V25H172.618Z" fill="#151E35"/>
<path d="M54.6885 39.0001V33.4161H57.0885C57.6058 33.4161 58.0058 33.5681 58.2885 33.8721C58.5711 34.1761 58.7125 34.5841 58.7125 35.0961C58.7125 35.6081 58.5711 36.0161 58.2885 36.3201C58.0058 36.6241 57.6058 36.7761 57.0885 36.7761H55.5925V39.0001H54.6885ZM55.5925 35.9841H57.0325C57.2618 35.9841 57.4405 35.9254 57.5685 35.8081C57.6965 35.6854 57.7605 35.5121 57.7605 35.2881V34.9041C57.7605 34.6801 57.6965 34.5094 57.5685 34.3921C57.4405 34.2694 57.2618 34.2081 57.0325 34.2081H55.5925V35.9841Z" fill="#151E35"/>
<path d="M60.8481 39.0001H59.9441V33.4161H62.3521C62.8534 33.4161 63.2481 33.5681 63.5361 33.8721C63.8241 34.1707 63.9681 34.5787 63.9681 35.0961C63.9681 35.4961 63.8748 35.8294 63.6881 36.0961C63.5068 36.3574 63.2374 36.5414 62.8801 36.6481L64.0881 39.0001H63.0801L61.9601 36.7441H60.8481V39.0001ZM62.2881 35.9841C62.5174 35.9841 62.6961 35.9254 62.8241 35.8081C62.9521 35.6854 63.0161 35.5121 63.0161 35.2881V34.9041C63.0161 34.6801 62.9521 34.5094 62.8241 34.3921C62.6961 34.2694 62.5174 34.2081 62.2881 34.2081H60.8481V35.9841H62.2881Z" fill="#151E35"/>
<path d="M67.5082 39.0961C67.1455 39.0961 66.8148 39.0347 66.5162 38.9121C66.2228 38.7841 65.9695 38.6001 65.7562 38.3601C65.5482 38.1147 65.3855 37.8134 65.2682 37.4561C65.1562 37.0934 65.1002 36.6774 65.1002 36.2081C65.1002 35.7387 65.1562 35.3254 65.2682 34.9681C65.3855 34.6054 65.5482 34.3041 65.7562 34.0641C65.9695 33.8187 66.2228 33.6347 66.5162 33.5121C66.8148 33.3841 67.1455 33.3201 67.5082 33.3201C67.8708 33.3201 68.1988 33.3841 68.4922 33.5121C68.7908 33.6347 69.0442 33.8187 69.2522 34.0641C69.4655 34.3041 69.6282 34.6054 69.7402 34.9681C69.8575 35.3254 69.9162 35.7387 69.9162 36.2081C69.9162 36.6774 69.8575 37.0934 69.7402 37.4561C69.6282 37.8134 69.4655 38.1147 69.2522 38.3601C69.0442 38.6001 68.7908 38.7841 68.4922 38.9121C68.1988 39.0347 67.8708 39.0961 67.5082 39.0961ZM67.5082 38.2881C67.7215 38.2881 67.9162 38.2507 68.0922 38.1761C68.2735 38.1014 68.4255 37.9947 68.5482 37.8561C68.6762 37.7121 68.7748 37.5387 68.8442 37.3361C68.9135 37.1334 68.9482 36.9041 68.9482 36.6481V35.7681C68.9482 35.5121 68.9135 35.2827 68.8442 35.0801C68.7748 34.8774 68.6762 34.7067 68.5482 34.5681C68.4255 34.4241 68.2735 34.3147 68.0922 34.2401C67.9162 34.1654 67.7215 34.1281 67.5082 34.1281C67.2895 34.1281 67.0922 34.1654 66.9162 34.2401C66.7402 34.3147 66.5882 34.4241 66.4602 34.5681C66.3375 34.7067 66.2415 34.8774 66.1722 35.0801C66.1028 35.2827 66.0682 35.5121 66.0682 35.7681V36.6481C66.0682 36.9041 66.1028 37.1334 66.1722 37.3361C66.2415 37.5387 66.3375 37.7121 66.4602 37.8561C66.5882 37.9947 66.7402 38.1014 66.9162 38.1761C67.0922 38.2507 67.2895 38.2881 67.5082 38.2881Z" fill="#151E35"/>
<path d="M74.0156 33.4161V37.4801C74.0156 37.7254 73.9756 37.9467 73.8956 38.1441C73.8156 38.3414 73.7009 38.5121 73.5516 38.6561C73.4076 38.7947 73.2289 38.9041 73.0156 38.9841C72.8076 39.0587 72.5756 39.0961 72.3196 39.0961C71.8343 39.0961 71.4503 38.9681 71.1676 38.7121C70.8903 38.4507 70.7143 38.1121 70.6396 37.6961L71.4716 37.5121C71.5196 37.7521 71.6103 37.9414 71.7436 38.0801C71.8823 38.2187 72.0743 38.2881 72.3196 38.2881C72.5596 38.2881 72.7516 38.2134 72.8956 38.0641C73.0396 37.9147 73.1116 37.6881 73.1116 37.3841V34.1681H71.2876V33.4161H74.0156Z" fill="#151E35"/>
<path d="M75.6016 39.0001V33.4161H79.1776V34.2161H76.5056V35.7681H78.9296V36.5681H76.5056V38.2001H79.1776V39.0001H75.6016Z" fill="#151E35"/>
<path d="M82.6798 39.0961C81.9491 39.0961 81.3758 38.8507 80.9598 38.3601C80.5438 37.8641 80.3358 37.1467 80.3358 36.2081C80.3358 35.7387 80.3891 35.3254 80.4958 34.9681C80.6025 34.6107 80.7571 34.3094 80.9598 34.0641C81.1625 33.8187 81.4078 33.6347 81.6958 33.5121C81.9891 33.3841 82.3171 33.3201 82.6798 33.3201C83.1651 33.3201 83.5705 33.4267 83.8958 33.6401C84.2265 33.8534 84.4851 34.1681 84.6718 34.5841L83.9118 35.0001C83.8158 34.7334 83.6665 34.5227 83.4638 34.3681C83.2665 34.2081 83.0051 34.1281 82.6798 34.1281C82.2478 34.1281 81.9091 34.2747 81.6638 34.5681C81.4185 34.8614 81.2958 35.2667 81.2958 35.7841V36.6321C81.2958 37.1494 81.4185 37.5547 81.6638 37.8481C81.9091 38.1414 82.2478 38.2881 82.6798 38.2881C83.0158 38.2881 83.2878 38.2027 83.4958 38.0321C83.7091 37.8561 83.8665 37.6321 83.9678 37.3601L84.6958 37.8001C84.5091 38.2054 84.2478 38.5227 83.9118 38.7521C83.5758 38.9814 83.1651 39.0961 82.6798 39.0961Z" fill="#151E35"/>
<path d="M87.9661 34.2161V39.0001H87.0621V34.2161H85.3981V33.4161H89.6301V34.2161H87.9661Z" fill="#151E35"/>
<path d="M92.8819 39.0001V33.4161H95.2819C95.7992 33.4161 96.1992 33.5681 96.4819 33.8721C96.7646 34.1761 96.9059 34.5841 96.9059 35.0961C96.9059 35.6081 96.7646 36.0161 96.4819 36.3201C96.1992 36.6241 95.7992 36.7761 95.2819 36.7761H93.7859V39.0001H92.8819ZM93.7859 35.9841H95.2259C95.4552 35.9841 95.6339 35.9254 95.7619 35.8081C95.8899 35.6854 95.9539 35.5121 95.9539 35.2881V34.9041C95.9539 34.6801 95.8899 34.5094 95.7619 34.3921C95.6339 34.2694 95.4552 34.2081 95.2259 34.2081H93.7859V35.9841Z" fill="#151E35"/>
<path d="M101.57 36.5681H99.0415V39.0001H98.1375V33.4161H99.0415V35.7681H101.57V33.4161H102.474V39.0001H101.57V36.5681Z" fill="#151E35"/>
<path d="M107.576 39.0001L107.072 37.4881H104.984L104.496 39.0001H103.576L105.48 33.4161H106.616L108.52 39.0001H107.576ZM106.048 34.2481H106.008L105.2 36.7121H106.848L106.048 34.2481Z" fill="#151E35"/>
<path d="M111.297 39.0961C110.828 39.0961 110.428 39.0107 110.097 38.8401C109.772 38.6694 109.492 38.4401 109.257 38.1521L109.881 37.5681C110.079 37.8081 110.295 37.9894 110.529 38.1121C110.769 38.2347 111.041 38.2961 111.345 38.2961C111.703 38.2961 111.972 38.2161 112.153 38.0561C112.335 37.8961 112.425 37.6801 112.425 37.4081C112.425 37.1894 112.361 37.0161 112.233 36.8881C112.105 36.7601 111.879 36.6641 111.553 36.6001L111.057 36.5121C110.513 36.4107 110.105 36.2321 109.833 35.9761C109.561 35.7201 109.425 35.3681 109.425 34.9201C109.425 34.6747 109.471 34.4534 109.561 34.2561C109.657 34.0534 109.788 33.8854 109.953 33.7521C110.124 33.6134 110.329 33.5067 110.569 33.4321C110.809 33.3574 111.079 33.3201 111.377 33.3201C111.799 33.3201 112.164 33.3947 112.473 33.5441C112.783 33.6881 113.047 33.8987 113.265 34.1761L112.633 34.7361C112.489 34.5494 112.313 34.4001 112.105 34.2881C111.897 34.1761 111.639 34.1201 111.329 34.1201C111.009 34.1201 110.761 34.1841 110.585 34.3121C110.409 34.4401 110.321 34.6267 110.321 34.8721C110.321 35.1067 110.393 35.2827 110.537 35.4001C110.681 35.5121 110.905 35.5974 111.209 35.6561L111.705 35.7601C112.265 35.8667 112.673 36.0481 112.929 36.3041C113.191 36.5601 113.321 36.9121 113.321 37.3601C113.321 37.6214 113.276 37.8587 113.185 38.0721C113.095 38.2854 112.961 38.4694 112.785 38.6241C112.615 38.7734 112.404 38.8907 112.153 38.9761C111.903 39.0561 111.617 39.0961 111.297 39.0961Z" fill="#151E35"/>
<path d="M114.647 39.0001V33.4161H118.223V34.2161H115.551V35.7681H117.975V36.5681H115.551V38.2001H118.223V39.0001H114.647Z" fill="#151E35"/>
<path d="M121.359 36.9441V36.1921H125.487V36.9441H121.359Z" fill="#151E35"/>
<path d="M130.505 39.0961C130.036 39.0961 129.636 39.0107 129.305 38.8401C128.98 38.6694 128.7 38.4401 128.465 38.1521L129.089 37.5681C129.286 37.8081 129.502 37.9894 129.737 38.1121C129.977 38.2347 130.249 38.2961 130.553 38.2961C130.91 38.2961 131.18 38.2161 131.361 38.0561C131.542 37.8961 131.633 37.6801 131.633 37.4081C131.633 37.1894 131.569 37.0161 131.441 36.8881C131.313 36.7601 131.086 36.6641 130.761 36.6001L130.265 36.5121C129.721 36.4107 129.313 36.2321 129.041 35.9761C128.769 35.7201 128.633 35.3681 128.633 34.9201C128.633 34.6747 128.678 34.4534 128.769 34.2561C128.865 34.0534 128.996 33.8854 129.161 33.7521C129.332 33.6134 129.537 33.5067 129.777 33.4321C130.017 33.3574 130.286 33.3201 130.585 33.3201C131.006 33.3201 131.372 33.3947 131.681 33.5441C131.99 33.6881 132.254 33.8987 132.473 34.1761L131.841 34.7361C131.697 34.5494 131.521 34.4001 131.313 34.2881C131.105 34.1761 130.846 34.1201 130.537 34.1201C130.217 34.1201 129.969 34.1841 129.793 34.3121C129.617 34.4401 129.529 34.6267 129.529 34.8721C129.529 35.1067 129.601 35.2827 129.745 35.4001C129.889 35.5121 130.113 35.5974 130.417 35.6561L130.913 35.7601C131.473 35.8667 131.881 36.0481 132.137 36.3041C132.398 36.5601 132.529 36.9121 132.529 37.3601C132.529 37.6214 132.484 37.8587 132.393 38.0721C132.302 38.2854 132.169 38.4694 131.993 38.6241C131.822 38.7734 131.612 38.8907 131.361 38.9761C131.11 39.0561 130.825 39.0961 130.505 39.0961Z" fill="#151E35"/>
<path d="M133.854 39.0001V33.4161H136.254C136.772 33.4161 137.172 33.5681 137.454 33.8721C137.737 34.1761 137.878 34.5841 137.878 35.0961C137.878 35.6081 137.737 36.0161 137.454 36.3201C137.172 36.6241 136.772 36.7761 136.254 36.7761H134.758V39.0001H133.854ZM134.758 35.9841H136.198C136.428 35.9841 136.606 35.9254 136.734 35.8081C136.862 35.6854 136.926 35.5121 136.926 35.2881V34.9041C136.926 34.6801 136.862 34.5094 136.734 34.3921C136.606 34.2694 136.428 34.2081 136.198 34.2081H134.758V35.9841Z" fill="#151E35"/>
<path d="M140.014 39.0001H139.11V33.4161H141.518C142.019 33.4161 142.414 33.5681 142.702 33.8721C142.99 34.1707 143.134 34.5787 143.134 35.0961C143.134 35.4961 143.041 35.8294 142.854 36.0961C142.673 36.3574 142.403 36.5414 142.046 36.6481L143.254 39.0001H142.246L141.126 36.7441H140.014V39.0001ZM141.454 35.9841C141.683 35.9841 141.862 35.9254 141.99 35.8081C142.118 35.6854 142.182 35.5121 142.182 35.2881V34.9041C142.182 34.6801 142.118 34.5094 141.99 34.3921C141.862 34.2694 141.683 34.2081 141.454 34.2081H140.014V35.9841H141.454Z" fill="#151E35"/>
<path d="M144.352 39.0001V38.2641H145.112V34.1521H144.352V33.4161H146.784V34.1521H146.016V38.2641H146.784V39.0001H144.352Z" fill="#151E35"/>
<path d="M149.664 35.9121L149.048 34.7281H149.024V39.0001H148.16V33.4161H149.168L150.992 36.5041L151.608 37.6881H151.632V33.4161H152.496V39.0001H151.488L149.664 35.9121Z" fill="#151E35"/>
<path d="M157.703 38.1521H157.671C157.613 38.4241 157.453 38.6507 157.191 38.8321C156.935 39.0081 156.594 39.0961 156.167 39.0961C155.837 39.0961 155.53 39.0347 155.247 38.9121C154.965 38.7841 154.719 38.6001 154.511 38.3601C154.309 38.1147 154.149 37.8134 154.031 37.4561C153.919 37.0934 153.863 36.6774 153.863 36.2081C153.863 35.7441 153.922 35.3334 154.039 34.9761C154.157 34.6134 154.322 34.3094 154.535 34.0641C154.749 33.8187 155.005 33.6347 155.303 33.5121C155.602 33.3841 155.935 33.3201 156.303 33.3201C156.805 33.3201 157.229 33.4321 157.575 33.6561C157.922 33.8747 158.191 34.1814 158.383 34.5761L157.647 35.0081C157.541 34.7467 157.375 34.5361 157.151 34.3761C156.927 34.2107 156.645 34.1281 156.303 34.1281C155.861 34.1281 155.503 34.2694 155.231 34.5521C154.965 34.8347 154.831 35.2347 154.831 35.7521V36.6641C154.831 37.1814 154.965 37.5814 155.231 37.8641C155.503 38.1467 155.861 38.2881 156.303 38.2881C156.479 38.2881 156.647 38.2667 156.807 38.2241C156.967 38.1761 157.106 38.1094 157.223 38.0241C157.346 37.9334 157.442 37.8241 157.511 37.6961C157.586 37.5627 157.623 37.4081 157.623 37.2321V36.8001H156.471V36.0241H158.495V39.0001H157.703V38.1521Z" fill="#151E35"/>
<path d="M165.763 39.0001H161.971V38.1361L163.755 36.5441C164.037 36.2881 164.253 36.0454 164.403 35.8161C164.557 35.5814 164.635 35.3361 164.635 35.0801V34.9761C164.635 34.7041 164.552 34.4907 164.387 34.3361C164.227 34.1814 164.008 34.1041 163.731 34.1041C163.576 34.1041 163.44 34.1281 163.323 34.1761C163.211 34.2187 163.112 34.2801 163.027 34.3601C162.941 34.4401 162.869 34.5334 162.811 34.6401C162.757 34.7467 162.715 34.8614 162.683 34.9841L161.891 34.6801C161.949 34.5041 162.029 34.3361 162.131 34.1761C162.232 34.0107 162.36 33.8641 162.515 33.7361C162.669 33.6081 162.851 33.5067 163.059 33.4321C163.272 33.3574 163.52 33.3201 163.803 33.3201C164.085 33.3201 164.339 33.3627 164.563 33.4481C164.787 33.5281 164.973 33.6427 165.123 33.7921C165.277 33.9361 165.395 34.1094 165.475 34.3121C165.555 34.5147 165.595 34.7361 165.595 34.9761C165.595 35.2001 165.56 35.4081 165.491 35.6001C165.421 35.7921 165.325 35.9734 165.203 36.1441C165.08 36.3147 164.936 36.4774 164.771 36.6321C164.611 36.7867 164.44 36.9441 164.259 37.1041L162.947 38.2321H165.763V39.0001Z" fill="#151E35"/>
<path d="M168.871 39.0961C168.525 39.0961 168.223 39.0321 167.967 38.9041C167.711 38.7707 167.501 38.5814 167.335 38.3361C167.17 38.0907 167.047 37.7894 166.967 37.4321C166.887 37.0747 166.847 36.6667 166.847 36.2081C166.847 35.7547 166.887 35.3494 166.967 34.9921C167.047 34.6294 167.17 34.3254 167.335 34.0801C167.501 33.8347 167.711 33.6481 167.967 33.5201C168.223 33.3867 168.525 33.3201 168.871 33.3201C169.565 33.3201 170.074 33.5734 170.399 34.0801C170.73 34.5867 170.895 35.2961 170.895 36.2081C170.895 37.1201 170.73 37.8294 170.399 38.3361C170.074 38.8427 169.565 39.0961 168.871 39.0961ZM168.871 38.3281C169.063 38.3281 169.226 38.2907 169.359 38.2161C169.498 38.1361 169.61 38.0241 169.695 37.8801C169.781 37.7361 169.842 37.5654 169.879 37.3681C169.917 37.1654 169.935 36.9414 169.935 36.6961V35.7201C169.935 35.4747 169.917 35.2534 169.879 35.0561C169.842 34.8534 169.781 34.6801 169.695 34.5361C169.61 34.3921 169.498 34.2827 169.359 34.2081C169.226 34.1281 169.063 34.0881 168.871 34.0881C168.679 34.0881 168.514 34.1281 168.375 34.2081C168.242 34.2827 168.133 34.3921 168.047 34.5361C167.962 34.6801 167.901 34.8534 167.863 35.0561C167.826 35.2534 167.807 35.4747 167.807 35.7201V36.6961C167.807 36.9414 167.826 37.1654 167.863 37.3681C167.901 37.5654 167.962 37.7361 168.047 37.8801C168.133 38.0241 168.242 38.1361 168.375 38.2161C168.514 38.2907 168.679 38.3281 168.871 38.3281Z" fill="#151E35"/>
<path d="M175.836 39.0001H172.044V38.1361L173.828 36.5441C174.111 36.2881 174.327 36.0454 174.476 35.8161C174.631 35.5814 174.708 35.3361 174.708 35.0801V34.9761C174.708 34.7041 174.626 34.4907 174.46 34.3361C174.3 34.1814 174.082 34.1041 173.804 34.1041C173.65 34.1041 173.514 34.1281 173.396 34.1761C173.284 34.2187 173.186 34.2801 173.1 34.3601C173.015 34.4401 172.943 34.5334 172.884 34.6401C172.831 34.7467 172.788 34.8614 172.756 34.9841L171.964 34.6801C172.023 34.5041 172.103 34.3361 172.204 34.1761C172.306 34.0107 172.434 33.8641 172.588 33.7361C172.743 33.6081 172.924 33.5067 173.132 33.4321C173.346 33.3574 173.594 33.3201 173.876 33.3201C174.159 33.3201 174.412 33.3627 174.636 33.4481C174.86 33.5281 175.047 33.6427 175.196 33.7921C175.351 33.9361 175.468 34.1094 175.548 34.3121C175.628 34.5147 175.668 34.7361 175.668 34.9761C175.668 35.2001 175.634 35.4081 175.564 35.6001C175.495 35.7921 175.399 35.9734 175.276 36.1441C175.154 36.3147 175.01 36.4774 174.844 36.6321C174.684 36.7867 174.514 36.9441 174.332 37.1041L173.02 38.2321H175.836V39.0001Z" fill="#151E35"/>
<path d="M180.873 39.0001H177.081V38.1361L178.865 36.5441C179.148 36.2881 179.364 36.0454 179.513 35.8161C179.668 35.5814 179.745 35.3361 179.745 35.0801V34.9761C179.745 34.7041 179.662 34.4907 179.497 34.3361C179.337 34.1814 179.118 34.1041 178.841 34.1041C178.686 34.1041 178.55 34.1281 178.433 34.1761C178.321 34.2187 178.222 34.2801 178.137 34.3601C178.052 34.4401 177.98 34.5334 177.921 34.6401C177.868 34.7467 177.825 34.8614 177.793 34.9841L177.001 34.6801C177.06 34.5041 177.14 34.3361 177.241 34.1761C177.342 34.0107 177.47 33.8641 177.625 33.7361C177.78 33.6081 177.961 33.5067 178.169 33.4321C178.382 33.3574 178.63 33.3201 178.913 33.3201C179.196 33.3201 179.449 33.3627 179.673 33.4481C179.897 33.5281 180.084 33.6427 180.233 33.7921C180.388 33.9361 180.505 34.1094 180.585 34.3121C180.665 34.5147 180.705 34.7361 180.705 34.9761C180.705 35.2001 180.67 35.4081 180.601 35.6001C180.532 35.7921 180.436 35.9734 180.313 36.1441C180.19 36.3147 180.046 36.4774 179.881 36.6321C179.721 36.7867 179.55 36.9441 179.369 37.1041L178.057 38.2321H180.873V39.0001Z" fill="#151E35"/>
<path fill-rule="evenodd" clip-rule="evenodd" d="M1.81022 35.5779L12.8093 9.02379C13.3167 7.79875 14.5121 7 15.8381 7C15.8651 7 15.8919 7.00032 15.9187 7.00094C15.9454 7.00032 15.9723 7 15.9993 7C17.3252 7 18.5134 8.06662 19.0209 9.29167L30.0271 35.5779C30.8994 37.6837 29.3517 40 27.0724 40C25.7864 40 24.6254 39.2297 24.1256 38.0448L18.2156 24.0342C17.3585 22.0021 14.4789 22.0021 13.6217 24.0342L7.71173 38.0448C7.21191 39.2297 6.05098 40 4.76497 40C2.48568 40 0.937977 37.6837 1.81022 35.5779Z" fill="url(#paint0_linear_273_1205)"/>
<path fill-rule="evenodd" clip-rule="evenodd" d="M1.81022 35.5779L12.8093 9.02379C13.3167 7.79875 14.5121 7 15.8381 7C15.8651 7 15.8919 7.00032 15.9187 7.00094C15.9454 7.00032 15.9723 7 15.9993 7C17.3252 7 18.5134 8.06662 19.0209 9.29167L30.0271 35.5779C30.8994 37.6837 29.3517 40 27.0724 40C25.7864 40 24.6254 39.2297 24.1256 38.0448L18.2156 24.0342C17.3585 22.0021 14.4789 22.0021 13.6217 24.0342L7.71173 38.0448C7.21191 39.2297 6.05098 40 4.76497 40C2.48568 40 0.937977 37.6837 1.81022 35.5779Z" fill="url(#paint1_linear_273_1205)"/>
<path d="M12.8307 9.0238L1.83168 35.5779C0.959438 37.6837 2.50714 40 4.78643 40C6.07245 40 7.23337 39.2297 7.73319 38.0448L17.2817 15.4085L18.888 11.5339C19.7829 9.37517 18.1964 7 15.8596 7C14.5336 7 13.3382 7.79875 12.8307 9.0238Z" fill="#151E35" stroke="#151E35" stroke-width="0.0916667" stroke-linecap="round" stroke-linejoin="round"/>
<path d="M29.0638 9.0238L40.0628 35.5779C40.9351 37.6837 39.3874 40 37.1081 40C35.8221 40 34.6612 39.2297 34.1613 38.0448L24.6128 15.4085L23.0065 11.5339C22.1116 9.37517 23.6981 7 26.035 7C27.361 7 28.5564 7.79875 29.0638 9.0238Z" fill="#151E35"/>
<defs>
<linearGradient id="paint0_linear_273_1205" x1="16.5635" y1="16.6972" x2="37.2043" y2="25.4859" gradientUnits="userSpaceOnUse">
<stop stop-color="#6220B7"/>
<stop offset="0.162555" stop-color="#A450E6"/>
</linearGradient>
<linearGradient id="paint1_linear_273_1205" x1="16.5635" y1="16.6972" x2="37.2043" y2="25.4859" gradientUnits="userSpaceOnUse">
<stop stop-color="#3F2199"/>
<stop offset="0.162555" stop-color="#5C2EE8"/>
</linearGradient>
</defs>
</svg>
