<svg width="178" height="40" viewBox="0 0 178 40" fill="none" xmlns="http://www.w3.org/2000/svg">
<g clip-path="url(#clip0_827_872)">
<path fill-rule="evenodd" clip-rule="evenodd" d="M58.3249 0C52.3137 0 49.0655 3.65232 49.0655 9.67012C49.0655 15.6191 52.2778 19.2714 58.3249 19.2714C64.3719 19.2714 67.5501 15.6879 67.5501 9.67012C67.5501 3.65232 64.336 0 58.3249 0ZM58.3249 4.20799C60.8828 4.20799 61.9182 6.01781 61.9182 9.67012C61.9182 13.288 60.8828 15.0617 58.3249 15.0617C55.767 15.0617 54.7657 13.3242 54.7657 9.67012C54.7657 6.01609 55.767 4.20799 58.3249 4.20799ZM38.029 5.63933L39.1516 0.335472H47.2628V18.9239H41.5968V5.63933H38.029ZM48.5956 25.9103H38.446V29.4749H46.9894V34.3091H38.446V39.6508H32.6416V21.0744H48.5956V25.9103ZM58.3249 20.7269C52.3137 20.7269 49.0655 24.3792 49.0655 30.397C49.0655 36.346 52.2778 39.9983 58.3249 39.9983C64.3719 39.9983 67.5501 36.4148 67.5501 30.397C67.5501 24.3792 64.336 20.7269 58.3249 20.7269ZM58.3249 24.9349C60.8811 24.9349 61.9182 26.7447 61.9182 30.397C61.9182 34.0149 60.8828 35.7886 58.3249 35.7886C55.767 35.7886 54.7657 34.0493 54.7657 30.397C54.7657 26.7447 55.7687 24.9349 58.3249 24.9349ZM106.751 26.9545V39.6508H101.085V28.4151C101.085 26.3971 100.152 25.3546 98.5286 25.3546C96.767 25.3546 95.5572 26.5726 94.8669 27.9644V39.6525H89.2009V21.0744H93.4504L94.7319 27.1489C95.3248 24.3276 97.312 20.7716 101.498 20.7269C104.781 20.6907 106.751 22.9186 106.751 26.9545ZM126.937 14.8949H121.34V26.8358C120.82 23.8218 119.224 20.7269 115.19 20.7269C110.838 20.7269 108.35 24.6923 108.35 30.397C108.35 36.1017 110.836 39.9983 115.19 39.9983C119.091 39.9983 120.967 36.8621 121.5 33.8497L122.722 39.6508H126.937V14.8949ZM121.34 27.6152V33.1805C120.234 35.0591 118.956 35.7903 117.54 35.7903C115.294 35.7903 114.016 33.9478 114.016 30.3987C114.016 26.8496 115.258 24.9366 117.54 24.9366C118.922 24.9366 120.2 25.7021 121.34 27.6152ZM146.603 31.5462H134.061C134.304 34.5723 135.546 35.9297 137.895 35.9297C139.865 35.9297 141.108 34.9903 141.557 32.9035L146.567 34.4691C145.806 37.7033 142.49 40 137.929 40C131.987 40 128.602 36.4526 128.602 30.3987C128.602 24.3448 132.436 20.7286 137.827 20.7286C144.287 20.7286 146.948 25.5301 146.603 31.5479V31.5462ZM141.179 28.6594L134.051 30.9641C134.116 27.9588 134.23 24.7043 137.794 24.6596C139.763 24.6338 140.938 25.7727 141.179 28.6594ZM160.72 20.8301C155.628 20.8301 153.801 24.5856 153.812 28.8744L152.166 21.0743H148.248V39.649H153.914V29.5265C155.192 27.856 157.68 26.7429 160.72 27.161V20.8301ZM161.4 34.3624L166.341 33.2149C166.48 35.3017 168.035 36.2754 170.176 36.2754C171.799 36.2754 172.766 35.6492 172.766 34.6755C172.766 33.2254 170.979 32.9033 168.85 32.5197C165.719 31.9553 161.849 31.2579 161.849 26.6397C161.849 23.1611 164.993 20.7251 169.52 20.7251C174.323 20.7251 177.156 22.7087 177.467 26.2561L172.734 27.5085C172.595 25.0036 170.868 24.4824 169.313 24.4824C167.758 24.4824 166.825 25.1086 166.825 26.1528C166.825 27.6846 168.679 28.0208 170.862 28.4166C173.984 28.9828 177.778 29.6708 177.778 34.1542C177.778 37.5984 174.565 39.9983 169.935 39.9983C164.891 39.9983 161.815 37.9459 161.402 34.3624H161.4ZM69.2554 21.0744V33.7706H69.2537C69.2537 37.8065 71.4306 40.0138 74.713 39.9983C79.4187 39.9759 80.6814 36.3976 81.2744 33.5762L82.5542 39.6508H86.8054V21.0744H81.1394V32.7607C80.4491 34.1525 79.2393 35.3705 77.4776 35.3705C75.8544 35.3705 74.9214 34.328 74.9214 32.31V21.0744H69.2554ZM80.4832 18.9239H86.8071L82.0296 9.28821L86.8071 0.344076H80.4832L76.6267 8.97854L72.7702 0.344076H66.4463L71.2238 9.28821L66.4463 18.9239H72.7702L76.6267 9.56346L80.4832 18.9239ZM2.29356 0.337193H32.6412L29.5062 15.1856C29.3985 15.6965 28.9508 16.0612 28.4314 16.0612H21.5112L23.1703 8.19922H1.09918C0.400326 8.19922 -0.120824 7.55065 0.0244146 6.86422L1.21879 1.21285C1.32644 0.701908 1.77411 0.337193 2.29356 0.337193ZM8.90786 38.7734L10.3825 31.787H3.46056C2.94112 31.787 2.49344 32.1518 2.38579 32.6627L1.19313 38.3141C1.04789 39.0005 1.56904 39.6491 2.26789 39.6491H7.8331C8.35254 39.6491 8.80022 39.2844 8.90786 38.7734ZM21.5112 16.0612L18.3758 30.9114C18.2681 31.4223 17.8204 31.787 17.301 31.787H10.3825L12.0417 23.9233H5.58793C4.88907 23.9233 4.36792 23.2747 4.51316 22.5883L5.70583 16.9369C5.81347 16.426 6.26115 16.0613 6.78059 16.0613L21.5112 16.0612Z" fill="white"/>
</g>
<defs>
<clipPath id="clip0_827_872">
<rect width="178" height="40" fill="white"/>
</clipPath>
</defs>
</svg>
