<?xml version="1.0" encoding="UTF-8" standalone="no"?>
<svg
   class="darkInvert abs"
   focusable="false"
   width="150"
   height="53"
   viewBox="0 0 150 53"
   version="1.1"
   id="svg12"
   sodipodi:docname="aleph.svg"
   inkscape:version="1.2.2 (b0a8486541, 2022-12-01)"
   xmlns:inkscape="http://www.inkscape.org/namespaces/inkscape"
   xmlns:sodipodi="http://sodipodi.sourceforge.net/DTD/sodipodi-0.dtd"
   xmlns="http://www.w3.org/2000/svg"
   xmlns:svg="http://www.w3.org/2000/svg">
  <defs
     id="defs16" />
  <sodipodi:namedview
     id="namedview14"
     pagecolor="#000000"
     bordercolor="#000000"
     borderopacity="0.25"
     inkscape:showpageshadow="2"
     inkscape:pageopacity="0"
     inkscape:pagecheckerboard="0"
     inkscape:deskcolor="#d1d1d1"
     showgrid="false"
     inkscape:zoom="4.8443396"
     inkscape:cx="63.888997"
     inkscape:cy="36.640701"
     inkscape:window-width="1896"
     inkscape:window-height="1026"
     inkscape:window-x="0"
     inkscape:window-y="0"
     inkscape:window-maximized="1"
     inkscape:current-layer="svg12" />
  <path
     d="m 53.17248,43.52719 -3.017534,-7.3991 c 1.914144,-0.7876 3.550664,-2.1304 4.700264,-3.8565 1.14961,-1.7261 1.76002,-3.7572 1.75319,-5.8333 -0.0068,-2.0762 -0.63063,-4.1032 -1.79158,-5.8216 -1.16095,-1.7185 -2.80628,-3.0504 -4.72557,-3.8253 l 2.96976,-7.41502 c 3.39133,1.36702 6.29897,3.71872 8.35064,6.75402 2.0517,3.0352 3.1541,6.616 3.1661,10.2837 0.012,3.6677 -1.067,7.2556 -3.0989,10.3043 -2.03182,3.0487 -4.92404,5.4195 -8.30637,6.8088 z"
     id="path2"
     style="fill:#ffffff;fill-opacity:1" />
  <path
     d="m 65.63085,52.86779 -4.7134,-6.4402 c 1.749,-1.2948 3.3227,-2.8124 4.6815,-4.5146 l 6.2182,4.986 c -1.7914,2.2541 -3.8715,4.2611 -6.1863,5.9688 z"
     id="path4"
     style="fill:#ffffff;fill-opacity:1" />
  <path
     d="m 79.02475,26.47599 c -0.0283,-5.1388 -1.2541,-10.1997 -3.5794,-14.7782 -2.3253,-4.57852 -5.6857,-8.54759 -9.8124,-11.58998 l -4.7214,6.44024 c 3.1295,2.30222 5.6779,5.30844 7.4408,8.77744 1.7629,3.469 2.6912,7.3044 2.7105,11.1985 0.0157,5.1318 1.227,10.1888 3.537,14.7672 2.31,4.5783 5.6548,8.5511 9.7673,11.601 l 4.7213,-6.4402 c -3.1175,-2.3076 -5.652,-5.317 -7.3999,-8.7864 -1.7478,-3.4694 -2.6602,-7.3019 -2.6638,-11.1896 z"
     id="path6"
     style="fill:#ffffff;fill-opacity:1" />
  <path
     d="M 84.37425,11.07849 78.14005,6.1005 c 1.8761,-2.35745 4.0647,-4.44631 6.5049,-6.20851 l 4.6417,6.51215 c -1.8455,1.32199 -3.4988,2.89519 -4.9124,4.67435 z"
     id="path8"
     style="fill:#ffffff;fill-opacity:1" />
  <path
     d="m 96.85115,43.57529 c -3.2775,-1.4664 -6.064,-3.8504 -8.0255,-6.8661 -1.9614,-3.0158 -3.0145,-6.5353 -3.033,-10.1366 -0.0185,-3.6013 0.9984,-7.1315 2.9288,-10.1674 1.9304,-3.0358 4.6923,-5.4485 7.9546,-6.94875 l 3.3121,7.26325 c -1.8681,0.8622 -3.4491,2.2463 -4.5538,3.9868 -1.1048,1.7404 -1.6865,3.7634 -1.6756,5.8269 0.0109,2.0635 0.614,4.0802 1.7371,5.8087 1.1231,1.7285 2.7187,3.0957 4.5958,3.938 z"
     id="path10"
     style="fill:#ffffff;fill-opacity:1" />
</svg>
