<svg xmlns="http://www.w3.org/2000/svg" xmlns:xlink="http://www.w3.org/1999/xlink" id="Layer_1" x="0px" y="0px" viewBox="0 0 524.2 119.5" style="enable-background:new 0 0 524.2 119.5;" xml:space="preserve"><style type="text/css">	.st0{fill:#FFFFFF;}	.st1{fill:#BCCF0F;}</style><g>	<g>		<g>			<g>				<path class="st0" d="M65.1,79.6c-2.8,0.6-7.1,1.2-10.9,1.2c-11.7,0-14.3-7.2-14.3-20.2c0-13.3,2.6-20.3,14.4-20.3      c4,0,8.4,0.7,10.9,1.2L65,45.2c-2.6-0.5-7.2-1-10.2-1c-8.8,0-10.3,5.2-10.3,16.4c0,11,1.4,16.2,10.4,16.2c3.2,0,7.4-0.5,10.1-1      L65.1,79.6z"></path>				<path class="st0" d="M78.2,40.9h9.5l10.8,39.3h-4.3l-2.8-10.1H74.6l-2.8,10.1h-4.3L78.2,40.9z M75.5,66.2h14.9l-6-21.5h-3      L75.5,66.2z"></path>				<path class="st0" d="M103.3,40.9h7.9l11.1,33.2l11.1-33.2h7.9v39.3h-4.4V45.5h-0.8l-11.4,33.3h-4.8l-11.4-33.3h-0.8v34.7h-4.4      C103.3,80.2,103.3,40.9,103.3,40.9z"></path>				<path class="st0" d="M154,67v13.2h-4.4V40.9H164c8.6,0,12.6,4.1,12.6,12.7S172.6,67,164,67H154z M164,63.1      c5.7,0,8.1-3.5,8.1-9.5s-2.4-8.8-8.1-8.8h-9.9v18.4L164,63.1L164,63.1z"></path>				<path class="st0" d="M195.2,76.9c6.1,0,9.6-2.4,9.6-8.5V40.9h4.3v27.4c0,9-4.9,12.5-13.9,12.5c-8.6,0-13.6-3.5-13.6-12.5V40.9      h4.4v27.5C186,74.5,189.4,76.9,195.2,76.9z"></path>				<path class="st0" d="M239.1,45.1c0,0-7.9-1-11.2-1c-5.6,0-8.5,2-8.5,6.4c0,5.1,2.7,6,9.6,7.5c7.8,1.8,11.3,3.7,11.3,10.6      c0,8.7-4.8,12.1-12.6,12.1c-4.7,0-12.4-1.3-12.4-1.3l0.5-3.6c0,0,7.7,1,11.8,1c5.6,0,8.4-2.4,8.4-7.9c0-4.4-2.3-5.7-8.8-6.9      c-8.1-1.8-12.2-3.7-12.2-11.2c0-7.6,5-10.6,12.7-10.6c4.7,0,11.9,1.1,11.9,1.1L239.1,45.1z"></path>			</g>		</g>		<g>			<path class="st0" d="M259.2,40.7h24.7v6.8h-16.8v11.4h13.8v6.8h-13.8v13.6h-7.8V40.7H259.2z"></path>			<path class="st0" d="M286.3,60.3c0-13.1,3.9-20.2,16-20.2c12.2,0,16,7.2,16,20.2c0,13.1-3.9,19.8-16,19.8     C290.1,80.1,286.3,73.4,286.3,60.3z M310.2,60.3c0-8.9-1.6-13.4-8-13.4s-8,4.5-8,13.4s1.6,13,8,13     C308.6,73.2,310.2,69.2,310.2,60.3z"></path>			<path class="st0" d="M338,73.2c4.6,0,6.9-2.2,6.9-6.8V40.7h7.8v25.6c0,9.7-5.1,13.8-14.7,13.8c-9.7,0-14.7-4.1-14.7-13.8V40.7     h7.8v25.8C331.1,71.1,333.4,73.2,338,73.2z"></path>			<path class="st0" d="M359.3,40.7h13.2l9.3,31.8h0.6V40.7h7.8v38.7h-12.9l-9.7-31.8H367v31.8h-7.8V40.7H359.3z"></path>			<path class="st0" d="M397.3,79.4V40.7h13c13.5,0,16.4,5.7,16.4,18.6c0,13.2-2.6,20.1-16.4,20.1H397.3z M410.3,47.6h-5.2v25h5.2     c7.6,0,8.4-4.7,8.4-13.2C418.7,50.8,417.9,47.6,410.3,47.6z"></path>			<path class="st0" d="M432.1,40.7h25v6.8h-17.2v9h13.8v6.7h-13.8v9.3h17.2v6.8h-25V40.7z"></path>			<path class="st0" d="M470,66.4v13h-7.8V40.7h15c8.8,0,13.6,3.9,13.6,12.7c0,5.3-2.2,8.9-5.7,11.1l5.5,14.8H482l-4.5-13L470,66.4     L470,66.4z M477.2,47.4H470v12.3h7.3c3.9,0,5.5-2.7,5.5-6.1C482.8,49.9,481,47.4,477.2,47.4z"></path>			<path class="st0" d="M519.2,47.8c0,0-8-0.9-11.3-0.9c-4.2,0-6.2,1.5-6.2,4.1c0,2.4,1.5,3.3,8,5.3c8.4,2.7,10.9,5,10.9,11.4     c0,8.4-5.7,12.3-13.4,12.3c-5.3,0-12.9-1.8-12.9-1.8l0.8-6.1c0,0,7.6,1,11.7,1c4.2,0,6-2,6-5c0-2.4-1.4-3.5-6.9-5.1     c-8.7-2.5-12-5.5-12-11.7c0-8,5.3-11.5,13.2-11.5c5.2,0,12.7,1.5,12.7,1.5L519.2,47.8z"></path>		</g>	</g>	<polygon class="st1" points="258.9,118.9 248.9,106.8 13,106.8 13,12.8 90.5,12.8 80.4,0.7 13,0.7 13,0.7 0.9,0.7 0.9,118.9  "></polygon></g></svg>