<svg width="1287" height="125" viewBox="0 0 1287 125" fill="none" xmlns="http://www.w3.org/2000/svg">
<path d="M174.192 124.522H112.904L126.467 106.272V34.6104L92.6414 112.299H61.9971L28.841 35.9499V106.272L45.5865 124.522H0.541016L17.6215 106.272V25.569L6.73686 7.31879H55.8013L88.2876 93.5469L125.63 7.31879H174.025L160.461 25.569V106.272L174.192 124.522Z" fill="white"/>
<path d="M332.604 97.2313L331.934 124.523H217.729L233.638 106.273V25.5699L217.729 7.31964H327.413L328.083 36.1182L307.653 14.6867H267.631V59.3914H294.926L310.667 45.4944V80.8228L294.926 67.7631H267.631V116.821H312.174L332.604 97.2313Z" fill="white"/>
<path d="M373.631 7.32129H442.456C474.272 7.32129 491.018 18.7068 491.018 39.1336C491.018 58.3884 476.114 70.1088 451.163 71.7831L441.451 71.9505C445.47 74.7969 454.68 79.9873 469.248 79.9873L497.883 124.525H454.847L426.715 72.7877H423.533V106.274L437.432 124.525H375.641L389.54 106.107V25.5715L373.631 7.32129ZM423.533 63.5789H428.054C444.13 63.5789 454.68 55.2072 454.847 38.129C455.015 21.7205 445.302 14.1861 428.054 14.1861H423.533V63.5789Z" fill="white"/>
<path d="M672.032 124.522H607.227L619.116 106.774L610.241 88.3565H559.167L551.297 106.272L565.196 124.522H521.657L539.91 106.272L578.76 15.523L576.75 10.5L610.409 0.62146L657.966 105.937L672.032 124.522ZM584.955 26.4062L562.181 80.9894H607.394L584.955 26.4062Z" fill="white"/>
<path d="M824.582 25.5715L825.252 124.525H785.23L724.779 37.4593L724.109 106.274L739.85 124.525H697.483L714.229 106.274L714.899 22.5577L702.842 7.32129H745.878L814.702 106.274V25.5715L797.287 7.32129H841.997L824.582 25.5715Z" fill="white"/>
<path d="M883.863 7.32129H1001.08L1001.75 36.1198L979.145 14.6883H959.385V106.274L975.293 124.525H908.814L925.392 106.274V14.6883H905.632L883.025 36.1198L883.863 7.32129Z" fill="white"/>
<path d="M1093.01 106.273L1109.09 124.523H1042.78L1058.85 106.273V25.5699L1043.45 7.31964H1108.42L1093.01 25.5699V106.273Z" fill="white"/>
<path d="M1213.91 7.32129L1207.22 25.5715L1227.65 52.6957L1247.74 25.5715L1238.36 7.32129H1280.23L1260.97 25.5715L1234.01 61.2348L1267.83 106.274L1286.59 124.525H1219.78L1229.32 106.274L1208.05 76.4712L1185.78 106.274L1195.16 124.525H1153.3L1172.55 106.274L1201.69 67.5973L1171.72 25.5715L1152.46 7.32129H1213.91Z" fill="white"/>
</svg>
