<?xml version="1.0" encoding="utf-8"?>
<svg version="1.1" id="Ebene_1" xmlns="http://www.w3.org/2000/svg" xmlns:xlink="http://www.w3.org/1999/xlink" x="0px" y="0px"
	 viewBox="0 0 284.3 241.7" style="enable-background:new 0 0 284.3 241.7;" xml:space="preserve">
<style type="text/css">
	.st0{fill:#FFFFFF;}
	.st1{fill:#FFFFFF;}
</style>
<g id="Logo">
	<g>
		<g>
			<path class="st0" d="M210.5,49.5c3.8,1,7.4,2.5,10.7,4.4c3.3,1.8,6.3,4.1,8.9,6.7c2.7,2.6,5,5.6,6.9,8.7l10.3-6.2
				c-2.4-4-5.3-7.7-8.7-11.1s-7.3-6.3-11.5-8.6s-8.7-4.2-13.5-5.5s-9.9-2-15.2-2c-3.9,0-7.7,0.3-11.3,1l-0.7,2L182,50.8
				c5-1.9,10.6-2.9,16.5-2.9C202.6,48,206.7,48.5,210.5,49.5z M238.4,112.4c-1.8,3.6-4.1,6.9-6.8,9.9s-5.7,5.6-9.1,7.8
				c-3.3,2.1-7,3.8-11.1,5s-8.4,1.8-13.1,1.8c-6.7,0-12.8-1.2-18.2-3.5s-10.1-5.5-13.9-9.4c-3-3.1-5.5-6.6-7.4-10.6l-5.3,14.2
				c1.3,1.7,2.6,3.3,4.1,4.8c4.9,5.1,10.9,9.2,17.8,12.1c6.9,3,14.6,4.5,22.9,4.5c5.7,0,11.3-0.8,16.4-2.3c5.2-1.5,9.9-3.7,14.2-6.4
				c4.2-2.7,8.1-6.1,11.5-9.8c3.4-3.8,6.3-8,8.5-12.4L238.4,112.4z M167.9,36.9L134,128.6L100.1,37H87.3l41.1,111h11.3l41.1-111
				L167.9,36.9L167.9,36.9z"/>
			<path class="st1" d="M108.3,110.9c-0.4,2.6-0.9,4.9-1.7,7.1c-1.4,4.1-3.4,7.6-6,10.4c-2.5,2.7-5.5,4.8-9.1,6.2
				c-3.7,1.5-8,2.3-12.6,2.3c-4.7,0-9-0.8-12.7-2.2c-3.6-1.5-6.6-3.5-9.1-6.3s-4.5-6.3-6-10.4c-1.5-4.3-2.2-9.3-2.2-15V36.9H37V103
				c0,7,1,13.3,2.9,18.9c2,5.7,4.8,10.6,8.4,14.6c3.7,4.1,8.2,7.2,13.5,9.3c5.1,2.1,10.9,3.1,17.2,3.1c6.2,0,11.9-1,17.1-3.1
				c5.3-2.1,9.9-5.3,13.5-9.3c2.1-2.3,3.9-4.8,5.4-7.7L108.3,110.9z"/>
		</g>
		<g>
			<path class="st0" d="M65.8,186h7.3c4.2,0,6.9,3,6.9,6.7s-2.8,6.7-7,6.7h-3.7v5h-3.6L65.8,186L65.8,186z M69.4,189.2v6.9h3.5
				c2.1,0,3.5-1.4,3.5-3.4s-1.4-3.4-3.5-3.4h-3.5V189.2z"/>
			<path class="st0" d="M89.8,186h3.5l7,18.5h-3.7l-1.2-3.4h-7.7l-1.2,3.4h-3.7L89.8,186z M88.8,197.8h5.3l-2.7-7.3L88.8,197.8z"/>
			<path class="st0" d="M104.8,186h7.5c4.3,0,6.8,2.7,6.8,6.3c0,2.3-1.2,4.4-3.2,5.5l3.6,6.8h-4l-3-5.8h-4.2v5.8h-3.6L104.8,186
				L104.8,186z M108.4,189.2v6.1h3.6c2.4,0,3.4-1.5,3.4-3.1c0-1.8-1.2-3-3.4-3H108.4z"/>
			<path class="st0" d="M128.3,189.2h-5.1V186h13.7v3.3h-5.1v15.2h-3.5V189.2z"/>
			<path class="st0" d="M142.2,186h3.8l8.1,12.6V186h3.4v18.5H154l-8.4-13v13h-3.5L142.2,186L142.2,186z"/>
			<path class="st0" d="M164.4,186h12.4v3.4H168v4.2h8.9v3.4H168v4.2h8.9v3.4h-12.4V186H164.4z"/>
			<path class="st0" d="M183.4,186h7.5c4.3,0,6.8,2.7,6.8,6.3c0,2.3-1.2,4.4-3.2,5.5l3.6,6.8h-4l-3-5.8H187v5.8h-3.6V186z
				 M187,189.2v6.1h3.6c2.4,0,3.4-1.5,3.4-3.1c0-1.8-1.2-3-3.4-3H187z"/>
			<path class="st0" d="M202.6,200.9l3.1-2.5c1.2,1.9,2.9,2.9,5.1,2.9c2,0,3-1,3-2.3c0-1.7-1.8-2.1-4.3-2.7
				c-2.8-0.6-5.8-1.5-5.8-5.2c0-3,2.7-5.5,6.6-5.5c3.3,0,5.3,1.1,7.2,3.2l-2.9,2.3c-1-1.4-2.2-2.3-4.3-2.3c-2,0-2.9,1-2.9,2.2
				c0,1.5,1.8,1.8,4.2,2.3c2.8,0.6,6.1,1.5,6.1,5.5c0,3.2-2.7,5.8-6.8,5.8C206.8,204.7,204.4,203.1,202.6,200.9z"/>
		</g>
	</g>
</g>
<g id="Schutzzone">
</g>
</svg>
