<?xml version="1.0" encoding="utf-8"?>
<!-- Generator: Adobe Illustrator 28.0.0, SVG Export Plug-In . SVG Version: 6.00 Build 0)  -->
<svg version="1.1" id="Ebene_1" xmlns="http://www.w3.org/2000/svg" xmlns:xlink="http://www.w3.org/1999/xlink" x="0px" y="0px"
	 viewBox="0 0 1287 125" style="enable-background:new 0 0 1287 125;" xml:space="preserve">
<path d="M174.2,124.5h-61.3l13.6-18.2V34.6l-33.8,77.7H62L28.8,35.9v70.3l16.7,18.2h-45l17.1-18.2V25.6L6.7,7.3h49.1l32.5,86.2
	l37.3-86.2H174l-13.6,18.3v80.7L174.2,124.5z"/>
<path d="M332.6,97.2l-0.7,27.3H217.7l15.9-18.2V25.6L217.7,7.3h109.7l0.7,28.8l-20.4-21.4h-40v44.7h27.3l15.7-13.9v35.3l-15.7-13.1
	h-27.3v49.1h44.5L332.6,97.2z"/>
<path d="M373.6,7.3h68.8c31.8,0,48.6,11.4,48.6,31.8c0,19.3-14.9,31-39.9,32.6l-9.7,0.2c4,2.8,13.2,8,27.8,8l28.6,44.5h-43
	l-28.1-51.7h-3.2v33.5l13.9,18.3h-61.8l13.9-18.4V25.6L373.6,7.3z M423.5,63.6h4.5c16.1,0,26.6-8.4,26.8-25.4
	c0.2-16.4-9.5-23.9-26.8-23.9h-4.5V63.6z"/>
<path d="M672,124.5h-64.8l11.9-17.7l-8.9-18.4h-51.1l-7.9,17.9l13.9,18.2h-43.5l18.3-18.2l38.9-90.7l-2-5l33.7-9.9L658,105.9
	L672,124.5z M585,26.4L562.2,81h45.2L585,26.4z"/>
<path d="M824.6,25.6l0.7,99h-40l-60.5-87.1l-0.7,68.8l15.7,18.3h-42.4l16.7-18.3l0.7-83.7L702.8,7.3h43l68.8,99V25.6L797.3,7.3H842
	L824.6,25.6z"/>
<path d="M883.9,7.3h117.2l0.7,28.8l-22.6-21.4h-19.8v91.6l15.9,18.3h-66.5l16.6-18.3V14.7h-19.8L883,36.1L883.9,7.3z"/>
<path d="M1093,106.3l16.1,18.2h-66.3l16.1-18.2V25.6l-15.4-18.3h65L1093,25.6V106.3z"/>
<path d="M1213.9,7.3l-6.7,18.3l20.4,27.1l20.1-27.1l-9.4-18.3h41.9L1261,25.6l-27,35.7l33.8,45l18.8,18.3h-66.8l9.5-18.3l-21.3-29.8
	l-22.3,29.8l9.4,18.3h-41.9l19.2-18.3l29.1-38.7l-30-42l-19.3-18.3H1213.9z"/>
</svg>
