<svg width="32" height="32" viewBox="0 0 32 32" fill="none" xmlns="http://www.w3.org/2000/svg">
<path d="M15.9154 9.42529C11.9648 9.42529 8.69141 12.6422 8.69141 16.6493C8.69141 20.6563 11.9083 23.8733 15.9154 23.8733C19.9225 23.8733 23.1394 20.5999 23.1394 16.6493C23.1394 12.6987 19.866 9.42529 15.9154 9.42529ZM15.9154 21.2771C13.3757 21.2771 11.2875 19.189 11.2875 16.6493C11.2875 14.1096 13.3757 12.0214 15.9154 12.0214C18.4551 12.0214 20.5433 14.1096 20.5433 16.6493C20.5433 19.189 18.4551 21.2771 15.9154 21.2771Z" fill="white"/>
<path d="M23.4218 10.8925C24.3258 10.8925 25.0585 10.1597 25.0585 9.25583C25.0585 8.35191 24.3258 7.61914 23.4218 7.61914C22.5179 7.61914 21.7852 8.35191 21.7852 9.25583C21.7852 10.1597 22.5179 10.8925 23.4218 10.8925Z" fill="white"/>
<path d="M27.6544 5.02292C26.187 3.49911 24.0988 2.70898 21.7285 2.70898H10.1024C5.19231 2.70898 1.91895 5.98235 1.91895 10.8924V22.4621C1.91895 24.8889 2.70907 26.9771 4.28932 28.5009C5.81312 29.9682 7.84487 30.7019 10.1588 30.7019H21.672C24.0988 30.7019 26.1306 29.9118 27.598 28.5009C29.1218 27.0335 29.9119 24.9453 29.9119 22.5185V10.8924C29.9119 8.52204 29.1218 6.49029 27.6544 5.02292ZM27.4286 22.5185C27.4286 24.2681 26.8078 25.679 25.792 26.6384C24.7761 27.5979 23.3652 28.1058 21.672 28.1058H10.1588C8.46568 28.1058 7.05475 27.5979 6.03887 26.6384C5.023 25.6226 4.51506 24.2116 4.51506 22.4621V10.8924C4.51506 9.19928 5.023 7.78835 6.03887 6.77248C6.99831 5.81304 8.46568 5.3051 10.1588 5.3051H21.7849C23.478 5.3051 24.889 5.81304 25.9048 6.82891C26.8643 7.84479 27.4286 9.25572 27.4286 10.8924V22.5185Z" fill="white"/>
</svg>
