<svg width="28" height="28" viewBox="0 0 28 28" fill="none" xmlns="http://www.w3.org/2000/svg">
<path d="M6.12935 7.32626C5.51281 7.32626 5.05948 7.1812 4.76934 6.89106C4.49734 6.60092 4.36134 6.22919 4.36134 5.77585V5.31345C4.36134 4.86011 4.49734 4.48837 4.76934 4.19824C5.05948 3.9081 5.51281 3.76303 6.12935 3.76303C6.74589 3.76303 7.19016 3.9081 7.46216 4.19824C7.73417 4.48837 7.87017 4.86011 7.87017 5.31345V5.77585C7.87017 6.22919 7.73417 6.60092 7.46216 6.89106C7.19016 7.1812 6.74589 7.32626 6.12935 7.32626ZM4.63334 9.85588H7.59816V24H4.63334V9.85588ZM11.8318 24V9.85588H14.7967V12.1951H14.9327C15.2409 11.4335 15.7033 10.7988 16.3199 10.2911C16.9545 9.78335 17.8159 9.52948 18.9039 9.52948C20.3546 9.52948 21.4788 10.01 22.2767 10.9711C23.0927 11.914 23.5007 13.265 23.5007 15.0239V24H20.5359V15.4047C20.5359 13.1924 19.6474 12.0863 17.8703 12.0863C17.4895 12.0863 17.1087 12.1407 16.7279 12.2495C16.3652 12.3402 16.0388 12.4852 15.7487 12.6847C15.4585 12.8842 15.2228 13.138 15.0415 13.4463C14.8783 13.7546 14.7967 14.1173 14.7967 14.5343V24H11.8318Z" fill="white"/>
</svg>
