<?xml version="1.0" encoding="UTF-8"?>
<!-- Generator: Adobe Illustrator 24.1.0, SVG Export Plug-In . SVG Version: 6.00 Build 0)  -->
<svg xmlns="http://www.w3.org/2000/svg" xmlns:xlink="http://www.w3.org/1999/xlink" version="1.1" x="0px" y="0px" viewBox="0 0 697.28 221.99" style="enable-background:new 0 0 697.28 221.99;" xml:space="preserve">
<style type="text/css">
	.st0{fill:#00747B;}
	.st1{fill:#1E1E1C;}
	.st2{fill:none;}
</style>
<g id="Logo">
	<g>
		<polygon class="st0" points="172.73,55.51 172.73,62.66 207.11,62.66 207.11,159.24 172.73,159.24 172.73,166.39 214.26,166.4     214.26,55.51   "></polygon>
		<polygon class="st0" points="87.48,166.38 87.48,159.23 53.09,159.23 53.09,62.65 87.48,62.65 87.48,55.5 45.94,55.49     45.94,166.38   "></polygon>
		<g>
			<circle class="st0" cx="189.41" cy="77.37" r="4.35"></circle>
			<path class="st0" d="M185.21,88.15v9.39c-5.53-5.8-13.32-9.42-21.95-9.42c-16.74,0-30.35,13.62-30.35,30.35     c0,16.74,13.62,30.35,30.35,30.35c4.18,0,8.23-0.84,12.04-2.48c2.13-0.92,3.12-3.4,2.19-5.54c-0.92-2.13-3.4-3.12-5.54-2.19     c-2.75,1.19-5.67,1.79-8.7,1.79c-12.09,0-21.93-9.84-21.93-21.93s9.84-21.93,21.93-21.93s21.93,9.84,21.93,21.93     c0,0.06,0.02,0.12,0.02,0.19v30.23h8.42V88.15H185.21z"></path>
			<path class="st0" d="M124.55,118.12c-0.19-16.57-13.73-30-30.34-30c-16.74,0-30.35,13.62-30.35,30.35     c0,16.74,13.62,30.35,30.35,30.35c4.18,0,8.23-0.84,12.04-2.48c2.13-0.92,3.12-3.4,2.19-5.54c-0.92-2.13-3.4-3.12-5.54-2.19     c-2.75,1.19-5.67,1.79-8.7,1.79c-12.09,0-21.93-9.84-21.93-21.93s9.84-21.93,21.93-21.93s21.93,9.84,21.93,21.93     c0,0.06,0.02,0.12,0.02,0.19v30.23h8.42v-30.78H124.55z"></path>
		</g>
		<path class="st1" d="M245.53,55.49h7.15v29.65h-7.15V55.49z"></path>
		<path class="st1" d="M257.84,55.49h7.39l11.17,17.79V55.49h6.74v29.65h-6.87L264.62,66.5v18.65h-6.78V55.49z"></path>
		<path class="st1" d="M288.32,55.49h7.15v29.65h-7.15V55.49z"></path>
		<path class="st1" d="M306.65,62.03h-8.04v-6.54h22.91v6.54h-7.96v23.11h-6.91V62.03z"></path>
		<path class="st1" d="M324.65,55.49h7.15v29.65h-7.15V55.49z"></path>
		<path class="st1" d="M345.25,55.49h6.82l10.97,29.65h-7.19l-1.54-4.43h-11.33l-1.54,4.43h-7.15L345.25,55.49z M345.17,74.54h6.99    l-3.49-9.95L345.17,74.54z"></path>
		<path class="st1" d="M369.07,62.03h-8.04v-6.54h22.91v6.54h-7.96v23.11h-6.91V62.03z"></path>
		<path class="st1" d="M387.08,55.49h7.15v29.65h-7.15V55.49z"></path>
		<path class="st1" d="M396.71,55.49h7.39l6.99,20.03l7.03-20.03h7.35L414.5,85.15h-6.82L396.71,55.49z"></path>
		<path class="st1" d="M427.9,55.49h20.47v6.58h-13.4v4.87h13.4v6.58h-13.4v5.04h13.4v6.58H427.9V55.49z"></path>
		<path class="st1" d="M464.79,55.49h20.39v6.66h-13.32v5.28h13.32v6.54h-13.32v11.17h-7.07V55.49z"></path>
		<path class="st1" d="M503.54,85.55c-2.11,0-4.09-0.4-5.93-1.2c-1.84-0.8-3.45-1.88-4.81-3.25c-1.37-1.37-2.44-2.98-3.23-4.83    c-0.79-1.85-1.18-3.84-1.18-5.95c0-2.11,0.39-4.09,1.18-5.93c0.79-1.84,1.86-3.45,3.23-4.83c1.37-1.38,2.97-2.47,4.81-3.27    c1.84-0.8,3.82-1.2,5.93-1.2c2.11,0,4.09,0.4,5.93,1.2c1.84,0.8,3.45,1.89,4.83,3.27c1.38,1.38,2.46,2.99,3.25,4.83    c0.79,1.84,1.18,3.82,1.18,5.93c0,2.11-0.39,4.1-1.18,5.95c-0.79,1.86-1.86,3.47-3.23,4.83c-1.37,1.37-2.97,2.45-4.81,3.25    C507.67,85.15,505.68,85.55,503.54,85.55z M503.54,78.56c1.16,0,2.24-0.22,3.23-0.65c0.99-0.43,1.84-1.03,2.56-1.79    c0.72-0.76,1.28-1.63,1.69-2.62c0.41-0.99,0.61-2.05,0.61-3.19c0-1.14-0.2-2.21-0.61-3.21c-0.41-1-0.97-1.88-1.71-2.64    c-0.73-0.76-1.59-1.35-2.58-1.79c-0.99-0.43-2.05-0.65-3.19-0.65c-1.14,0-2.2,0.22-3.19,0.65c-0.99,0.43-1.83,1.03-2.54,1.79    c-0.7,0.76-1.26,1.64-1.66,2.64c-0.41,1-0.61,2.07-0.61,3.21c0,1.14,0.2,2.2,0.59,3.19c0.39,0.99,0.95,1.86,1.67,2.62    c0.72,0.76,1.56,1.35,2.54,1.79C501.31,78.35,502.38,78.56,503.54,78.56z"></path>
		<path class="st1" d="M522.54,55.49h12.76c1.79,0,3.37,0.27,4.75,0.81c1.38,0.54,2.55,1.27,3.49,2.19c0.95,0.92,1.66,2,2.15,3.23    c0.49,1.23,0.73,2.55,0.73,3.96c0,1.9-0.43,3.61-1.28,5.14c-0.85,1.53-2.03,2.73-3.51,3.59l5.52,10.72h-7.8l-4.18-8.9h-5.56v8.9    h-7.07V55.49z M529.61,61.95v7.88h5.16c1.52,0,2.63-0.39,3.35-1.16c0.72-0.77,1.08-1.71,1.08-2.82c0-1.22-0.37-2.17-1.1-2.86    c-0.73-0.69-1.84-1.04-3.33-1.04H529.61z"></path>
		<path class="st1" d="M254.5,96.11h6.82l10.97,29.65h-7.19l-1.54-4.43h-11.33l-1.54,4.43h-7.15L254.5,96.11z M254.42,115.16h6.99    l-3.49-9.95L254.42,115.16z"></path>
		<path class="st1" d="M274.72,96.11h11.86c1.73,0,3.3,0.29,4.71,0.87c1.41,0.58,2.61,1.37,3.62,2.38c1,1,1.77,2.17,2.32,3.51    c0.54,1.34,0.81,2.77,0.81,4.29c0,1.49-0.27,2.91-0.81,4.27c-0.54,1.35-1.31,2.54-2.3,3.56c-0.99,1.02-2.19,1.83-3.62,2.44    c-1.42,0.61-3.01,0.91-4.77,0.91h-4.71v7.43h-7.11V96.11z M281.83,102.53v9.22h4.39c1.33,0,2.43-0.42,3.31-1.26    c0.88-0.84,1.32-1.95,1.32-3.33c0-1.38-0.44-2.5-1.32-3.35c-0.88-0.85-1.98-1.28-3.31-1.28H281.83z"></path>
		<path class="st1" d="M301.5,96.11h11.86c1.73,0,3.3,0.29,4.71,0.87c1.41,0.58,2.61,1.37,3.62,2.38c1,1,1.77,2.17,2.32,3.51    c0.54,1.34,0.81,2.77,0.81,4.29c0,1.49-0.27,2.91-0.81,4.27c-0.54,1.35-1.31,2.54-2.3,3.56c-0.99,1.02-2.19,1.83-3.62,2.44    c-1.42,0.61-3.01,0.91-4.77,0.91h-4.71v7.43h-7.11V96.11z M308.61,102.53v9.22H313c1.33,0,2.43-0.42,3.31-1.26    c0.88-0.84,1.32-1.95,1.32-3.33c0-1.38-0.44-2.5-1.32-3.35c-0.88-0.85-1.98-1.28-3.31-1.28H308.61z"></path>
		<path class="st1" d="M328.28,96.11h7.11v22.87h12.92v6.78h-20.03V96.11z"></path>
		<path class="st1" d="M351.39,96.11h7.15v29.65h-7.15V96.11z"></path>
		<path class="st1" d="M363.7,96.11h20.47v6.58h-13.4v4.87h13.4v6.58h-13.4v5.04h13.4v6.58H363.7V96.11z"></path>
		<path class="st1" d="M389.12,96.11h10.52c2.3,0,4.4,0.38,6.3,1.14c1.9,0.76,3.52,1.8,4.88,3.13c1.35,1.33,2.4,2.89,3.15,4.69    c0.74,1.8,1.12,3.76,1.12,5.87c0,2.11-0.39,4.08-1.16,5.89c-0.77,1.82-1.83,3.38-3.19,4.69c-1.35,1.31-2.97,2.35-4.85,3.11    c-1.88,0.76-3.92,1.14-6.11,1.14h-10.64V96.11z M396.18,102.69v16.45h3.25c1.3,0,2.47-0.21,3.51-0.63c1.04-0.42,1.94-1,2.68-1.75    c0.74-0.74,1.31-1.62,1.71-2.62c0.39-1,0.59-2.07,0.59-3.21c0-1.16-0.19-2.25-0.57-3.25c-0.38-1-0.93-1.87-1.67-2.62    c-0.73-0.74-1.63-1.33-2.7-1.75c-1.07-0.42-2.3-0.63-3.68-0.63H396.18z"></path>
		<path class="st1" d="M437.13,96.11h6.82l10.97,29.65h-7.19l-1.54-4.43h-11.33l-1.54,4.43h-7.15L437.13,96.11z M437.05,115.16h6.99    l-3.49-9.95L437.05,115.16z"></path>
		<path class="st1" d="M457.35,96.11h12.76c1.79,0,3.37,0.27,4.75,0.81c1.38,0.54,2.55,1.27,3.49,2.19c0.95,0.92,1.66,2,2.15,3.23    c0.49,1.23,0.73,2.55,0.73,3.96c0,1.9-0.43,3.61-1.28,5.14c-0.85,1.53-2.02,2.73-3.51,3.59l5.52,10.72h-7.8l-4.18-8.9h-5.56v8.9    h-7.07V96.11z M464.42,102.57v7.88h5.16c1.52,0,2.63-0.39,3.35-1.16c0.72-0.77,1.08-1.71,1.08-2.82c0-1.22-0.37-2.17-1.1-2.86    c-0.73-0.69-1.84-1.04-3.33-1.04H464.42z"></path>
		<path class="st1" d="M491.82,102.65h-8.04v-6.54h22.91v6.54h-7.96v23.11h-6.91V102.65z"></path>
		<path class="st1" d="M509.82,96.11h7.15v29.65h-7.15V96.11z"></path>
		<path class="st1" d="M522.13,96.11h20.39v6.66H529.2v5.28h13.32v6.54H529.2v11.17h-7.07V96.11z"></path>
		<path class="st1" d="M547.19,96.11h7.15v29.65h-7.15V96.11z"></path>
		<path class="st1" d="M573.6,126.17c-2.27,0-4.35-0.4-6.21-1.2c-1.87-0.8-3.47-1.88-4.79-3.25c-1.33-1.37-2.36-2.98-3.09-4.83    c-0.73-1.85-1.1-3.84-1.1-5.95c0-2.17,0.38-4.18,1.14-6.03c0.76-1.85,1.81-3.47,3.17-4.83c1.35-1.37,2.96-2.44,4.81-3.21    c1.85-0.77,3.88-1.16,6.07-1.16c1.43,0,2.8,0.18,4.1,0.53c1.3,0.35,2.52,0.85,3.66,1.48c1.14,0.64,2.17,1.41,3.09,2.32    c0.92,0.91,1.71,1.9,2.36,2.99l-6.22,3.94c-0.68-1.33-1.6-2.38-2.76-3.15c-1.16-0.77-2.56-1.16-4.18-1.16    c-1.19,0-2.27,0.22-3.25,0.65c-0.98,0.43-1.82,1.02-2.52,1.77c-0.7,0.75-1.25,1.62-1.64,2.64c-0.39,1.02-0.59,2.09-0.59,3.23    c0,1.14,0.19,2.2,0.57,3.19c0.38,0.99,0.92,1.85,1.62,2.6c0.7,0.75,1.54,1.33,2.5,1.77c0.96,0.43,2.04,0.65,3.23,0.65    c1.79,0,3.28-0.45,4.47-1.36c1.19-0.91,2.1-2.06,2.72-3.47l6.54,3.49c-0.62,1.22-1.4,2.34-2.32,3.37    c-0.92,1.03-1.96,1.92-3.11,2.66c-1.15,0.74-2.42,1.32-3.82,1.73C576.66,125.97,575.17,126.17,573.6,126.17z"></path>
		<path class="st1" d="M590.49,96.11h7.15v29.65h-7.15V96.11z"></path>
		<path class="st1" d="M611.09,96.11h6.82l10.97,29.65h-7.19l-1.54-4.43h-11.33l-1.54,4.43h-7.15L611.09,96.11z M611.01,115.16H618    l-3.49-9.95L611.01,115.16z"></path>
		<path class="st1" d="M631.31,96.11h7.11v22.87h12.92v6.78h-20.03V96.11z"></path>
		<path class="st1" d="M245.53,136.73h7.15v29.65h-7.15V136.73z"></path>
		<path class="st1" d="M257.84,136.73h7.39l11.17,17.79v-17.79h6.74v29.65h-6.87l-11.66-18.64v18.64h-6.78V136.73z"></path>
		<path class="st1" d="M294.29,143.27h-8.04v-6.54h22.91v6.54h-7.96v23.11h-6.91V143.27z"></path>
		<path class="st1" d="M312.23,136.73h20.47v6.58h-13.4v4.87h13.4v6.58h-13.4v5.04h13.4v6.58h-20.47V136.73z"></path>
		<path class="st1" d="M337.65,136.73h7.11v22.87h12.92v6.78h-20.03V136.73z"></path>
		<path class="st1" d="M360.7,136.73h7.11v22.87h12.92v6.78H360.7V136.73z"></path>
		<path class="st1" d="M383.81,136.73h7.15v29.65h-7.15V136.73z"></path>
		<path class="st1" d="M410.59,166.79c-2.41,0-4.58-0.41-6.5-1.22c-1.92-0.81-3.55-1.92-4.89-3.31c-1.34-1.39-2.37-3.01-3.09-4.85    c-0.72-1.84-1.08-3.79-1.08-5.85c0-2.14,0.38-4.14,1.14-6.01c0.76-1.87,1.81-3.48,3.15-4.83c1.34-1.35,2.95-2.42,4.81-3.21    c1.87-0.78,3.93-1.18,6.17-1.18c2.87,0,5.35,0.54,7.43,1.63c2.08,1.08,3.83,2.53,5.24,4.35l-5.93,4.18    c-0.7-1.11-1.62-1.96-2.74-2.56c-1.12-0.6-2.44-0.89-3.96-0.89c-1.14,0-2.21,0.22-3.21,0.65c-1,0.43-1.87,1.03-2.62,1.79    c-0.75,0.76-1.33,1.66-1.77,2.7c-0.43,1.04-0.65,2.17-0.65,3.39c0,1.27,0.2,2.42,0.61,3.45c0.41,1.03,0.98,1.92,1.73,2.68    c0.74,0.76,1.63,1.34,2.66,1.75c1.03,0.41,2.15,0.61,3.37,0.61c1.71,0,3.14-0.41,4.31-1.22c1.16-0.81,2-1.95,2.52-3.41h-8.25    v-6.58h15.92v3.37c0,1.95-0.35,3.81-1.04,5.59c-0.69,1.77-1.67,3.32-2.92,4.65c-1.26,1.33-2.78,2.38-4.55,3.17    C414.68,166.4,412.73,166.79,410.59,166.79z"></path>
		<path class="st1" d="M428.97,136.73h20.47v6.58h-13.4v4.87h13.4v6.58h-13.4v5.04h13.4v6.58h-20.47V136.73z"></path>
		<path class="st1" d="M454.39,136.73h7.39l11.17,17.79v-17.79h6.74v29.65h-6.86l-11.66-18.64v18.64h-6.78V136.73z"></path>
		<path class="st1" d="M498.86,166.79c-2.27,0-4.35-0.4-6.21-1.2c-1.87-0.8-3.47-1.88-4.79-3.25c-1.33-1.37-2.36-2.98-3.09-4.83    c-0.73-1.85-1.1-3.84-1.1-5.95c0-2.17,0.38-4.18,1.14-6.03s1.81-3.47,3.17-4.83c1.35-1.37,2.96-2.44,4.81-3.21    c1.85-0.77,3.88-1.16,6.07-1.16c1.44,0,2.8,0.18,4.1,0.53c1.3,0.35,2.52,0.85,3.66,1.48c1.14,0.64,2.17,1.41,3.09,2.32    c0.92,0.91,1.71,1.9,2.36,2.99l-6.22,3.94c-0.68-1.33-1.6-2.38-2.76-3.15c-1.16-0.77-2.56-1.16-4.18-1.16    c-1.19,0-2.27,0.22-3.25,0.65c-0.98,0.43-1.82,1.02-2.52,1.77c-0.7,0.75-1.25,1.63-1.64,2.64c-0.39,1.02-0.59,2.09-0.59,3.23    s0.19,2.2,0.57,3.19c0.38,0.99,0.92,1.85,1.62,2.6c0.7,0.75,1.54,1.33,2.5,1.77c0.96,0.43,2.04,0.65,3.23,0.65    c1.79,0,3.28-0.45,4.47-1.36c1.19-0.91,2.1-2.06,2.72-3.47l6.54,3.49c-0.62,1.22-1.4,2.34-2.32,3.37    c-0.92,1.03-1.96,1.92-3.11,2.66c-1.15,0.74-2.42,1.32-3.82,1.73C501.91,166.59,500.43,166.79,498.86,166.79z"></path>
		<path class="st1" d="M515.6,136.73h20.47v6.58h-13.4v4.87h13.4v6.58h-13.4v5.04h13.4v6.58H515.6V136.73z"></path>
	</g>
</g>
<g id="Schutzzone">
	<rect x="0.11" class="st2" width="697.17" height="221.99"></rect>
</g>
<g id="Abstände">
</g>
</svg>
