<svg width="1253" height="228" viewBox="0 0 1253 228" fill="none" xmlns="http://www.w3.org/2000/svg">
<path fill-rule="evenodd" clip-rule="evenodd" d="M13.4151 196.569L88.9168 14.291C92.4 5.88186 100.606 0.398926 109.708 0.398926C109.893 0.398926 110.077 0.401096 110.261 0.405411C110.445 0.401096 110.629 0.398926 110.814 0.398926C119.916 0.398926 128.072 7.72064 131.556 16.1298L207.107 196.569C213.094 211.024 202.47 226.924 186.824 226.924C177.997 226.924 170.028 221.636 166.597 213.503L126.028 117.328C120.144 103.379 100.378 103.379 94.4937 117.328L53.9253 213.503C50.4943 221.636 42.5253 226.924 33.6976 226.924C18.0517 226.924 7.42764 211.024 13.4151 196.569Z" fill="url(#paint0_linear_42_13)"/>
<path d="M89.0705 14.291L13.5688 196.569C7.58132 211.024 18.2053 226.924 33.8513 226.924C42.679 226.924 50.648 221.636 54.079 213.503L119.624 58.1178L130.65 31.5212C136.793 16.703 125.903 0.398926 109.861 0.398926C100.759 0.398926 92.5537 5.88187 89.0705 14.291Z" fill="#151E35" stroke="#151E35" stroke-width="0.629236" stroke-linecap="round" stroke-linejoin="round"/>
<path d="M200.502 14.291L276.004 196.569C281.991 211.024 271.367 226.924 255.721 226.924C246.894 226.924 238.924 221.636 235.494 213.503L169.949 58.1178L158.923 31.5212C152.779 16.703 163.67 0.398926 179.711 0.398926C188.813 0.398926 197.019 5.88187 200.502 14.291Z" fill="#151E35"/>
<path d="M376.814 175.661V155.727H391.642V80.6033H376.814V60.6691H431.51V80.6033H416.683V155.727H431.51V175.661H376.814ZM495.701 121.295L484.663 98.2311H484.169V175.661H460.611V60.6691H487.958L519.425 115.035L530.463 138.099H530.957V60.6691H554.515V175.661H527.168L495.701 121.295ZM588.063 60.6691H631.391C638.969 60.6691 645.889 61.8773 652.149 64.2935C658.409 66.7098 663.736 70.3342 668.129 75.1667C672.522 79.8894 675.927 85.8752 678.343 93.124C680.76 100.263 681.968 108.61 681.968 118.165C681.968 127.72 680.76 136.122 678.343 143.371C675.927 150.51 672.522 156.496 668.129 161.329C663.736 166.051 658.409 169.621 652.149 172.037C645.889 174.453 638.969 175.661 631.391 175.661H588.063V60.6691ZM631.391 153.421C638.859 153.421 644.735 151.334 649.019 147.16C653.302 142.987 655.444 136.287 655.444 127.062V109.269C655.444 100.043 653.302 93.3436 649.019 89.1701C644.735 84.9965 638.859 82.9098 631.391 82.9098H613.104V153.421H631.391ZM734.895 60.6691V131.18C734.895 139.308 736.487 145.403 739.672 149.467C742.858 153.421 748.184 155.398 755.653 155.398C763.121 155.398 768.448 153.421 771.633 149.467C774.818 145.403 776.411 139.308 776.411 131.18V60.6691H800.793V128.544C800.793 137.001 799.969 144.36 798.322 150.62C796.784 156.771 794.203 161.878 790.579 165.941C786.954 169.895 782.287 172.861 776.575 174.838C770.864 176.705 763.89 177.638 755.653 177.638C747.416 177.638 740.441 176.705 734.73 174.838C729.019 172.861 724.351 169.895 720.727 165.941C717.102 161.878 714.466 156.771 712.819 150.62C711.281 144.36 710.513 137.001 710.513 128.544V60.6691H734.895ZM871.03 177.638C860.925 177.638 852.359 175.936 845.33 172.531C838.3 169.017 832.315 164.514 827.372 159.022L843.847 142.383C851.645 151.169 861.255 155.562 872.677 155.562C878.828 155.562 883.386 154.299 886.351 151.773C889.317 149.247 890.799 145.897 890.799 141.724C890.799 138.539 889.921 135.903 888.163 133.816C886.406 131.619 882.837 130.137 877.455 129.368L866.087 127.885C853.896 126.348 844.945 122.668 839.234 116.847C833.633 111.026 830.832 103.283 830.832 93.6182C830.832 88.4562 831.82 83.7335 833.797 79.4501C835.774 75.1667 838.575 71.4874 842.199 68.4122C845.934 65.3369 850.437 62.9756 855.709 61.3281C861.09 59.5708 867.186 58.6922 873.995 58.6922C882.672 58.6922 890.305 60.0651 896.895 62.8108C903.485 65.5566 909.141 69.5654 913.864 74.8372L897.224 91.6413C894.479 88.4562 891.129 85.8752 887.175 83.8982C883.331 81.8115 878.443 80.7681 872.513 80.7681C866.911 80.7681 862.738 81.7565 859.992 83.7335C857.246 85.7104 855.873 88.4562 855.873 91.9708C855.873 95.9246 856.917 98.7802 859.003 100.538C861.2 102.295 864.715 103.558 869.547 104.327L880.915 106.139C892.776 108.006 901.563 111.685 907.274 117.177C912.985 122.558 915.841 130.247 915.841 140.241C915.841 145.733 914.852 150.785 912.875 155.398C910.898 160.011 907.988 163.964 904.144 167.259C900.409 170.554 895.742 173.135 890.14 175.002C884.539 176.76 878.169 177.638 871.03 177.638ZM988.919 82.9098V175.661H963.878V82.9098H932.741V60.6691H1020.06V82.9098H988.919ZM1070.47 175.661H1045.42V60.6691H1099.96C1105.23 60.6691 1110 61.5478 1114.29 63.3051C1118.57 65.0624 1122.2 67.5884 1125.16 70.8834C1128.24 74.0684 1130.6 77.9125 1132.25 82.4155C1133.89 86.9186 1134.72 91.9158 1134.72 97.4073C1134.72 105.205 1132.96 112.015 1129.44 117.836C1126.04 123.657 1120.82 127.885 1113.79 130.521L1136.36 175.661H1108.52L1088.42 133.487H1070.47V175.661ZM1096.82 112.399C1100.56 112.399 1103.47 111.466 1105.56 109.599C1107.75 107.622 1108.85 104.766 1108.85 101.032V93.783C1108.85 90.0487 1107.75 87.2481 1105.56 85.3809C1103.47 83.404 1100.56 82.4155 1096.82 82.4155H1070.47V112.399H1096.82ZM1186.25 175.661V130.686L1146.87 60.6691H1174.88L1199.59 106.468H1199.92L1223.64 60.6691H1250.83L1211.45 130.521V175.661H1186.25Z" fill="#151E35"/>
<defs>
<linearGradient id="paint0_linear_42_13" x1="114.687" y1="66.9642" x2="256.374" y2="127.293" gradientUnits="userSpaceOnUse">
<stop stop-color="#3F2199"/>
<stop offset="0.162555" stop-color="#5C2EE8"/>
</linearGradient>
</defs>
</svg>
