<svg width="1920" height="1080" viewBox="0 0 1920 1080" fill="none" xmlns="http://www.w3.org/2000/svg">
<path d="M858.316 416H272V602.638H858.316V416Z" fill="#94C11F"/>
<path d="M1633.75 416H858.066V602.638H1633.75V416Z" fill="#F39200"/>
<path d="M343.356 508.57C343.356 489.857 343.356 471.143 343.356 452.679C343.356 451.93 343.356 451.182 343.356 450.184C343.356 449.435 343.605 449.186 344.603 448.936C345.352 448.936 345.851 448.936 346.599 448.936C368.056 448.936 389.263 448.936 410.72 448.936C412.466 448.936 414.213 448.936 415.71 448.936C421.947 449.435 427.935 450.683 433.674 453.178C438.414 455.423 442.655 458.667 445.899 462.909C448.643 466.652 450.39 470.893 451.138 475.385C451.637 478.628 451.637 481.872 451.138 485.116C450.14 490.605 447.645 495.346 443.154 498.839C441.657 500.087 439.911 501.085 437.915 502.083C437.167 502.332 436.668 502.831 435.919 503.081C435.67 503.081 435.67 503.33 435.919 503.58V503.829C436.418 504.079 437.167 504.329 437.666 504.578C439.911 505.327 442.156 506.574 444.152 507.822C450.889 512.064 455.13 518.052 456.877 525.787C457.126 527.034 457.376 528.282 457.376 529.53C457.376 530.777 457.625 532.025 457.625 533.272C457.625 534.52 457.376 535.518 457.376 536.766C456.627 544.002 454.132 550.489 449.142 555.978C445.899 559.471 442.156 562.216 437.666 564.212C433.424 566.208 429.183 567.206 424.692 567.955C420.7 568.704 416.708 568.953 412.716 568.953C390.511 568.953 368.306 568.953 346.1 568.953C345.352 568.953 344.853 568.953 344.104 568.953C343.605 568.953 343.356 568.454 343.356 567.955C343.356 567.206 343.356 566.458 343.356 565.46C343.356 546.247 343.356 527.284 343.356 508.57ZM395.501 517.802C391.509 517.802 387.517 517.802 383.525 517.802C382.776 517.802 382.028 517.802 381.279 517.802C380.78 517.802 380.531 518.052 380.531 518.551C380.531 519.05 380.531 519.549 380.531 520.048C380.531 526.286 380.531 532.524 380.531 539.011C380.531 539.261 380.531 539.51 380.531 539.76C380.531 540.758 380.78 541.007 381.778 541.007C382.028 541.007 382.527 541.007 382.776 541.007C390.76 541.007 398.744 541.007 406.728 541.007C407.975 541.007 409.472 540.758 410.72 540.758C412.466 540.508 414.213 539.76 415.71 539.011C417.706 537.764 419.203 536.017 419.951 534.021C420.949 531.775 420.949 529.28 420.45 526.785C420.201 526.036 419.951 525.288 419.702 524.539C418.704 522.294 416.957 520.547 414.712 519.549C412.466 518.551 410.221 518.052 407.726 518.052C403.734 517.802 399.742 517.802 395.501 517.802ZM394.004 495.346C397.247 495.346 400.241 495.346 403.485 495.346H403.734C404.732 495.346 405.73 495.346 406.728 495.346C408.474 495.346 409.971 494.847 411.468 494.098C414.462 492.601 415.959 490.106 416.209 487.112C416.458 483.369 414.712 479.626 410.72 477.63C409.223 476.882 407.476 476.383 405.73 476.383C404.483 476.383 403.485 476.383 402.237 476.383C396 476.383 390.012 476.383 383.774 476.383C383.275 476.383 382.776 476.383 382.277 476.383C382.028 476.383 381.778 476.383 381.529 476.383C381.03 476.383 380.531 476.632 380.531 477.381C380.531 478.129 380.531 478.628 380.531 479.377C380.531 483.868 380.531 488.36 380.531 492.851C380.531 493.35 380.531 493.849 380.531 494.348C380.531 495.346 380.78 495.595 381.778 495.595C382.527 495.595 383.026 495.595 383.774 495.595C387.267 495.346 390.511 495.346 394.004 495.346Z" fill="#1D1D1B"/>
<path d="M743.548 508.82C743.548 527.534 743.548 546.497 743.548 565.211C743.548 565.959 743.548 566.708 743.548 567.706C743.548 567.955 743.298 568.205 742.799 568.205C742.3 568.205 741.801 568.205 741.302 568.205C731.821 568.205 722.59 568.205 713.109 568.205C712.61 568.205 712.361 568.205 711.862 568.205C711.113 568.205 710.864 567.706 710.864 567.207C710.864 566.458 710.864 565.959 710.864 565.211C710.864 562.965 710.864 560.47 710.864 558.224C710.864 557.975 710.864 557.476 710.864 557.226C710.864 557.226 710.864 556.976 710.614 556.976C710.365 556.976 710.365 556.976 710.115 556.976C709.367 557.975 708.868 558.723 708.119 559.721C703.129 565.71 696.892 569.203 689.157 570.7C685.914 571.199 682.67 571.199 679.427 570.949C673.19 570.45 667.451 568.953 662.212 565.959C657.721 563.464 653.978 560.22 650.984 556.228C647.242 551.238 644.997 545.748 643.5 539.76C643.001 537.265 642.502 534.77 642.252 532.025C642.252 531.526 642.252 531.276 642.252 530.777C642.003 527.284 642.003 523.791 642.252 520.298C643.001 510.816 645.995 501.834 651.982 494.348C656.972 488.11 663.459 483.868 671.443 481.623C674.936 480.625 678.429 480.126 682.171 480.126C683.668 480.126 685.165 480.126 686.662 480.126C689.656 480.375 692.65 480.874 695.395 481.872C699.886 483.369 703.628 486.114 706.872 489.607C707.371 490.106 707.87 490.855 708.618 491.354H708.868C709.117 491.354 709.117 491.354 709.117 491.104C709.117 490.356 709.117 489.607 709.117 488.609C709.117 476.383 709.117 464.157 709.117 451.681C709.117 447.938 708.868 448.437 712.361 448.437C721.592 448.437 731.073 448.437 740.304 448.437C741.053 448.437 741.801 448.437 742.799 448.437C743.049 448.437 743.298 448.687 743.548 449.186C743.548 449.435 743.548 449.685 743.548 449.934C743.548 450.683 743.548 451.431 743.548 452.18C743.548 471.393 743.548 490.106 743.548 508.82ZM710.115 525.288C710.115 523.292 710.115 521.046 709.616 519.05C708.868 515.307 707.371 512.064 704.876 509.069C701.632 505.327 697.89 503.331 692.9 503.331C688.908 503.331 685.415 504.828 682.67 507.572C680.924 509.319 679.677 511.315 678.679 513.561C677.182 517.054 676.683 520.547 676.433 524.29C676.433 526.037 676.683 527.783 676.683 529.53C676.932 532.274 677.681 534.77 678.679 537.265C679.926 540.009 681.423 542.255 683.918 544.251C686.662 546.497 689.906 547.495 693.399 547.245C697.141 547.245 700.385 545.748 703.129 543.004C705.125 541.007 706.622 538.512 707.87 536.017C709.367 532.773 710.115 529.031 710.115 525.288Z" fill="#1D1D1B"/>
<path d="M559.419 525.787C559.419 538.762 559.419 551.986 559.419 564.961C559.419 565.71 559.419 566.458 559.419 567.207C559.419 567.955 559.17 568.205 558.172 568.205C557.673 568.205 556.925 568.205 556.426 568.205C547.444 568.205 538.711 568.205 529.729 568.205C528.981 568.205 528.482 568.205 527.733 568.205C526.985 568.205 526.735 567.955 526.735 567.207C526.735 566.708 526.735 565.959 526.735 565.46C526.735 563.214 526.735 561.218 526.735 558.973C526.735 558.723 526.735 558.224 526.735 557.975C526.735 557.975 526.735 557.725 526.486 557.725C526.236 557.725 526.236 557.725 525.987 557.725C525.737 557.975 525.238 558.474 524.989 558.723C521.995 562.216 518.752 564.961 514.76 566.957C511.017 568.953 506.776 570.201 502.534 570.45C500.538 570.7 498.542 570.949 496.546 570.7C492.305 570.45 488.064 569.951 483.822 568.454C475.589 565.46 470.1 559.971 467.106 551.986C466.108 549.491 465.609 546.996 465.11 544.251C464.86 541.756 464.611 539.51 464.611 537.015C464.611 519.799 464.611 502.832 464.611 485.615C464.611 482.371 464.361 482.621 467.605 482.621C477.086 482.621 486.567 482.621 496.047 482.621C496.796 482.621 497.544 482.621 498.293 482.621C498.542 482.621 498.792 482.87 499.041 483.369C499.041 483.619 499.041 483.868 499.041 484.118C499.041 484.866 499.041 485.615 499.041 486.364C499.041 500.586 499.041 514.808 499.041 529.031C499.041 530.278 499.041 531.526 499.041 532.774C499.041 534.52 499.54 536.017 500.039 537.514C501.037 540.259 503.033 542.006 505.778 543.004C507.275 543.503 508.772 543.752 510.269 543.752C512.514 543.752 514.51 543.503 516.506 542.754C519.999 541.507 522.245 539.011 523.742 535.768C524.739 533.522 524.989 531.276 524.989 528.781C524.989 528.033 524.989 527.284 524.989 526.286C524.989 512.812 524.989 499.089 524.989 485.615C524.989 484.867 524.989 484.118 524.989 483.12C524.989 482.87 525.238 482.621 525.737 482.371C526.236 482.371 526.735 482.371 527.234 482.371C537.214 482.371 547.194 482.371 557.174 482.371C559.17 482.371 559.17 482.371 559.17 484.367C559.17 493.6 559.17 502.832 559.17 512.064C559.419 517.054 559.419 521.545 559.419 525.787Z" fill="#1D1D1B"/>
<path d="M843.596 526.535C843.596 531.775 843.596 537.264 843.596 542.504C843.596 543.253 843.596 544.001 843.596 544.999C843.596 545.997 843.845 546.746 844.095 547.495C844.594 548.493 845.342 549.241 846.59 549.491C847.338 549.491 848.087 549.491 849.085 549.491C849.334 549.491 849.833 549.74 849.833 549.99C849.833 550.489 849.833 550.738 849.833 551.237C849.833 555.978 849.833 560.719 849.833 565.46C849.833 565.959 849.833 566.208 849.833 566.707C849.833 566.957 849.584 567.206 849.334 567.456C849.085 567.456 848.835 567.705 848.586 567.705C846.34 568.454 844.095 568.953 841.849 569.202C837.608 569.951 833.367 569.701 829.375 569.452C826.381 569.202 823.387 568.703 820.642 567.705C819.644 567.206 818.646 566.707 817.648 566.208C815.403 564.711 813.656 562.715 812.658 560.22C812.409 559.721 812.159 559.222 812.159 558.972C812.159 558.723 811.66 558.723 811.66 558.972C811.411 559.222 811.161 559.471 810.912 559.721C806.421 564.711 800.932 567.705 794.445 569.202C792.2 569.701 789.954 570.201 787.459 570.201C785.463 570.45 783.467 570.45 781.721 570.45C776.98 570.201 772.489 569.701 768.248 568.204C764.506 566.957 761.262 564.961 758.518 562.216C755.773 559.471 754.027 556.228 752.779 552.485C752.031 549.99 751.781 547.495 751.781 544.75C751.781 542.255 752.28 539.51 753.029 537.015C754.276 532.524 757.27 528.781 761.013 526.036C763.258 524.539 765.504 523.292 767.999 522.294C770.992 521.046 774.236 520.297 777.479 519.798C781.222 519.05 784.964 518.8 788.707 518.301C793.198 517.802 797.938 517.303 802.429 516.056C803.676 515.806 804.674 515.307 805.922 514.808C806.92 514.309 807.918 513.81 808.666 512.812C809.415 512.063 809.914 511.065 809.914 510.067C810.163 508.57 809.914 507.073 809.415 505.825C808.916 504.328 807.918 503.081 806.421 502.332C805.922 502.083 805.173 501.833 804.674 501.584C802.678 501.085 800.433 500.835 798.437 501.085C797.439 501.334 796.441 501.334 795.443 501.833C792.699 502.831 790.703 504.578 789.455 507.323C788.956 508.321 788.707 509.568 788.457 510.566C788.208 511.065 787.958 511.315 787.459 511.315C786.711 511.315 786.212 511.315 785.463 511.315C776.481 511.315 767.749 511.315 758.767 511.315C758.019 511.315 757.27 511.315 756.522 511.315C756.272 511.315 756.023 511.065 756.023 510.566C756.023 509.568 756.023 508.57 756.272 507.572C757.27 501.833 759.765 496.843 763.757 492.601C767.499 488.609 771.99 485.864 777.23 484.118C781.471 482.621 785.962 481.622 790.453 481.123C795.693 480.375 801.182 480.375 806.421 480.874C812.409 481.123 818.397 482.121 824.135 484.118C826.63 484.866 828.876 485.864 831.121 487.112C833.866 488.609 836.111 490.605 838.107 492.851C840.851 495.845 842.598 499.338 843.346 503.081C843.845 505.825 844.344 508.57 844.344 511.564C843.596 516.305 843.596 521.545 843.596 526.535ZM810.413 534.769C810.662 534.769 810.662 534.769 810.413 534.769C810.413 533.522 810.413 532.025 810.413 530.777C810.413 530.528 810.163 530.278 809.914 530.528C809.664 530.528 809.165 530.777 808.916 530.777C805.922 532.025 802.678 533.023 799.435 533.771C797.439 534.27 795.443 534.769 793.447 535.019C791.451 535.518 789.705 536.266 787.958 537.264C785.962 538.512 784.715 540.009 784.465 542.255C783.966 545.498 784.964 547.994 787.459 549.99C788.457 550.738 789.705 551.237 790.952 551.487C794.944 552.485 798.936 551.986 802.678 550.239C805.922 548.742 808.167 546.497 809.415 543.253C810.163 541.506 810.413 539.76 810.413 538.013C810.662 537.015 810.413 536.017 810.413 534.769Z" fill="#1D1D1B"/>
<path d="M571.645 525.787C571.645 512.563 571.645 499.338 571.645 486.364C571.645 485.615 571.645 484.866 571.645 483.868C571.645 483.619 571.895 483.369 572.394 483.12C572.893 483.12 573.392 483.12 573.891 483.12C583.371 483.12 592.603 483.12 602.084 483.12C602.333 483.12 602.583 483.12 602.832 483.12C604.08 483.12 604.329 483.369 604.329 484.617C604.329 485.116 604.329 485.864 604.329 486.364C604.329 488.859 604.329 491.354 604.329 493.849C604.329 494.348 604.329 494.847 604.329 495.346L604.579 495.596H604.828C605.078 495.346 605.327 495.097 605.577 494.847C606.325 493.849 607.073 492.851 607.822 492.102C612.562 486.613 618.301 483.12 625.536 481.872C629.029 481.373 632.522 480.874 636.015 481.373C636.514 481.373 636.764 481.373 637.263 481.623C638.51 481.872 638.76 482.122 638.76 483.369C638.76 483.868 638.76 484.118 638.76 484.617C638.76 491.853 638.76 499.089 638.76 506.325C638.76 507.073 638.76 507.822 638.76 508.57C638.76 508.82 638.261 509.069 638.011 509.069C637.762 509.069 637.263 509.069 637.013 509.069C633.271 508.57 629.279 508.321 625.287 508.82C622.792 509.069 620.297 509.818 618.051 510.816C613.81 512.812 610.566 516.056 608.57 520.547C607.073 523.541 606.325 526.785 606.325 530.029C606.325 531.526 606.325 533.272 606.325 534.77C606.325 544.75 606.325 554.731 606.325 564.711C606.325 565.21 606.325 565.959 606.325 566.458C606.325 568.454 606.076 568.454 604.329 568.454C594.349 568.454 584.369 568.454 574.14 568.454C573.641 568.454 573.142 568.454 572.643 568.454C572.394 568.454 572.144 568.205 572.144 567.706C572.144 567.456 572.144 567.207 572.144 566.957C572.144 566.209 572.144 565.46 572.144 564.711C571.645 551.737 571.645 538.762 571.645 525.787Z" fill="#1D1D1B"/>
<path d="M1153.47 483.12C1158.46 483.12 1163.45 483.12 1168.19 483.12C1168.94 483.12 1169.69 483.12 1170.44 483.12C1170.69 483.12 1170.93 483.369 1170.93 483.619C1171.18 484.367 1171.43 484.866 1171.68 485.615C1173.68 492.102 1175.43 498.839 1177.42 505.327C1178.67 509.818 1180.17 514.559 1181.41 519.05C1182.16 522.044 1182.91 524.789 1183.66 527.783C1183.91 528.532 1183.91 529.28 1184.16 529.779L1184.41 530.029C1184.66 530.029 1184.91 529.779 1184.91 529.53C1185.16 529.031 1185.16 528.532 1185.41 527.783C1186.65 522.543 1187.9 517.304 1189.4 512.064C1191.14 505.576 1192.89 499.089 1194.39 492.601C1195.14 490.106 1195.63 487.362 1196.38 484.866C1196.63 484.367 1196.63 483.868 1196.88 483.369C1196.88 483.12 1197.13 482.87 1197.38 482.87C1197.63 482.87 1198.13 482.87 1198.38 482.87C1199.88 482.87 1201.12 482.87 1202.62 482.87C1209.61 482.87 1216.59 482.87 1223.83 482.87C1225.82 482.87 1226.07 482.621 1226.57 485.116C1229.07 494.348 1231.31 503.58 1233.81 512.812C1235.06 517.803 1236.3 523.042 1237.55 528.033C1237.8 528.781 1238.05 529.779 1238.05 530.528C1238.05 530.777 1238.3 530.777 1238.3 530.777C1238.3 530.777 1238.55 530.777 1238.55 530.528C1238.8 530.278 1238.8 529.779 1239.05 529.28C1240.29 524.04 1241.79 518.801 1243.04 513.561C1244.79 507.323 1246.53 501.085 1248.28 494.847C1249.28 491.603 1250.27 488.36 1251.02 485.116C1251.27 484.617 1251.27 484.118 1251.52 483.369C1251.77 482.87 1252.02 482.621 1252.52 482.621C1253.02 482.621 1253.27 482.621 1253.77 482.621C1263.75 482.621 1273.73 482.621 1283.96 482.621C1284.46 482.621 1284.95 482.621 1285.7 482.87L1285.95 483.12C1285.95 483.369 1285.95 483.868 1285.7 484.118C1284.71 486.863 1283.71 489.857 1282.71 492.601C1280.96 498.091 1278.97 503.331 1277.22 508.82C1274.97 515.307 1272.73 521.545 1270.48 528.033C1268.49 534.021 1266.49 540.009 1264.5 545.998C1262.25 552.735 1260.01 559.222 1257.76 565.959C1257.51 566.458 1257.51 566.957 1257.26 567.207C1257.01 567.456 1256.76 567.706 1256.51 567.706C1256.01 567.706 1255.51 567.706 1255.02 567.706C1245.28 567.706 1235.8 567.706 1226.07 567.706C1225.57 567.706 1224.83 567.706 1224.33 567.456C1224.08 567.456 1224.08 567.207 1224.08 567.207C1224.08 566.957 1223.83 566.708 1223.83 566.458C1222.33 561.218 1221.08 555.978 1219.59 550.739C1218.09 545 1216.59 539.51 1215.1 533.772C1213.6 528.282 1212.35 522.543 1211.1 517.054C1211.1 516.805 1210.85 516.805 1210.85 516.805C1210.85 516.805 1210.6 516.805 1210.6 517.054C1210.6 517.304 1210.36 517.553 1210.36 517.803C1210.11 518.551 1210.11 519.3 1209.86 520.048C1208.61 525.787 1207.11 531.276 1205.61 537.015C1203.87 543.503 1202.12 549.99 1200.38 556.478C1199.63 559.721 1198.63 562.715 1197.88 565.959C1197.88 566.209 1197.63 566.458 1197.63 566.957C1197.38 567.456 1197.13 567.706 1196.88 567.706C1196.13 567.706 1195.39 567.706 1194.64 567.706C1186.9 567.706 1179.17 567.706 1171.68 567.706C1169.94 567.706 1167.94 567.706 1166.19 567.706C1165.7 567.706 1165.2 567.456 1165.2 566.957C1164.7 565.71 1164.45 564.712 1163.95 563.464C1161.7 557.226 1159.71 550.988 1157.46 544.75C1154.22 535.518 1151.22 526.536 1147.98 517.304C1146.23 512.064 1144.24 506.574 1142.49 501.335C1140.5 495.596 1138.5 489.607 1136.5 483.868C1136.5 483.619 1136.5 483.369 1136.5 483.12C1136.5 482.87 1136.75 482.621 1137 482.621C1137.75 482.621 1138.5 482.621 1139.25 482.621C1143.49 483.12 1148.48 483.12 1153.47 483.12Z" fill="#1D1D1B"/>
<path d="M1560.4 508.82C1560.4 527.533 1560.4 546.496 1560.4 565.21C1560.4 565.959 1560.4 566.707 1560.4 567.705C1560.4 567.955 1560.15 568.204 1559.65 568.204C1559.15 568.204 1558.65 568.204 1558.15 568.204C1548.67 568.204 1539.44 568.204 1529.96 568.204C1529.46 568.204 1528.96 568.204 1528.46 568.204C1528.21 568.204 1527.71 567.955 1527.71 567.705C1527.71 567.206 1527.71 566.458 1527.71 565.959C1527.71 563.464 1527.71 560.968 1527.71 558.473C1527.71 557.974 1527.71 557.725 1527.71 557.226C1527.71 557.226 1527.71 556.976 1527.47 556.976C1527.22 556.976 1527.22 556.976 1526.97 556.976C1526.72 557.475 1526.22 557.974 1525.97 558.224C1522.72 562.715 1518.73 565.959 1513.74 568.204C1510 569.951 1506.01 570.699 1502.02 570.949C1496.78 571.198 1491.79 570.699 1486.8 568.953C1475.82 565.46 1468.09 558.473 1463.34 548.243C1461.35 544.251 1460.35 540.009 1459.6 535.518C1458.85 530.527 1458.6 525.288 1459.1 520.297C1459.6 514.808 1460.85 509.319 1463.1 504.079C1465.34 499.088 1468.33 494.597 1472.33 490.854C1477.32 485.864 1483.55 482.87 1490.29 481.373C1495.03 480.375 1499.77 480.125 1504.51 480.375C1507.01 480.624 1509.75 481.123 1512 481.872C1515.24 482.87 1518.23 484.617 1520.73 486.862C1521.98 487.86 1523.22 489.108 1524.47 490.355C1524.97 490.854 1525.22 491.104 1525.72 491.603H1525.97C1526.22 491.603 1526.22 491.603 1526.22 491.353C1526.22 490.605 1526.22 489.856 1526.22 489.108C1526.22 481.622 1526.22 474.137 1526.22 466.901C1526.22 461.911 1526.22 456.671 1526.22 451.68C1526.22 450.932 1526.22 450.183 1526.22 449.435C1526.22 449.185 1526.47 448.936 1526.97 448.686C1527.22 448.686 1527.22 448.686 1527.47 448.686C1527.96 448.686 1528.46 448.686 1528.96 448.686C1538.69 448.686 1548.17 448.686 1557.9 448.686C1558.65 448.686 1559.15 448.686 1559.9 448.686C1560.15 448.686 1560.65 448.936 1560.65 449.185C1560.65 449.934 1560.65 450.682 1560.65 451.431C1560.65 458.417 1560.65 465.404 1560.65 472.64C1560.4 484.866 1560.4 496.843 1560.4 508.82ZM1526.97 525.288C1526.97 522.044 1526.47 518.8 1525.47 515.557C1524.22 512.313 1522.48 509.568 1519.98 507.073C1514.49 502.083 1505.51 501.833 1499.77 507.322C1497.78 509.319 1496.28 511.564 1495.28 514.309C1494.03 517.303 1493.53 520.297 1493.53 523.541C1493.28 526.785 1493.78 530.028 1494.53 533.272C1495.03 535.518 1496.03 537.763 1497.28 539.76C1498.52 541.756 1500.02 543.502 1501.77 544.75C1504.76 546.746 1508 547.744 1511.5 547.495C1514.99 547.245 1517.98 545.748 1520.48 543.253C1522.97 541.007 1524.47 538.013 1525.72 534.769C1526.72 531.775 1527.22 528.531 1526.97 525.288Z" fill="#1D1D1B"/>
<path d="M858.068 508.57C858.068 490.106 858.068 471.642 858.068 452.928C858.068 452.429 858.068 451.93 858.068 451.431C858.068 448.687 857.818 448.936 860.812 448.936C873.536 448.936 886.011 448.936 898.735 448.936C917.198 448.936 935.91 448.936 954.373 448.936C955.371 448.936 956.12 448.936 957.118 448.936C957.367 448.936 957.617 449.186 957.617 449.685C957.617 450.184 957.617 450.433 957.617 450.932C957.617 459.416 957.617 468.149 957.617 476.632C957.617 478.379 957.617 478.379 955.87 478.379C955.122 478.379 954.623 478.379 953.874 478.379C935.661 478.379 917.448 478.379 899.234 478.379C898.236 478.379 897.488 478.379 896.49 478.379C896.241 478.379 895.991 478.628 895.741 479.127C895.741 479.627 895.741 479.876 895.741 480.375C895.741 485.615 895.741 490.855 895.741 496.095C895.741 496.594 895.741 496.843 895.741 497.342C895.741 497.592 895.991 497.841 896.49 497.841C896.74 497.841 896.989 497.841 897.238 497.841C897.987 497.841 898.735 497.841 899.484 497.841C914.204 497.841 928.675 497.841 943.395 497.841C944.144 497.841 944.892 497.841 945.89 497.841C946.639 497.841 946.888 498.091 946.888 498.839C946.888 499.338 946.888 499.837 946.888 500.336C946.888 507.572 946.888 515.058 946.888 522.294C946.888 522.793 946.888 523.292 946.888 523.791C946.888 524.539 946.639 524.789 945.89 524.789C945.142 524.789 944.393 524.789 943.645 524.789C928.924 524.789 913.955 524.789 899.234 524.789C898.236 524.789 897.488 524.789 896.49 524.789C896.241 524.789 895.991 525.038 895.991 525.537C895.991 526.286 895.991 527.034 895.991 528.033C895.991 540.508 895.991 552.735 895.991 565.21C895.991 565.959 895.991 566.707 895.991 567.706C895.991 567.955 895.742 568.205 895.243 568.454C894.744 568.454 894.245 568.454 893.746 568.454C882.518 568.454 871.291 568.454 860.313 568.454C859.814 568.454 859.066 568.454 858.567 568.205C858.317 568.205 858.317 567.955 858.317 567.955C858.317 567.706 858.317 567.456 858.317 567.207C858.317 566.458 858.317 565.709 858.317 564.711C858.068 545.998 858.068 527.284 858.068 508.57Z" fill="#1D1D1B"/>
<path d="M1375.77 527.534C1375.77 532.773 1375.77 537.764 1375.77 543.004C1375.77 544.002 1375.77 545 1375.77 546.247C1375.77 546.996 1376.02 547.495 1376.27 547.994C1376.77 548.742 1377.52 549.241 1378.27 549.491C1379.26 549.74 1380.01 549.491 1381.01 549.491C1381.51 549.491 1381.76 549.74 1381.76 550.239C1381.76 550.489 1381.76 550.988 1381.76 551.238C1381.76 555.978 1381.76 560.969 1381.76 565.709C1381.76 566.208 1381.76 566.458 1381.76 566.957C1381.76 567.207 1381.51 567.456 1381.26 567.456C1381.01 567.706 1380.76 567.706 1380.51 567.706C1378.52 568.454 1376.52 568.704 1374.52 569.203C1372.28 569.702 1369.78 569.951 1367.54 569.951C1363.3 569.951 1359.06 569.951 1355.06 568.704C1352.82 568.205 1350.57 567.207 1348.58 565.959C1346.58 564.711 1345.33 562.965 1344.34 560.719C1344.09 560.22 1343.84 559.721 1343.59 559.222C1343.34 558.973 1343.09 558.973 1342.84 559.222C1342.59 559.472 1342.59 559.472 1342.34 559.721C1338.1 564.711 1332.36 567.706 1326.12 569.203C1321.13 570.45 1316.14 570.949 1310.9 570.45C1307.41 570.201 1303.92 569.702 1300.67 568.704C1297.18 567.456 1293.94 565.959 1291.19 563.464C1287.7 560.719 1285.45 556.976 1284.21 552.984C1283.46 550.739 1283.21 548.243 1283.21 545.748C1283.21 543.752 1283.21 542.005 1283.46 540.009C1284.46 533.771 1287.7 528.781 1293.19 525.288C1295.18 524.04 1297.18 523.042 1299.43 522.294C1302.42 521.296 1305.41 520.298 1308.66 519.799C1311.4 519.3 1313.9 519.05 1316.64 518.8C1321.13 518.301 1325.62 517.802 1330.11 517.054C1332.11 516.555 1333.86 516.305 1335.85 515.557C1336.85 515.058 1337.85 514.808 1338.85 514.06C1340.84 512.812 1341.59 510.816 1341.34 508.57C1341.34 507.572 1341.09 506.824 1340.84 506.075C1340.09 504.329 1339.1 503.081 1337.6 502.332C1336.6 501.833 1335.85 501.584 1334.85 501.584C1332.86 501.334 1330.86 501.334 1329.12 501.584C1324.87 502.332 1322.13 504.578 1320.63 508.57C1320.63 508.82 1320.63 509.069 1320.38 509.319C1320.13 510.067 1319.88 510.566 1319.63 511.315C1318.89 511.814 1318.14 511.565 1317.39 511.565C1308.41 511.565 1299.18 511.565 1290.19 511.565C1289.45 511.565 1288.95 511.565 1288.2 511.565C1287.7 511.565 1287.45 511.066 1287.45 510.816C1287.7 508.071 1288.2 505.327 1289.2 502.831C1291.44 496.594 1295.68 491.853 1301.42 488.11C1305.16 485.615 1309.41 484.118 1313.65 482.87C1316.64 482.122 1319.63 481.623 1322.63 481.373C1327.37 480.874 1332.36 480.874 1337.1 481.124C1342.84 481.373 1348.58 482.371 1354.07 483.868C1356.81 484.617 1359.3 485.864 1361.8 487.112C1364.79 488.859 1367.54 490.855 1369.53 493.599C1372.28 496.594 1373.78 500.336 1374.52 504.329C1375.02 507.073 1375.27 510.067 1375.27 513.062C1375.77 517.553 1375.77 522.543 1375.77 527.534ZM1342.59 535.518C1342.59 534.27 1342.59 533.023 1342.59 531.526C1342.59 531.276 1342.59 530.777 1342.34 530.528L1342.09 530.278C1341.84 530.278 1341.59 530.278 1341.34 530.278C1337.1 532.025 1332.86 533.023 1328.62 534.021C1327.12 534.27 1325.87 534.769 1324.38 535.019C1322.88 535.518 1321.38 536.017 1320.13 536.766C1318.39 537.764 1317.39 539.011 1316.89 541.007C1316.64 542.005 1316.64 543.253 1316.64 544.501C1316.64 545.249 1316.89 545.998 1317.14 546.497C1317.89 547.744 1318.64 548.992 1319.88 549.74C1320.88 550.239 1321.88 550.738 1322.88 550.988C1324.62 551.487 1326.37 551.487 1328.12 551.487C1330.61 551.487 1333.11 550.738 1335.35 549.74C1339.59 547.495 1342.09 544.002 1342.34 539.261C1342.59 538.263 1342.59 537.015 1342.59 535.518Z" fill="#1D1D1B"/>
<path d="M1006.27 571.199C999.282 571.199 992.296 570.201 985.809 567.955C979.072 565.46 972.835 561.967 967.845 556.727C962.606 551.238 959.113 544.75 957.117 537.514C956.119 533.273 955.62 529.031 955.869 524.54C956.119 515.058 959.113 506.325 965.101 498.839C967.097 496.344 969.342 494.099 971.837 491.853C977.326 487.362 983.813 484.367 990.549 482.621C993.793 481.872 997.286 481.124 1000.53 481.124C1002.52 480.874 1004.52 480.874 1006.52 480.874C1012.26 480.874 1018.24 481.623 1023.73 483.369C1029.97 485.116 1035.71 488.11 1040.95 492.352C1047.93 498.091 1052.42 505.327 1054.92 514.06C1055.67 517.304 1056.17 520.298 1056.42 523.541C1056.67 526.286 1056.42 529.031 1056.17 531.775C1055.17 540.509 1052.17 548.244 1046.44 554.98C1041.45 560.969 1035.21 564.961 1027.97 567.706C1024.23 569.203 1020.49 570.201 1016.5 570.7C1013.25 570.949 1009.76 571.199 1006.27 571.199ZM1021.74 526.037C1021.74 525.288 1021.74 524.29 1021.74 523.541C1021.74 520.547 1021.24 517.553 1020.24 514.559C1019.74 512.563 1018.99 510.567 1017.74 508.82C1015.5 505.077 1012.26 502.832 1007.76 502.083C1004.02 501.584 1000.28 502.333 997.286 504.828C995.29 506.325 993.793 508.571 992.795 510.816C991.547 513.81 990.799 517.054 990.549 520.048C990.05 524.789 990.05 529.53 991.048 534.271C991.547 536.516 992.046 538.762 992.795 540.758C993.294 542.006 994.042 543.253 995.04 544.501C996.537 546.497 998.533 547.994 1001.03 548.992C1003.77 549.99 1006.52 549.99 1009.51 549.491C1013 548.743 1015.75 546.746 1017.49 543.752C1019.49 540.509 1020.74 537.015 1021.24 533.273C1021.74 531.027 1021.99 528.532 1021.74 526.037Z" fill="#1D1D1B"/>
<path d="M1388.75 526.036C1388.75 512.812 1388.75 499.588 1388.75 486.363C1388.75 483.12 1388.5 483.369 1391.74 483.369C1400.72 483.369 1409.45 483.369 1418.44 483.369C1421.43 483.369 1421.18 483.12 1421.18 486.114C1421.18 488.859 1421.18 491.853 1421.18 494.597C1421.18 495.096 1421.18 495.346 1421.18 495.845C1421.18 495.845 1421.43 496.094 1421.68 496.094C1422.18 495.845 1422.43 495.595 1422.68 495.096C1424.42 492.601 1426.42 490.356 1428.91 488.609C1432.91 485.365 1437.4 483.369 1442.39 482.371C1445.63 481.872 1448.87 481.872 1452.12 481.872C1453.12 481.872 1453.86 481.872 1454.61 482.371C1454.86 482.621 1455.11 482.87 1455.11 483.12C1455.11 483.619 1455.11 484.118 1455.11 484.617C1455.11 492.102 1455.11 499.837 1455.11 507.323C1455.11 507.822 1455.11 508.321 1455.11 508.82C1455.11 509.319 1454.61 509.568 1454.36 509.568C1454.11 509.568 1453.86 509.568 1453.61 509.568C1450.12 509.069 1446.63 509.069 1443.14 509.319C1440.14 509.568 1437.15 510.317 1434.4 511.564C1430.66 513.311 1427.92 516.056 1425.92 519.549C1424.67 521.795 1423.92 524.539 1423.43 527.034C1422.93 529.28 1422.93 531.775 1422.93 534.021C1422.93 544.501 1422.93 555.23 1422.93 565.709C1422.93 566.458 1422.93 567.206 1422.93 568.204C1422.93 568.704 1422.68 568.953 1422.18 568.953C1421.43 568.953 1420.93 568.953 1420.18 568.953C1410.7 568.953 1400.97 568.953 1391.49 568.953C1388.5 568.953 1388.75 569.203 1388.75 566.208C1388.75 552.485 1388.75 539.261 1388.75 526.036Z" fill="#1D1D1B"/>
<path d="M1065.15 525.538C1065.15 512.563 1065.15 499.338 1065.15 486.364C1065.15 485.615 1065.15 484.867 1065.15 483.868C1065.15 483.369 1065.4 483.12 1065.9 483.12C1066.65 483.12 1067.15 483.12 1067.89 483.12C1076.88 483.12 1085.86 483.12 1094.84 483.12C1097.83 483.12 1097.58 483.12 1097.58 485.865C1097.58 488.609 1097.58 491.603 1097.58 494.348C1097.58 494.847 1097.58 495.097 1097.58 495.596C1097.58 495.596 1097.58 495.596 1097.83 495.596H1098.08C1098.33 495.346 1098.58 495.097 1098.83 494.847C1100.08 493.101 1101.58 491.354 1103.32 489.607C1107.56 485.615 1112.8 482.87 1118.79 481.872C1122.03 481.373 1125.28 481.373 1128.77 481.373C1129.52 481.373 1130.27 481.623 1131.02 481.872C1131.27 482.122 1131.52 482.371 1131.52 482.621C1131.52 483.12 1131.52 483.369 1131.52 483.868C1131.52 491.603 1131.52 499.338 1131.52 507.073C1131.52 507.572 1131.52 507.822 1131.52 508.321C1131.52 508.82 1131.02 509.07 1130.77 509.07C1130.52 509.07 1130.02 509.07 1129.77 509.07C1126.03 508.571 1122.28 508.57 1118.54 508.82C1116.3 509.07 1114.05 509.569 1112.05 510.567C1106.57 512.812 1103.07 516.805 1101.08 522.044C1100.33 524.29 1099.83 526.286 1099.58 528.532C1099.33 530.777 1099.33 533.023 1099.33 535.269C1099.33 545.249 1099.33 555.479 1099.33 565.46C1099.33 568.454 1099.58 568.205 1096.59 568.205C1087.11 568.205 1077.37 568.205 1067.89 568.205C1067.15 568.205 1066.65 568.205 1065.9 568.205C1065.4 568.205 1065.15 567.955 1065.15 567.456C1065.15 566.708 1065.15 565.959 1065.15 564.961C1065.15 551.986 1065.15 538.762 1065.15 525.538Z" fill="#1D1D1B"/>
<path d="M1634 671.255C1633.75 671.006 1633.5 671.006 1633 671.006C1631.51 671.006 1630.26 671.006 1628.76 671.006C1628.51 671.006 1628.51 670.756 1628.26 670.507C1628.26 670.257 1628.26 670.008 1628.26 669.758C1628.26 669.259 1628.26 668.511 1628.26 668.011C1628.26 661.275 1628.26 654.538 1628.26 647.551C1628.26 646.553 1628.26 645.805 1628.26 644.807C1628.01 641.812 1626.27 639.816 1623.27 638.818C1620.53 637.82 1617.78 638.07 1615.04 639.068C1611.8 640.315 1608.55 643.309 1608.55 648.05C1608.55 654.039 1608.55 659.777 1608.55 665.766C1608.55 667.263 1608.55 668.76 1608.55 670.008C1608.55 670.257 1608.3 670.507 1607.8 670.507C1606.31 670.507 1604.81 670.507 1603.31 670.507C1602.56 670.507 1602.31 670.257 1602.31 669.509C1602.31 669.01 1602.31 668.76 1602.31 668.261C1602.31 657.532 1602.31 646.803 1602.31 636.073C1602.31 635.574 1602.31 634.826 1602.31 634.327L1602.56 634.077C1602.81 634.077 1603.06 634.077 1603.31 634.077C1604.56 634.077 1605.56 634.077 1606.81 634.077C1608.55 634.077 1608.55 634.077 1608.55 635.824C1608.55 636.573 1608.55 637.321 1608.55 638.07C1608.55 638.319 1608.55 638.319 1608.8 638.319H1609.05C1609.3 638.07 1609.55 638.07 1609.55 637.82C1612.29 634.826 1616.04 633.578 1620.03 633.329C1622.52 633.079 1624.77 633.578 1627.26 634.327C1629.51 635.075 1631.26 636.323 1632.5 638.319C1632.75 638.818 1633.25 639.317 1633.25 640.066C1633.25 640.315 1633.5 640.315 1633.75 640.565C1634 650.795 1634 661.025 1634 671.255Z" fill="#1D1D1B"/>
<path d="M1289.2 645.804C1289.2 653.289 1289.2 660.775 1289.2 668.26C1289.2 669.009 1289.2 669.758 1289.2 670.506C1289.2 670.756 1288.95 671.005 1288.7 671.005C1286.7 671.005 1284.71 671.005 1282.71 671.005C1282.46 671.005 1282.21 670.756 1281.96 670.506C1280.96 669.258 1280.21 668.011 1279.22 666.763C1272.23 657.032 1265.24 647.301 1258.51 637.57C1256.76 635.324 1255.26 632.829 1253.77 630.584C1253.77 630.334 1253.52 630.334 1253.27 630.584C1253.27 630.584 1253.27 630.584 1253.27 630.833C1253.27 631.083 1253.27 631.332 1253.27 631.582C1253.27 632.33 1253.27 632.829 1253.27 633.578C1253.27 645.305 1253.27 657.032 1253.27 668.759C1253.27 669.508 1253.27 670.257 1253.27 671.005L1253.02 671.255C1252.77 671.255 1252.27 671.504 1252.02 671.504C1248.03 671.504 1247.03 671.504 1247.03 671.255C1246.53 669.758 1246.78 668.011 1246.78 666.514C1246.78 652.291 1246.78 638.319 1246.78 624.096C1246.78 623.348 1246.78 622.599 1246.78 621.601C1246.78 621.351 1247.03 620.852 1247.28 620.852C1249.28 620.852 1251.52 620.852 1253.52 620.852C1253.77 620.852 1254.02 621.102 1254.02 621.102C1254.27 621.351 1254.52 621.601 1254.52 621.85C1262.5 633.079 1270.48 644.307 1278.47 655.785C1279.47 657.282 1280.46 658.779 1281.21 660.276C1281.46 660.775 1281.71 661.274 1282.21 661.773H1282.46H1282.71C1282.71 661.024 1282.71 660.276 1282.71 659.278C1282.71 647.551 1282.71 635.823 1282.71 624.096C1282.71 620.353 1282.21 620.852 1285.95 620.852C1286.95 620.852 1287.95 620.603 1288.95 621.102C1289.2 622.1 1289.2 623.098 1289.2 624.096C1289.2 630.833 1289.2 638.319 1289.2 645.804Z" fill="#1D1D1B"/>
<path d="M803.177 645.554C803.177 637.819 803.177 630.084 803.177 622.599C803.177 622.1 803.177 621.351 803.177 620.852C803.177 620.603 803.427 620.353 803.676 620.353C803.926 620.353 804.425 620.353 804.674 620.353C811.161 620.353 817.648 620.353 824.135 620.353C827.378 620.353 830.372 620.852 833.366 622.1C838.855 624.096 842.598 627.839 844.843 633.079C845.841 635.574 846.59 638.069 846.839 640.564C847.089 643.059 847.338 645.554 847.089 648.05C846.839 651.293 846.34 654.537 845.093 657.781C842.598 664.019 837.857 668.011 831.62 670.007C828.875 670.755 826.131 671.254 823.386 671.254C817.149 671.254 810.662 671.254 804.425 671.254C804.175 671.254 803.926 671.254 803.676 671.254C803.427 671.254 802.928 671.005 802.928 670.755C802.928 670.007 802.928 669.258 802.928 668.51C803.177 660.525 803.177 653.04 803.177 645.554ZM810.163 645.554C810.163 651.543 810.163 657.282 810.163 663.27C810.163 663.769 810.163 664.518 810.163 665.017C810.163 665.266 810.413 665.266 810.413 665.266C810.662 665.266 810.912 665.266 811.161 665.266C815.153 665.266 819.145 665.266 823.137 665.266C825.133 665.266 827.129 665.017 829.125 664.268C833.616 663.02 836.61 660.276 838.356 656.034C839.354 653.788 839.853 651.543 840.103 649.048C840.103 646.802 840.103 644.307 840.103 642.061C839.853 639.566 839.354 637.071 838.356 634.576C836.61 630.334 833.366 627.839 828.875 626.591C826.879 626.092 824.634 625.843 822.638 625.843C819.145 625.843 815.652 625.843 812.159 625.843C811.66 625.843 811.411 625.843 810.912 625.843C810.413 625.843 810.163 626.092 810.163 626.591C810.163 627.34 810.163 627.839 810.163 628.587C810.163 634.077 810.163 639.815 810.163 645.554Z" fill="#1D1D1B"/>
<path d="M1121.04 652.79C1121.04 657.781 1121.04 663.02 1121.04 668.011C1121.04 669.009 1121.04 670.007 1121.04 671.005C1120.54 675.496 1118.29 678.989 1114.3 680.986C1112.3 681.984 1110.31 682.483 1108.31 682.732C1105.07 683.231 1102.07 683.231 1098.83 682.732C1097.08 682.483 1095.34 681.984 1093.59 681.235C1092.59 680.736 1091.6 680.237 1090.85 679.738C1088.85 678.241 1087.6 676.494 1087.1 673.999C1086.85 673.251 1087.1 673.001 1087.85 673.001C1089.35 673.001 1090.6 673.001 1092.09 673.001C1092.34 673.001 1092.59 673.251 1092.84 673.5C1092.84 673.75 1093.09 673.999 1093.09 674.249C1093.59 675.995 1094.84 676.744 1096.34 677.492C1097.33 677.991 1098.33 678.241 1099.33 678.241C1102.07 678.74 1105.07 678.74 1107.81 677.991C1108.31 677.991 1108.56 677.742 1109.06 677.742C1112.05 676.744 1114.05 674.498 1114.55 671.254C1114.55 670.755 1114.8 670.506 1114.8 670.007C1114.8 668.26 1114.8 666.514 1114.8 664.767C1114.8 664.767 1114.55 664.518 1114.3 664.518C1114.05 664.518 1114.05 664.767 1113.8 664.767C1113.55 665.017 1113.3 665.266 1113.05 665.516C1110.31 668.26 1107.06 669.508 1103.32 669.508C1101.33 669.508 1099.33 669.258 1097.33 668.759C1092.59 667.262 1089.35 664.268 1087.35 659.777C1086.36 657.531 1085.86 655.285 1085.61 652.79C1085.61 650.295 1085.61 648.05 1086.36 645.554C1087.85 640.315 1091.1 636.322 1096.34 634.576C1099.33 633.578 1102.32 633.079 1105.32 633.578C1107.81 634.077 1110.06 634.825 1112.05 636.322C1112.8 636.821 1113.3 637.57 1114.05 638.069C1114.05 638.069 1114.3 638.318 1114.55 638.318H1114.8C1114.8 638.069 1115.05 638.069 1115.05 637.819C1115.05 636.821 1115.05 635.823 1115.05 634.825C1115.05 634.326 1115.3 634.077 1115.8 634.077C1117.29 634.077 1118.79 634.077 1120.29 634.077C1120.54 634.077 1121.04 634.326 1121.04 634.576C1121.04 635.324 1121.04 636.073 1121.04 636.821C1121.04 642.311 1121.04 647.55 1121.04 652.79ZM1115.3 651.293C1115.3 650.545 1115.05 649.547 1115.05 648.798C1115.05 647.55 1114.55 646.303 1114.05 645.055C1113.05 642.311 1111.06 640.315 1108.06 639.316C1105.57 638.568 1103.07 638.318 1100.33 638.817C1097.33 639.316 1095.09 641.063 1093.59 643.808C1093.09 644.806 1092.59 646.053 1092.34 647.301C1091.84 649.796 1091.84 652.291 1092.09 654.786C1092.34 656.783 1092.84 658.529 1093.84 660.276C1095.34 662.771 1097.33 664.268 1100.08 664.767C1102.32 665.266 1104.32 665.266 1106.57 664.767C1110.06 664.019 1112.55 662.022 1114.05 658.529C1115.05 655.784 1115.3 653.539 1115.3 651.293Z" fill="#1D1D1B"/>
<path d="M1067.64 645.554C1067.64 653.04 1067.64 660.525 1067.64 668.011C1067.64 668.759 1067.64 669.508 1067.64 670.256C1067.64 670.506 1067.39 670.755 1066.89 670.755C1065.4 670.755 1063.65 670.755 1062.15 670.755C1061.9 670.755 1061.41 670.506 1061.41 670.256C1061.41 669.757 1061.41 669.009 1061.41 668.51C1061.41 668.011 1061.66 667.512 1061.16 667.013C1060.66 667.013 1060.41 667.512 1060.16 667.761C1057.91 670.007 1054.92 671.254 1051.68 671.753C1048.93 672.003 1046.44 672.003 1043.69 671.254C1038.95 670.007 1035.71 667.013 1033.46 662.521C1032.21 660.026 1031.72 657.531 1031.47 654.786C1031.47 653.289 1031.47 651.792 1031.47 650.545C1031.72 647.55 1032.46 644.556 1033.96 641.812C1036.46 637.32 1040.2 634.825 1045.19 633.827C1047.43 633.328 1049.93 633.328 1052.17 633.827C1054.92 634.326 1057.41 635.574 1059.41 637.57C1059.91 638.069 1060.41 638.568 1060.91 638.817H1061.16C1061.16 638.568 1061.41 638.568 1061.41 638.318C1061.41 637.57 1061.41 636.821 1061.41 636.073C1061.41 631.332 1061.41 626.591 1061.41 622.1C1061.41 621.601 1061.41 621.102 1061.41 620.603L1061.66 620.353H1061.9C1063.65 620.353 1065.4 620.353 1066.89 620.353C1067.14 620.353 1067.39 620.603 1067.39 620.852C1067.39 621.601 1067.39 622.349 1067.39 623.098C1067.64 630.583 1067.64 638.069 1067.64 645.554ZM1037.95 652.79C1037.95 653.539 1037.95 654.287 1037.95 655.036C1038.2 657.282 1038.7 659.527 1039.7 661.773C1040.95 664.268 1042.94 666.015 1045.69 666.763C1049.18 667.761 1052.67 667.512 1055.67 665.765C1058.16 664.268 1059.66 662.022 1060.66 659.527C1061.41 657.282 1061.66 655.036 1061.66 652.79C1061.66 650.794 1061.41 648.798 1060.66 646.802C1059.41 643.059 1056.91 640.315 1052.92 639.067C1050.93 638.568 1049.18 638.318 1047.18 638.817C1044.44 639.316 1042.19 640.564 1040.7 642.81C1039.95 643.808 1039.45 644.806 1038.95 646.053C1038.2 648.049 1037.95 650.295 1037.95 652.79Z" fill="#1D1D1B"/>
<path d="M1377.02 645.554C1377.02 638.069 1377.02 630.334 1377.02 622.848C1377.02 622.349 1377.02 621.601 1377.02 621.102C1377.02 620.603 1377.27 620.353 1377.77 620.353C1378.77 620.353 1379.51 620.353 1380.51 620.353C1381.26 620.353 1382.01 620.353 1383.01 620.353L1383.26 620.603C1383.26 621.102 1383.26 621.601 1383.26 622.1C1383.26 626.841 1383.26 631.831 1383.26 636.572C1383.26 637.071 1383.26 637.819 1383.26 638.318C1383.26 638.318 1383.26 638.318 1383.51 638.568C1383.75 638.817 1383.75 638.817 1384 638.568C1384.5 638.069 1384.75 637.819 1385.25 637.32C1387.25 635.324 1389.74 634.326 1392.49 633.827C1395.73 633.328 1398.97 633.328 1401.97 634.576C1404.71 635.574 1406.96 637.32 1408.21 640.065C1408.95 641.562 1409.2 643.309 1409.2 645.055C1409.2 645.554 1409.2 646.053 1409.2 646.552C1409.2 654.038 1409.2 661.523 1409.2 669.009C1409.2 669.508 1409.2 670.256 1409.2 670.755L1408.95 671.005C1408.7 671.005 1408.7 671.005 1408.46 671.005C1406.96 671.005 1405.21 671.005 1403.71 671.005C1403.47 671.005 1403.22 670.755 1403.22 670.256C1403.22 669.508 1403.22 668.759 1403.22 668.011C1403.22 661.024 1403.22 653.788 1403.22 646.802C1403.22 645.804 1403.22 644.806 1402.97 643.808C1402.47 641.812 1401.47 640.564 1399.72 639.566C1398.48 638.817 1397.23 638.568 1395.73 638.318C1393.73 638.069 1391.74 638.318 1389.74 639.067C1385.75 640.564 1383.75 643.558 1383.51 647.8C1383.51 648.549 1383.51 649.297 1383.51 650.046C1383.51 656.284 1383.51 662.521 1383.51 668.759C1383.51 669.258 1383.51 670.007 1383.51 670.506C1383.51 670.755 1383.26 671.005 1383.01 671.005C1381.26 671.005 1379.51 671.254 1377.77 671.005C1377.52 671.005 1377.52 670.755 1377.52 670.755C1377.52 670.256 1377.52 670.007 1377.52 669.508C1377.52 666.514 1377.52 663.769 1377.52 660.775C1377.02 655.535 1377.02 650.545 1377.02 645.554Z" fill="#1D1D1B"/>
<path d="M1212.1 654.038C1207.61 654.038 1203.12 654.038 1198.63 654.038C1198.13 654.038 1197.88 654.038 1197.38 654.038C1197.13 654.038 1196.88 654.288 1196.88 654.537C1197.13 658.03 1198.13 661.274 1200.87 663.769C1202.62 665.516 1204.87 666.514 1207.36 666.763C1209.11 667.013 1210.85 667.013 1212.35 666.763C1215.34 666.264 1217.84 664.767 1219.34 662.023C1219.59 661.274 1219.84 660.775 1220.33 660.027C1220.58 659.777 1220.58 659.527 1221.08 659.527C1222.58 659.527 1224.33 659.527 1225.82 659.527C1226.07 659.527 1226.32 659.777 1226.32 660.276C1226.07 661.524 1225.57 662.771 1224.83 663.769C1222.83 667.512 1219.59 669.758 1215.59 671.005C1213.1 671.754 1210.6 672.003 1207.86 671.754C1205.86 671.504 1203.62 671.255 1201.62 670.506C1196.38 668.51 1192.89 664.518 1191.14 659.278C1189.65 654.537 1189.65 649.796 1191.39 645.056C1193.64 639.317 1197.63 635.574 1203.37 634.077C1207.36 632.829 1211.6 633.079 1215.59 634.576C1219.84 636.073 1223.08 639.067 1224.83 643.309C1226.32 646.553 1226.82 649.796 1226.82 653.539C1226.82 654.038 1226.57 654.288 1226.07 654.288C1225.82 654.288 1225.57 654.288 1225.32 654.288C1224.83 654.288 1224.08 654.288 1223.58 654.288C1220.09 654.038 1216.09 654.038 1212.1 654.038ZM1208.61 649.547C1211.85 649.547 1215.1 649.547 1218.34 649.547C1218.84 649.547 1219.59 649.547 1220.09 649.547C1220.33 649.547 1220.58 649.048 1220.58 648.798C1220.58 646.802 1220.09 645.056 1219.09 643.558C1217.84 641.063 1215.84 639.317 1213.1 638.568C1211.1 638.069 1209.11 637.82 1207.11 638.069C1204.12 638.319 1201.62 639.816 1199.63 642.311C1198.13 644.307 1197.38 646.303 1196.88 648.798C1196.88 649.048 1196.88 649.048 1196.88 649.297C1196.88 649.547 1197.13 649.547 1197.13 649.547C1197.63 649.547 1197.88 649.547 1198.38 649.547C1202.12 649.547 1205.36 649.547 1208.61 649.547Z" fill="#1D1D1B"/>
<path d="M1581.11 654.038C1576.62 654.038 1572.12 654.038 1567.63 654.038C1567.13 654.038 1566.64 654.038 1566.14 654.038L1565.89 654.288C1565.89 654.538 1565.89 654.538 1565.89 654.787C1566.14 657.033 1566.89 659.278 1568.13 661.274C1570.13 664.518 1573.12 666.265 1576.62 666.514C1578.61 666.764 1580.61 666.764 1582.6 666.015C1585.6 665.267 1587.59 663.52 1588.84 660.526C1589.09 660.276 1589.09 659.777 1589.34 659.278C1589.34 659.029 1589.59 658.779 1589.84 658.779C1591.59 658.779 1593.33 658.779 1594.83 658.779C1595.08 658.779 1595.33 659.029 1595.33 659.528C1593.58 665.267 1589.84 669.009 1584.1 670.507C1581.86 671.006 1579.36 671.255 1576.87 671.006C1575.12 670.756 1573.37 670.507 1571.63 670.008C1566.14 668.011 1562.39 664.518 1560.4 659.029C1559.4 656.284 1559.15 653.29 1559.4 650.545C1559.65 647.801 1560.15 645.555 1561.15 643.06C1563.89 637.57 1568.13 634.327 1574.12 633.079C1577.11 632.331 1580.36 632.58 1583.35 633.329C1588.34 634.576 1591.84 637.57 1594.08 642.062C1595.08 644.307 1595.83 646.304 1596.08 648.799C1596.08 649.797 1596.33 650.795 1596.33 652.042C1596.33 653.29 1596.33 653.539 1595.08 653.539C1594.58 653.539 1593.83 653.539 1593.33 653.539C1589.34 654.038 1585.1 654.038 1581.11 654.038ZM1577.86 649.547C1581.11 649.547 1584.6 649.547 1587.84 649.547C1588.34 649.547 1588.84 649.547 1589.34 649.547C1589.59 649.547 1589.84 649.298 1589.84 649.048C1589.59 647.302 1589.34 645.555 1588.59 643.808C1587.34 641.313 1585.6 639.567 1582.85 638.569C1580.86 637.82 1578.86 637.82 1576.62 638.069C1573.12 638.319 1570.63 640.066 1568.63 643.06C1567.38 644.806 1566.64 647.052 1566.39 649.048C1566.39 649.298 1566.64 649.547 1566.89 649.547C1567.38 649.547 1567.88 649.547 1568.38 649.547C1571.13 649.547 1574.62 649.547 1577.86 649.547Z" fill="#1D1D1B"/>
<path d="M884.513 653.29C884.513 656.034 884.513 659.029 884.513 661.773C884.513 662.771 884.513 663.52 884.762 664.518C885.012 666.015 886.01 666.764 887.507 666.764C887.756 666.764 888.255 666.764 888.505 666.764C888.754 666.764 889.004 667.013 889.004 667.263C889.004 668.51 889.004 669.508 889.004 670.756L888.754 671.005C888.255 671.255 887.756 671.504 887.507 671.504C886.509 671.504 885.511 671.754 884.263 671.504C882.018 671.255 880.022 670.257 879.273 667.762C879.273 667.512 879.024 667.263 879.024 666.764C879.024 666.514 878.525 666.514 878.525 666.514C878.275 666.764 878.026 667.013 877.776 667.263C875.032 670.007 871.788 671.255 868.046 671.754C865.052 672.003 862.308 671.754 859.314 671.005C858.066 670.506 856.819 670.007 855.821 669.259C853.575 667.762 852.577 665.516 852.328 663.021C852.328 661.773 852.328 660.526 852.577 659.278C853.076 657.032 854.324 655.036 856.32 653.789C857.318 653.04 858.316 652.541 859.563 652.042C861.06 651.543 862.807 651.044 864.553 650.795C866.798 650.296 869.044 650.046 871.289 649.797C872.786 649.547 874.283 649.298 875.78 648.798C876.279 648.549 876.778 648.549 877.028 648.299C878.525 647.551 879.273 646.054 879.024 644.307C878.774 641.812 877.527 640.065 875.032 639.317C874.283 639.067 873.535 638.818 872.786 638.818C871.04 638.568 869.044 638.568 867.297 638.818C866.299 638.818 865.551 639.317 864.802 639.566C862.806 640.315 861.559 641.812 861.06 643.808C860.811 644.307 860.811 644.806 860.561 645.555C860.312 646.802 860.312 646.802 859.064 646.802C857.817 646.802 856.569 646.802 855.072 646.802C854.823 646.802 854.573 646.553 854.573 646.303C854.823 642.062 856.819 638.818 860.312 636.822C862.058 635.824 864.054 635.075 866.299 634.826C869.044 634.576 871.788 634.576 874.533 634.826C876.03 635.075 877.776 635.574 879.273 636.073C882.517 637.57 884.513 640.315 884.762 644.058C884.762 645.056 884.762 646.054 884.762 647.052C884.513 648.549 884.513 651.044 884.513 653.29ZM879.024 654.787C879.024 654.038 879.024 653.29 879.024 652.541C879.024 652.292 879.024 652.042 879.024 651.793C879.024 651.543 878.774 651.543 878.525 651.543C875.281 652.791 872.038 653.539 868.794 654.038C867.796 654.288 866.798 654.288 866.05 654.537C865.052 654.787 863.805 655.036 862.807 655.535C860.561 656.533 859.314 658.031 859.064 660.526C859.064 662.023 859.314 663.27 860.062 664.518C860.561 665.267 861.31 665.766 862.058 666.265C863.056 666.764 864.054 666.764 865.052 667.013C867.796 667.512 870.291 667.013 872.537 666.015C876.529 664.268 878.774 661.025 879.024 656.533C879.024 656.034 879.024 655.286 879.024 654.787Z" fill="#1D1D1B"/>
<path d="M1497.77 645.804C1497.77 638.318 1497.77 630.583 1497.77 623.098C1497.77 622.349 1497.77 621.601 1497.77 620.852C1497.77 620.603 1498.02 620.353 1498.27 620.353C1500.02 620.353 1501.77 620.353 1503.51 620.353L1503.76 620.603C1503.76 621.102 1503.76 621.601 1503.76 622.1C1503.76 626.841 1503.76 631.831 1503.76 636.572C1503.76 637.071 1503.76 637.819 1503.76 638.318C1503.76 638.318 1503.76 638.318 1504.01 638.568H1504.26C1504.51 638.318 1504.76 638.318 1504.76 638.069C1507.5 635.075 1511.25 633.827 1515.24 633.578C1517.48 633.328 1519.98 633.578 1522.23 634.326C1527.46 636.073 1529.71 640.315 1529.71 644.307C1529.71 644.806 1529.71 645.055 1529.71 645.554C1529.71 653.289 1529.71 661.274 1529.71 669.009C1529.71 669.508 1529.71 669.757 1529.71 670.256C1529.71 670.755 1529.46 671.005 1528.96 671.005C1527.46 671.005 1525.97 671.005 1524.47 671.005H1524.22C1523.97 671.005 1523.72 670.755 1523.72 670.256C1523.72 669.508 1523.72 668.759 1523.72 668.011C1523.72 661.024 1523.72 654.287 1523.72 647.301C1523.72 646.552 1523.72 645.804 1523.72 645.055C1523.47 642.061 1521.98 639.815 1518.73 638.568C1515.99 637.819 1513.24 637.819 1510.5 638.817C1507.26 640.065 1504.26 643.059 1504.26 647.8C1504.26 651.293 1504.26 654.786 1504.26 658.28C1504.26 661.773 1504.26 665.017 1504.26 668.51C1504.26 669.009 1504.26 669.757 1504.26 670.256C1504.26 670.506 1504.01 670.755 1503.76 670.755C1502.02 670.755 1500.27 670.755 1498.77 670.755C1498.52 670.755 1498.27 670.506 1498.27 670.007C1498.27 669.258 1498.27 668.51 1498.27 667.761C1497.77 660.525 1497.77 653.289 1497.77 645.804Z" fill="#1D1D1B"/>
<path d="M1328.37 653.29C1328.37 656.284 1328.37 659.278 1328.37 662.272C1328.37 663.27 1328.37 664.019 1328.62 665.017C1328.87 666.015 1329.61 666.514 1330.61 666.763C1331.11 666.763 1331.36 666.763 1331.86 666.763C1332.36 666.763 1332.61 667.013 1332.61 667.512C1332.61 668.26 1332.61 668.76 1332.61 669.508C1332.61 670.756 1332.36 671.255 1330.86 671.255C1329.86 671.255 1328.87 671.255 1327.62 671.255C1325.12 671.005 1323.63 670.007 1322.63 667.512C1322.63 667.262 1322.38 667.013 1322.38 666.514C1322.38 666.264 1321.88 666.264 1321.88 666.264C1321.63 666.514 1321.38 666.763 1320.88 667.013C1318.39 669.259 1315.64 670.506 1312.4 671.005C1309.16 671.504 1305.91 671.255 1302.67 670.257C1300.92 669.758 1299.43 668.76 1298.18 667.512C1296.68 666.015 1295.93 664.268 1295.93 662.272C1295.93 661.274 1295.93 660.276 1295.93 659.278C1296.18 656.533 1297.43 654.288 1299.68 652.79C1301.17 651.792 1302.67 651.044 1304.17 650.794C1306.41 650.046 1308.66 649.796 1311.15 649.297C1313.15 649.048 1315.14 648.798 1317.14 648.299C1317.89 648.299 1318.64 648.05 1319.14 647.8C1319.63 647.551 1320.13 647.301 1320.63 647.052C1321.63 646.303 1322.13 645.555 1322.13 644.307C1322.38 641.562 1321.13 639.566 1318.64 638.568C1317.89 638.069 1316.89 637.82 1316.14 637.82C1314.15 637.57 1312.15 637.57 1310.4 637.82C1309.41 638.069 1308.41 638.319 1307.66 638.568C1305.91 639.317 1304.91 640.564 1304.17 642.311C1303.92 643.059 1303.92 643.808 1303.67 644.307C1303.42 645.305 1303.42 645.305 1302.67 645.305C1301.17 645.305 1299.68 645.305 1298.43 645.305C1297.93 645.305 1297.93 645.055 1297.93 644.806C1298.18 641.313 1299.67 638.319 1302.42 636.073C1304.66 634.326 1307.16 633.578 1309.9 633.328C1312.65 633.079 1315.14 633.079 1317.89 633.328C1319.63 633.578 1321.13 634.077 1322.63 634.825C1325.87 636.572 1327.62 639.317 1328.12 642.81C1328.12 643.558 1328.12 644.307 1328.12 645.056C1328.37 648.05 1328.37 650.794 1328.37 653.29ZM1322.88 655.036C1322.88 654.038 1322.88 653.29 1322.88 652.291C1322.88 651.543 1322.63 651.293 1321.88 651.792C1319.39 652.79 1316.89 653.29 1314.4 653.789C1312.9 654.038 1311.15 654.288 1309.65 654.787C1308.41 655.036 1307.41 655.535 1306.16 656.034C1303.92 657.032 1302.92 658.779 1302.67 661.274C1302.67 662.771 1302.92 664.268 1303.92 665.266C1304.42 665.765 1304.91 666.264 1305.66 666.514C1306.66 667.013 1307.66 667.262 1308.66 667.262C1311.9 667.761 1314.89 667.262 1317.64 665.516C1320.88 663.52 1322.38 660.775 1322.38 657.032C1322.88 656.284 1322.88 655.785 1322.88 655.036Z" fill="#1D1D1B"/>
<path d="M967.845 645.055C967.097 645.055 966.348 645.055 965.6 645.055C964.851 645.055 964.602 644.806 964.602 644.307C964.352 643.558 964.352 643.059 964.103 642.56C963.355 640.814 961.858 639.566 960.111 638.817C959.113 638.568 958.365 638.318 957.367 638.318C956.119 638.318 954.872 638.318 953.624 638.318C952.377 638.318 951.129 638.817 949.882 639.316C948.634 640.065 947.886 641.063 947.636 642.311C947.137 644.307 947.886 645.804 949.632 646.802C950.381 647.301 951.129 647.551 952.127 647.8C954.123 648.549 956.369 648.798 958.614 649.297C960.61 649.796 962.855 650.046 964.851 650.794C966.099 651.044 967.097 651.543 968.095 652.291C971.089 654.038 972.835 656.533 972.835 660.276C972.835 661.523 972.835 662.771 972.586 664.019C971.837 666.015 970.839 667.761 969.093 669.009C967.596 670.007 966.099 670.755 964.352 671.255C962.606 671.754 960.61 672.003 958.864 672.003C955.62 672.253 952.127 671.754 949.133 670.755C947.886 670.256 946.888 669.757 945.89 669.258C943.145 667.512 941.399 665.017 940.65 662.022C940.401 661.274 940.401 660.775 940.151 660.026C939.902 659.278 940.401 659.028 941.149 659.028C942.397 659.028 943.395 659.028 944.642 659.028C946.888 659.028 946.389 658.779 947.137 660.775C948.135 664.268 950.63 666.015 954.123 666.763C956.618 667.262 958.864 667.262 961.359 666.763C962.107 666.514 962.855 666.264 963.604 666.015C964.352 665.765 965.101 665.266 965.6 664.767C967.346 663.27 967.346 660.775 966.847 659.278C966.598 658.529 966.099 657.781 965.35 657.282C964.602 656.783 963.853 656.284 963.105 656.034C961.358 655.285 959.363 655.036 957.367 654.537C955.121 654.038 952.876 653.788 950.63 653.04C949.383 652.79 947.886 652.291 946.888 651.543C946.139 651.044 945.391 650.545 944.642 650.046C943.395 649.048 942.646 647.8 942.397 646.303C942.147 644.806 941.898 643.558 942.147 642.061C942.646 639.067 944.143 637.071 946.638 635.574C948.385 634.576 950.131 634.077 952.127 633.827C954.872 633.328 957.866 633.328 960.61 633.827C962.107 634.077 963.853 634.576 965.35 635.075C968.344 636.572 970.59 638.817 971.588 642.311C971.837 643.059 971.837 643.808 972.087 644.307C972.087 644.556 971.837 644.806 971.837 644.806C969.841 645.055 968.843 645.055 967.845 645.055Z" fill="#1D1D1B"/>
<path d="M919.443 645.055C918.445 645.055 917.696 645.055 916.698 645.055C916.449 645.055 916.199 644.806 915.95 644.556C915.7 644.057 915.7 643.309 915.451 642.81C914.952 641.063 913.455 639.816 911.708 639.067C910.71 638.817 909.962 638.318 908.964 638.318C907.467 638.318 906.219 638.318 904.722 638.318C903.475 638.318 902.227 638.817 900.98 639.316C899.732 640.065 898.984 641.063 898.734 642.311C898.485 643.808 898.984 645.804 900.231 646.552C900.98 647.051 901.978 647.551 902.976 647.8C904.473 648.299 905.72 648.549 907.217 648.798C909.463 649.297 911.958 649.796 914.203 650.295C915.95 650.794 917.696 651.293 919.193 652.291C920.94 653.289 922.436 654.786 923.185 656.783C923.933 658.529 924.183 660.525 923.684 662.521C923.185 665.765 921.439 668.011 918.694 669.757C916.698 670.755 914.702 671.504 912.457 671.754C909.463 672.253 906.219 672.253 903.225 671.754C900.231 671.254 897.487 670.506 895.241 668.51C892.247 666.264 890.75 663.27 890.501 659.527C890.501 659.278 890.75 659.028 891 659.028C891.249 659.028 891.499 659.028 891.748 659.028C892.996 659.028 894.243 659.028 895.491 659.028C895.99 659.028 896.489 658.779 896.988 659.278C897.237 659.527 897.237 660.026 897.237 660.525C897.487 661.024 897.487 661.523 897.736 662.022C898.734 664.268 900.481 665.765 902.726 666.264C904.972 667.013 907.217 667.262 909.712 667.013C910.96 667.013 912.207 666.763 913.455 666.264C914.203 666.015 914.702 665.765 915.451 665.266C917.197 664.019 917.696 662.022 917.447 659.777C917.197 658.779 916.698 657.781 915.7 657.282C914.952 656.783 914.203 656.284 913.455 656.034C911.708 655.285 909.712 655.036 907.716 654.537C905.471 654.038 903.475 653.539 901.229 653.04C900.481 652.79 899.982 652.79 899.483 652.541C898.984 652.291 898.235 652.042 897.736 651.792C892.746 649.547 891.748 644.556 892.996 640.564C893.495 638.568 894.742 637.071 896.239 636.073C897.986 634.825 900.231 634.077 902.227 633.827C905.221 633.328 908.215 633.328 911.209 633.827C912.706 634.077 914.203 634.576 915.7 635.075C918.944 636.572 920.939 639.316 921.937 642.56C922.187 643.059 922.187 643.558 922.187 644.307C922.187 644.556 921.938 644.806 921.688 644.806C921.189 645.055 920.191 645.055 919.443 645.055Z" fill="#1D1D1B"/>
<path d="M993.293 652.541C993.293 647.052 993.293 641.812 993.293 636.323C993.293 635.824 993.293 635.325 993.293 634.826C993.293 634.576 993.543 634.327 993.792 634.327C995.539 634.327 997.285 634.327 999.032 634.327C999.281 634.327 999.531 634.576 999.531 634.826C999.531 635.325 999.531 636.073 999.531 636.572C999.531 637.071 999.531 637.321 999.531 637.82C999.531 638.069 999.531 638.319 999.78 638.568C1000.03 638.818 1000.28 638.568 1000.28 638.319C1000.53 638.069 1001.03 637.57 1001.28 637.321C1003.27 635.574 1005.77 634.327 1008.51 633.828C1011.76 633.329 1014.75 633.329 1017.74 634.327C1020.74 635.325 1022.73 637.071 1024.23 639.816C1024.98 641.313 1025.23 642.81 1025.23 644.557C1025.23 645.056 1025.23 645.305 1025.23 645.804C1025.23 653.29 1025.23 661.025 1025.23 668.51C1025.23 669.009 1025.23 669.758 1025.23 670.257C1025.23 670.506 1024.98 670.756 1024.48 670.756C1024.23 670.756 1023.98 670.756 1023.73 670.756C1022.48 670.756 1021.24 670.756 1019.74 670.756C1018.99 670.756 1018.74 670.506 1018.74 669.758C1018.74 669.259 1018.74 668.51 1018.74 668.011C1018.74 661.025 1018.74 653.789 1018.74 646.802C1018.74 645.804 1018.74 644.806 1018.49 643.808C1017.99 641.563 1016.75 640.065 1014.75 639.067C1013.5 638.568 1012.26 638.319 1011.01 638.069C1009.01 637.82 1007.02 638.069 1005.27 638.818C1001.28 640.315 999.281 643.309 999.032 647.551C999.032 648.299 999.032 648.798 999.032 649.547C999.032 655.785 999.032 662.023 999.032 668.261C999.032 669.009 999.032 669.508 999.032 670.257L998.782 670.506H998.533C996.786 670.506 995.04 670.506 993.543 670.506C993.293 670.506 993.044 670.257 993.044 669.758C993.044 669.009 993.044 668.51 993.044 667.762C993.293 663.021 993.293 657.781 993.293 652.541Z" fill="#1D1D1B"/>
<path d="M1160.96 652.541C1160.96 658.03 1160.96 663.519 1160.96 669.009C1160.96 669.508 1160.96 670.007 1160.96 670.506L1160.71 670.755C1160.46 670.755 1160.21 670.755 1159.96 670.755C1159.21 670.755 1158.71 670.755 1157.96 670.755C1156.96 670.755 1155.97 671.005 1154.97 670.506C1154.72 669.508 1154.97 668.51 1154.72 667.512C1154.72 667.262 1154.72 666.763 1154.72 666.514C1154.72 666.514 1154.72 666.514 1154.47 666.264H1154.22C1153.72 666.763 1153.22 667.262 1152.72 667.512C1150.23 670.007 1146.98 671.254 1143.24 671.254C1141.49 671.254 1139.75 671.254 1138 670.755C1136.26 670.256 1134.76 669.508 1133.26 668.51C1131.76 667.262 1130.77 665.765 1130.02 664.019C1129.52 662.521 1129.27 660.775 1129.27 659.028C1129.27 654.287 1129.27 649.547 1129.27 644.806C1129.27 641.812 1129.27 638.568 1129.27 635.574C1129.27 635.075 1129.27 634.825 1129.27 634.326L1129.52 634.077C1129.77 634.077 1129.77 634.077 1130.02 634.077C1131.52 634.077 1133.01 634.077 1134.51 634.077C1135.26 634.077 1135.51 634.326 1135.51 635.075C1135.51 635.823 1135.51 636.322 1135.51 637.071C1135.51 644.057 1135.51 651.044 1135.51 658.03C1135.51 659.278 1135.51 660.276 1135.76 661.274C1136.26 663.02 1137.25 664.518 1139 665.266C1139.75 665.765 1140.5 666.015 1141.25 666.015C1143.49 666.514 1145.74 666.514 1147.98 665.765C1151.72 664.518 1154.22 661.274 1154.47 657.531C1154.47 656.783 1154.47 656.034 1154.47 655.036C1154.47 648.798 1154.47 642.56 1154.47 636.322C1154.47 635.574 1154.47 634.825 1154.47 634.077C1154.47 633.827 1154.72 633.578 1154.97 633.578C1155.22 633.578 1155.22 633.578 1155.47 633.578C1156.96 633.578 1158.46 633.578 1159.96 633.578C1160.46 633.578 1160.71 633.827 1160.71 634.326C1160.71 635.075 1160.71 635.574 1160.71 636.322C1160.96 642.311 1160.96 647.301 1160.96 652.541Z" fill="#1D1D1B"/>
<path d="M1368.04 646.054C1367.54 646.054 1367.29 646.054 1366.79 646.054C1366.04 646.054 1365.29 646.303 1365.04 645.804C1364.79 645.305 1364.54 644.806 1364.29 644.307C1363.3 641.562 1361.55 639.816 1358.81 638.818C1355.81 637.82 1352.57 637.82 1349.57 638.818C1346.58 639.816 1344.58 641.812 1343.34 644.557C1341.84 647.551 1341.34 650.545 1341.59 653.789C1341.84 656.034 1342.34 658.28 1343.34 660.276C1344.83 663.52 1347.33 665.516 1350.82 666.514C1353.57 667.263 1356.56 667.263 1359.3 666.265C1362.3 665.266 1364.29 663.021 1365.04 659.777C1365.04 659.278 1365.29 658.779 1365.29 658.28L1365.54 658.031H1365.79C1367.29 658.031 1369.03 658.031 1370.53 658.031C1370.78 658.031 1371.03 658.28 1371.03 658.779C1370.53 663.52 1368.29 667.263 1364.04 669.758C1363.05 670.257 1362.05 670.756 1361.05 671.005C1356.56 672.253 1352.07 672.253 1347.33 670.756C1342.09 669.009 1338.6 665.516 1336.6 660.526C1335.35 657.531 1334.85 654.537 1335.1 651.543C1335.35 647.301 1336.6 643.559 1339.34 640.065C1341.84 636.822 1345.08 634.826 1349.08 633.828C1353.07 632.829 1357.06 633.079 1361.05 634.077C1362.55 634.576 1363.8 635.325 1365.29 636.073C1368.54 638.319 1370.28 641.313 1371.28 645.056C1371.53 645.555 1371.28 646.054 1370.53 646.054C1369.53 646.054 1368.79 646.054 1368.04 646.054Z" fill="#1D1D1B"/>
<path d="M1488.54 646.054C1487.79 646.054 1487.3 646.054 1486.55 646.054C1485.8 646.054 1485.55 646.054 1485.3 645.056C1485.05 644.557 1485.05 644.307 1484.8 643.808C1483.8 641.313 1482.06 639.566 1479.31 638.568C1476.07 637.321 1472.58 637.57 1469.33 638.818C1467.09 639.816 1465.34 641.563 1464.09 643.559C1463.09 645.305 1462.6 647.052 1462.35 649.048C1461.85 652.541 1462.1 656.034 1463.59 659.278C1464.59 661.524 1465.84 663.27 1467.84 664.518C1469.33 665.516 1471.08 666.265 1472.83 666.265C1474.82 666.514 1477.07 666.514 1479.06 665.766C1482.31 664.768 1484.55 662.522 1485.3 659.278C1485.55 658.779 1485.55 658.28 1485.55 657.781C1485.55 657.532 1485.8 657.282 1486.3 657.282H1486.55C1488.04 657.282 1489.54 657.282 1491.04 657.282C1491.79 657.282 1492.04 657.532 1491.79 658.28C1491.54 659.777 1491.04 661.274 1490.54 662.771C1489.29 665.516 1487.3 667.512 1484.8 669.009C1483.3 669.758 1481.81 670.257 1480.31 670.756C1476.57 671.504 1472.83 671.504 1469.08 670.506C1463.59 668.76 1459.6 665.267 1457.36 659.777C1455.36 654.288 1455.36 648.799 1457.86 643.559C1460.35 638.069 1464.84 634.576 1470.83 633.329C1474.32 632.58 1477.82 632.83 1481.31 633.828C1486.55 635.325 1490.04 638.818 1491.54 644.307C1491.54 644.557 1491.79 644.806 1491.79 645.305C1491.79 645.555 1491.54 645.804 1491.29 645.804C1490.54 646.054 1489.54 646.054 1488.54 646.054C1488.54 646.303 1488.54 646.303 1488.54 646.054Z" fill="#1D1D1B"/>
<path d="M1547.67 628.587C1547.67 630.084 1547.67 631.581 1547.67 632.829C1547.67 633.079 1547.67 633.328 1547.67 633.578C1547.67 633.827 1547.92 634.077 1548.42 634.077C1549.92 634.077 1551.67 634.077 1553.16 634.077C1553.66 634.077 1554.16 634.077 1554.66 634.077C1554.91 634.077 1555.16 634.326 1555.16 634.576C1555.16 635.823 1555.16 636.821 1555.16 638.069C1555.16 638.568 1554.91 638.817 1554.41 638.817C1552.66 638.817 1550.92 638.817 1549.17 638.817C1548.92 638.817 1548.42 638.817 1548.17 638.817L1547.67 639.316C1547.67 639.815 1547.67 640.314 1547.67 640.814C1547.67 647.8 1547.67 654.537 1547.67 661.523C1547.67 662.272 1547.67 663.02 1547.92 664.018C1548.17 665.017 1548.92 665.516 1549.67 665.765C1550.67 666.015 1551.67 666.015 1552.66 666.015C1553.41 666.015 1553.91 665.765 1554.66 665.765C1554.91 665.765 1555.16 666.015 1555.16 666.015C1555.16 667.262 1555.16 668.759 1555.16 670.007L1554.91 670.256C1554.41 670.506 1553.91 670.506 1553.16 670.506C1550.92 670.755 1548.92 670.755 1546.68 670.256C1546.18 670.007 1545.68 670.007 1545.18 669.757C1543.18 668.759 1541.94 667.262 1541.69 664.767C1541.69 663.769 1541.69 663.02 1541.69 662.022C1541.69 655.036 1541.69 648.049 1541.69 640.814C1541.69 640.314 1541.69 639.566 1541.69 639.067C1541.69 638.568 1541.44 638.318 1540.94 638.318C1539.94 638.318 1538.94 638.318 1537.94 638.318C1537.44 638.318 1536.95 638.318 1536.45 638.318C1536.2 638.318 1535.95 638.069 1535.95 637.819C1535.95 636.572 1535.95 635.324 1535.95 634.077L1536.2 633.827C1537.2 633.827 1538.19 633.827 1539.44 633.827C1539.94 633.827 1540.44 633.827 1541.19 633.827L1541.44 633.578C1541.44 633.079 1541.69 632.829 1541.69 632.33C1541.69 630.084 1541.69 627.589 1541.69 625.344C1541.69 624.595 1541.69 624.096 1541.69 623.347C1541.69 622.349 1541.94 622.349 1542.68 622.349C1542.93 622.349 1542.93 622.349 1543.18 622.349C1547.42 622.349 1547.67 622.349 1547.67 622.599C1548.17 624.096 1547.67 625.593 1547.92 626.841C1547.67 627.839 1547.67 628.088 1547.67 628.587Z" fill="#1D1D1B"/>
<path d="M1172.43 652.292C1172.43 648.549 1172.43 644.806 1172.43 641.064C1172.43 640.564 1172.43 640.065 1172.43 639.566C1172.43 639.317 1172.18 639.067 1171.93 639.067C1170.94 639.067 1169.94 639.067 1168.94 639.067C1168.44 639.067 1167.69 639.067 1167.19 639.067C1166.94 639.067 1166.69 638.818 1166.69 638.568C1166.44 637.321 1166.44 636.073 1166.69 634.826L1166.94 634.576C1167.44 634.576 1168.19 634.576 1168.69 634.576C1169.69 634.576 1170.69 634.576 1171.93 634.576L1172.18 634.327C1172.18 633.828 1172.18 633.578 1172.18 633.079C1172.18 630.334 1172.18 627.839 1172.18 625.095C1172.18 624.595 1172.18 624.096 1172.18 623.597C1172.18 623.348 1172.43 623.098 1172.68 623.098C1174.43 623.098 1176.17 623.098 1177.92 623.098L1178.17 623.348C1178.17 623.847 1178.17 624.096 1178.17 624.595C1178.17 627.34 1178.17 629.835 1178.17 632.58C1178.17 633.079 1178.17 633.578 1178.17 634.077C1178.17 634.327 1178.42 634.576 1178.67 634.576C1179.67 634.576 1180.67 634.576 1181.91 634.576C1182.91 634.576 1183.91 634.576 1184.91 634.576C1185.66 634.576 1185.91 634.826 1185.91 635.325C1185.91 636.323 1185.91 637.321 1185.91 638.319C1185.91 639.067 1185.41 639.317 1184.91 639.317C1183.41 639.317 1181.66 639.317 1180.17 639.317C1179.67 639.317 1179.42 639.317 1178.92 639.317C1178.67 639.317 1178.42 639.566 1178.42 639.816C1178.42 640.315 1178.42 640.814 1178.42 641.313C1178.42 648.299 1178.42 655.286 1178.42 662.272C1178.42 662.771 1178.42 663.52 1178.42 664.019C1178.42 665.017 1179.42 666.015 1180.42 666.265C1181.41 666.514 1182.41 666.514 1183.41 666.514C1184.16 666.514 1184.66 666.265 1185.41 666.265C1185.66 666.265 1185.91 666.514 1185.91 666.514C1185.91 667.762 1185.91 669.259 1185.91 670.506C1185.91 670.756 1185.66 670.756 1185.66 670.756C1185.16 671.005 1184.66 671.005 1183.91 671.005C1181.66 671.255 1179.67 671.255 1177.42 670.756C1176.92 670.756 1176.67 670.506 1176.17 670.506C1173.93 669.508 1172.68 667.762 1172.18 665.516C1172.18 664.768 1172.18 664.268 1172.18 663.52C1172.43 659.777 1172.43 656.034 1172.43 652.292Z" fill="#1D1D1B"/>
<path d="M1417.44 652.541C1417.44 647.551 1417.44 642.561 1417.44 637.57C1417.44 637.071 1417.44 636.572 1417.44 636.073C1417.44 634.326 1417.44 634.326 1419.18 634.326C1419.93 634.326 1420.68 634.326 1421.43 634.326C1421.93 634.326 1422.68 634.326 1423.18 634.326C1423.43 634.326 1423.67 634.576 1423.67 635.075C1423.67 636.572 1423.67 638.069 1423.67 639.317L1423.92 639.566C1423.92 639.566 1424.17 639.566 1424.42 639.566C1424.92 639.067 1425.42 638.568 1425.92 638.069C1428.91 635.325 1432.41 633.827 1436.4 634.077C1436.65 634.077 1437.15 634.077 1437.4 634.326C1437.9 634.326 1438.15 634.826 1438.15 635.075C1438.15 636.572 1438.15 638.069 1438.15 639.317C1438.15 639.566 1437.9 639.816 1437.65 639.816C1436.9 639.816 1436.4 639.816 1435.65 639.566C1433.9 639.566 1432.16 639.566 1430.41 640.315C1426.17 642.061 1423.92 645.305 1423.67 649.796C1423.67 650.545 1423.67 651.044 1423.67 651.793C1423.67 657.531 1423.67 663.27 1423.67 669.009C1423.67 669.508 1423.67 670.007 1423.67 670.506L1423.42 670.756H1423.18C1421.68 670.756 1419.93 670.756 1418.43 670.756C1418.19 670.756 1417.69 670.506 1417.69 670.257C1417.69 669.508 1417.69 668.76 1417.69 668.011C1417.44 663.021 1417.44 657.781 1417.44 652.541Z" fill="#1D1D1B"/>
<path d="M985.06 652.541C985.06 658.03 985.06 663.27 985.06 668.76C985.06 669.259 985.06 670.007 985.06 670.506L984.811 670.756C984.561 670.756 984.561 670.756 984.312 670.756C983.813 670.756 983.563 670.756 983.064 670.756C981.817 670.756 980.32 671.005 979.072 670.506C978.823 669.259 979.072 668.011 979.072 666.763C979.072 656.783 979.072 646.802 979.072 636.822C979.072 636.073 979.072 635.324 979.072 634.576L979.322 634.326C979.571 634.326 979.571 634.326 979.821 634.326C980.32 634.326 980.569 634.326 981.068 634.326C984.561 634.326 985.06 634.326 985.06 634.576C985.31 635.824 985.31 637.071 985.31 638.319C985.06 643.059 985.06 647.8 985.06 652.541Z" fill="#1D1D1B"/>
<path d="M1443.63 652.791C1443.63 647.551 1443.63 642.061 1443.63 636.822C1443.63 636.073 1443.63 635.574 1443.63 634.825C1443.63 634.576 1443.88 634.326 1444.13 634.326C1445.88 634.326 1447.63 634.326 1449.12 634.326C1449.37 634.326 1449.62 634.576 1449.62 635.075C1449.62 635.574 1449.62 635.824 1449.62 636.323C1449.62 647.301 1449.62 658.03 1449.62 669.009C1449.62 669.508 1449.62 670.007 1449.62 670.506C1449.62 670.756 1449.37 671.005 1449.12 671.005C1447.38 671.005 1445.63 671.005 1444.13 671.005C1443.88 671.005 1443.63 670.756 1443.63 670.257C1443.63 669.508 1443.63 669.009 1443.63 668.261C1443.63 663.021 1443.63 658.03 1443.63 652.791Z" fill="#1D1D1B"/>
<path d="M1443.63 623.597C1443.63 622.599 1443.63 621.85 1443.63 620.852C1443.63 620.603 1443.88 620.353 1444.13 620.353C1445.88 620.353 1447.63 620.353 1449.12 620.353C1449.37 620.353 1449.62 620.603 1449.62 620.852C1449.62 621.601 1449.62 622.1 1449.62 622.848C1449.62 627.09 1449.62 627.34 1449.37 627.34C1447.88 627.839 1446.38 627.34 1444.88 627.589C1444.63 627.589 1444.38 627.589 1444.13 627.589C1443.88 627.589 1443.63 627.34 1443.63 626.841C1443.63 626.591 1443.63 626.342 1443.63 626.092C1443.63 625.094 1443.63 624.346 1443.63 623.597Z" fill="#1D1D1B"/>
<path d="M985.06 623.597C985.06 624.595 985.06 625.593 985.06 626.591C985.06 627.09 984.81 627.34 984.311 627.34C982.814 627.34 981.068 627.34 979.571 627.34C979.072 627.34 978.822 627.09 978.822 626.591C978.822 626.092 978.822 625.344 978.822 624.845C978.822 620.853 978.822 620.354 979.072 620.354C980.569 619.854 982.066 620.354 983.563 620.104C983.812 620.104 984.311 620.104 984.561 620.104C984.81 620.104 985.06 620.354 985.06 620.603C984.81 621.851 984.81 622.849 985.06 623.597C984.81 623.597 984.81 623.597 985.06 623.597Z" fill="#1D1D1B"/>
</svg>
