<?xml version="1.0" encoding="UTF-8"?>
<svg id="a" data-name="Layer 1" xmlns="http://www.w3.org/2000/svg" width="1240" height="874" xmlns:xlink="http://www.w3.org/1999/xlink" viewBox="0 0 1240 874">
  <defs>
    <radialGradient id="ai" cx="7269.323" cy="2966.188" fx="7269.323" fy="2966.188" r="12.316" gradientTransform="translate(-59029.611 -22867.841) rotate(44.93) scale(8.023 -8.532)" gradientUnits="userSpaceOnUse">
      <stop offset="0" stop-color="#ffebe3"/>
      <stop offset=".147" stop-color="#f39672"/>
      <stop offset=".366" stop-color="#e2001a"/>
      <stop offset=".708" stop-color="#cf001a"/>
      <stop offset=".842" stop-color="#af0819"/>
      <stop offset="1" stop-color="#b30414"/>
    </radialGradient>
    <linearGradient id="an" x1="1818.536" y1="1110.834" x2="1931.429" y2="1034.476" gradientTransform="translate(-1715.564 -627.332) rotate(-.07)" gradientUnits="userSpaceOnUse">
      <stop offset="0" stop-color="#464648"/>
      <stop offset=".049" stop-color="#464648"/>
      <stop offset=".095" stop-color="#919294"/>
      <stop offset=".155" stop-color="#464648"/>
      <stop offset=".906" stop-color="#515153"/>
      <stop offset=".96" stop-color="#919294"/>
      <stop offset=".984" stop-color="#515153"/>
      <stop offset="1" stop-color="#515153"/>
      <stop offset="1" stop-color="#515153"/>
    </linearGradient>
  </defs>
  <g id="b" data-name="g6550">
    <g id="c" data-name="g5992">
      <path id="d" data-name="path5994" d="m307.441,473.377l-17.482.021-.056-45.248-31.365.039.033,26.737c.013,10.284-8.204,19.035-18.487,19.047l-.103-83.811c-.013-10.284,8.204-18.521,18.488-18.533h0l.053,43.191,31.365-.039-.031-25.195c-.012-9.769,7.691-17.492,17.461-17.504h0l.125,101.294"/>
    </g>
    <g id="e" data-name="g5996">
      <path id="f" data-name="path5998" d="m359.285,397.487l16.968-.021-30.734,95.161c-2.049,6.173-8.214,10.808-15.926,10.817l-5.656.007,11.784-34.465-23.74-71.442,19.025-.023,13.944,49.858,14.336-49.893"/>
    </g>
    <g id="g" data-name="g6000">
      <path id="h" data-name="path6002" d="m421.99,435.598c-.022-17.996-5.175-26.731-17.001-26.717-3.085.004-5.141.521-7.711,1.038l.063,51.418c2.058,1.026,4.115,1.537,6.686,1.534,14.911-.018,17.978-14.933,17.963-27.274Zm17.996-.536c.029,23.652-12.806,39.094-32.345,39.118-4.113.005-7.199-.505-9.771-1.016l.016,13.369c.011,9.255-7.692,16.977-16.947,16.989h-1.028s-.123-100.264-.123-100.264l.514-.515c6.68-3.607,14.905-5.16,25.189-5.173,21.596-.027,34.467,13.841,34.496,37.493"/>
    </g>
    <g id="i" data-name="g6004">
      <path id="j" data-name="path6006" d="m493.194,435.639c-.009-7.713-2.089-26.221-15.972-26.204-14.911.018-15.915,20.073-15.907,26.243s1.06,25.708,15.971,25.689c14.911-.018,15.916-19.558,15.908-25.729Zm16.968-.021c.029,23.652-12.293,38.579-32.86,38.604-20.567.025-32.926-14.871-32.955-38.523s12.293-38.579,32.86-38.604c20.567-.025,32.926,14.871,32.955,38.523"/>
    </g>
    <g id="k" data-name="g6008">
      <path id="l" data-name="path6010" d="m581.379,370.949l-28.169,90.016c-2.049,6.687-8.727,11.837-16.439,11.846l-4.628.006-32.519-101.768,19.025-.023,22.721,79.156,18.942-66.867c2.047-7.715,9.24-12.352,17.467-12.362l3.599-.004"/>
    </g>
    <g id="m" data-name="g6012">
      <path id="n" data-name="path6014" d="m619.681,425.601c-.533-14.911-9.79-16.442-14.931-16.435h-.514c-10.283.527-14.902,7.217-14.885,21.1l30.331-4.665Zm15.952,10.264l-45.24,6.226c1.558,12.338,7.736,19.015,19.048,19.001,12.855-.016,19.02-4.137,23.643-7.228l.018,14.911c-4.625,2.062-13.362,5.158-25.189,5.173-22.11.027-34.983-14.868-35.012-38.521-.028-23.138,12.294-38.065,32.347-38.089,19.539-.024,30.867,13.331,30.895,35.955l.003,2.571"/>
    </g>
    <g id="o" data-name="g6016">
      <path id="p" data-name="path6018" d="m667.501,397.108c3.085-.004,6.685.506,10.285,1.016l.018,14.397c-6.176-4.62-14.401-3.067-18.512-1.006l.055,44.734c.011,9.255-7.692,16.977-16.947,16.989h-1.028s-.086-69.927-.086-69.927c7.194-3.608,14.389-6.188,26.216-6.202"/>
    </g>
    <g id="q" data-name="g6020">
      <path id="r" data-name="path6022" d="m722.28,425.475c-.533-14.911-9.79-16.442-14.931-16.435h-.514c-10.283.527-14.902,7.217-14.885,21.1l30.331-4.665Zm15.952,10.264l-45.24,6.226c1.558,12.338,7.736,19.015,19.048,19.001,12.34-.015,19.02-4.137,23.643-7.228l.018,14.911c-4.625,2.062-13.362,5.158-25.189,5.173-22.11.027-34.983-14.868-35.012-38.521-.028-23.138,12.294-38.065,32.347-38.089,19.539-.024,30.867,13.331,30.895,35.955l.003,2.571"/>
    </g>
    <g id="s" data-name="g6024">
      <path id="t" data-name="path6026" d="m760.737,396.993l.093,75.585h-1.028c-9.255.013-16.977-7.691-16.989-16.946l-.072-58.617,17.996-.022Zm1.007-16.969c.006,4.628-4.617,8.747-9.759,8.753-5.142.006-9.774-4.101-9.78-8.729-.006-5.142,4.102-9.26,9.758-9.267s9.774,4.101,9.781,9.243"/>
    </g>
    <g id="u" data-name="g6028">
      <path id="v" data-name="path6030" d="m797.784,396.948c25.195-.031,29.326,14.361,29.336,22.588l.065,52.961h-.514c-9.255.012-17.492-7.691-17.503-16.946l-.044-35.478c-.006-5.142-2.07-10.795-11.839-10.783-4.628.006-7.198.523-10.282,1.555.001,1.028.076,62.216.076,62.216l-17.996.022-.087-70.443c7.194-3.608,20.046-5.681,28.787-5.691"/>
    </g>
    <g id="w" data-name="g6032">
      <path id="x" data-name="path6034" d="m878.926,451.14c.015,11.826-10.256,22.637-26.195,22.656-8.741.011-15.943-2.551-20.059-5.117l-.018-14.911c4.635,5.65,11.836,7.698,17.492,7.691,6.684-.008,11.307-4.127,11.3-9.783-.008-6.17-3.096-9.251-10.812-11.813-13.889-5.125-16.984-13.348-16.994-21.061-.015-11.826,9.743-21.608,23.626-21.625,8.227-.01,12.857,2.041,17.488,5.12l.016,13.369c-4.635-5.65-8.75-7.188-13.892-7.181-6.684.008-10.793,4.127-10.786,9.269.008,6.17,4.639,9.25,10.812,11.813,14.404,5.638,18.012,12.832,18.023,21.573"/>
    </g>
    <g id="y" data-name="g6036">
      <path id="z" data-name="path6038" d="m902.304,462.218c1.543.512,6.171.507,8.742.503,12.34-.015,18.499-9.278,18.478-26.246-.019-15.425-5.176-27.759-19.573-27.742-2.571.003-5.141.521-7.197,1.037l.064,52.446h-.514Zm-.113-91.524l.038,30.851c3.084-1.032,7.197-1.551,11.31-1.556,19.025-.023,32.41,13.843,32.44,38.01.028,23.138-12.296,36.008-33.377,36.034l-3.599.004c-5.656.007-19.026-1.005-24.683-2.026l-.103-83.811c-.011-9.255,7.692-16.977,16.947-16.989h1.028"/>
    </g>
    <g id="aa" data-name="g6040">
      <path id="ab" data-name="path6042" d="m989.89,433.131c-15.938,1.562-25.189,4.659-25.173,17.513.011,9.255,5.672,13.362,15.442,13.35,3.599-.004,8.227-.01,9.769-.526l-.037-30.337Zm-.01-8.227l-.006-5.142c-.012-9.769-6.185-12.333-14.412-12.323-7.199.009-14.394,2.589-22.102,6.712l-.015-11.826c4.625-2.062,13.876-5.673,25.188-5.687,15.425-.019,28.289,7.678,28.313,26.703l.059,48.333c-5.141,1.035-16.451,2.077-23.65,2.086l-3.599.004c-20.053.025-30.347-8.19-30.364-22.587-1.052-19.538,17.967-24.189,40.588-26.273"/>
    </g>
    <g id="ac" data-name="g6044">
      <path id="ad" data-name="path6046" d="m1042.996,396.646c25.195-.031,29.326,14.361,29.336,22.588l.065,52.961h-.514c-9.255.012-17.492-7.691-17.503-16.946l-.044-35.478c-.006-5.142-2.07-10.795-11.839-10.783-4.628.006-7.198.523-10.282,1.555.001,1.028.076,62.216.076,62.216l-17.996.022-.087-70.443c7.194-3.608,20.046-5.681,28.787-5.691"/>
    </g>
    <g id="ae" data-name="g6048">
      <path id="af" data-name="path6050" d="m1098.296,454.804c.012,9.769-7.691,17.492-17.461,17.504h0l-.104-84.326c-.012-9.769,7.691-17.492,17.461-17.504h0l.076,61.702,22.582-33.964,16.968-.021-23.096,33.964,27.301,40.073-19.539.024-24.213-37.505.025,20.053"/>
    </g>
  </g>
  <g id="ag" data-name="g9106">
    <g id="ah" data-name="path6719" isolation="isolate" opacity=".581">
      <path d="m160.983,380.928c-32.661.04-59.078,26.522-59.038,59.183.019,15.206,5.818,29.12,15.255,39.602-.428.536-2.672,3.858-2.779,3.966-.962,1.393-2.887,3.537-.957,5.57,1.93,1.925,5.46-.863,6.637-1.829.107-.107,2.14-1.609,2.782-2.145,10.291,8.661,23.576,13.892,38.139,13.874,32.661-.04,59.078-26.522,59.038-59.183-.013-10.815-2.917-20.985-8.068-29.759,1.925-2.037,2.994-3.645,2.992-5.037-.11-2.784,1.598-6.32-10.611-7.59-.75-.106-1.499-.105-2.356-.211-10.614-10.053-25.078-16.46-41.033-16.44Z" fill="#00001a"/>
    </g>
    <path id="aj" data-name="path8100" d="m216.198,435.151c.04,32.661-26.377,59.143-59.038,59.183s-59.143-26.377-59.183-59.038,26.377-59.143,59.038-59.183c32.66-.147,59.143,26.27,59.183,59.038" fill="url(#ai)"/>
    <path id="ak" data-name="path7433" d="m152.016,403.855c1.286.962,7.394,4.596,9.323,5.664l.643.428.321-.429c.641-1.072.854-1.929-.968-3.104-1.822-1.176-8.037-4.809-9.323-5.664l-2.037-1.604c.752,2.141,1.29,4.175,2.04,4.709" fill="#4b4b4d"/>
    <g id="al" data-name="g7639">
      <path id="am" data-name="path7641" d="m153.284,418.749s6.674-8.749,7.701-9.779c.513-1.029,1.026-2.058-1.032-3.084-2.059-1.54-8.233-5.132-9.262-5.645-1.03-1.027-1.034-4.626,2.565-5.145,3.598-1.033,34.96-3.642,47.302-2.115,12.342,1.527,11.319,5.642,10.807,7.699-1.025,2.572-5.134,6.691-11.811,12.355,0,0-10.785,10.297-19.003,17.506-8.218,7.209-33.901,28.836-38.524,32.441-5.137,4.12-24.144,18.54-25.686,19.056-1.027,1.03-4.623,3.605-6.682,2.065-2.059-2.054-.005-4.113,1.021-5.657.513-1.029,39.523-56.094,42.604-59.697" fill="#fff"/>
    </g>
    <path id="ao" data-name="path8622" d="m210.367,396.073c.537,1.177.968,3.533.755,4.282-.746,2.785-4.917,6.859-11.549,12.864,0,0-11.017,10.187-19.04,17.264s-33.696,28.74-38.724,32.601c-5.028,3.968-24.393,18.341-25.569,19.307-.963.751-5.246,1.291-7.066,1.294.644.856,1.716,1.818,2.788,2.888,1.93,1.925,5.46-.863,6.744-1.829,1.284-.965,20.648-15.445,25.569-19.307,5.028-3.968,30.702-25.631,38.724-32.601,8.023-7.077,19.04-17.264,19.04-17.264,6.632-6.005,10.269-9.329,11.015-12.007.213-1.178.636-5.141-2.686-7.493" fill="url(#an)"/>
  </g>
</svg>