<svg width="432" height="128" viewBox="0 0 432 128" fill="none" xmlns="http://www.w3.org/2000/svg">
<g clip-path="url(#clip0_938_10052)">
<path fill-rule="evenodd" clip-rule="evenodd" d="M30.074 11.338V79.936H18.158V11.338H0V0H48.18V11.338H30.074ZM89.356 0V48.148C89.356 55.016 90.464 60.038 92.68 63.214C95.988 67.804 100.642 70.1 106.642 70.1C112.678 70.1 117.348 67.804 120.656 63.214C122.872 60.142 123.98 55.12 123.98 48.148V0H135.896V51.462C135.896 59.884 133.304 66.822 128.122 72.274C122.292 78.348 115.132 81.386 106.64 81.386C98.148 81.386 91.006 78.348 85.21 72.274C80.028 66.82 77.436 59.884 77.436 51.462V0H89.352H89.356ZM200.194 45.87L224.642 79.936H210.066L187.51 47.216H185.362V79.936H173.446V0H187.408C197.842 0 205.378 1.984 210.014 5.954C215.128 10.372 217.686 16.204 217.686 23.452C217.686 29.112 216.084 33.978 212.878 38.052C209.672 42.126 205.444 44.73 200.194 45.87ZM185.362 36.706H189.146C200.432 36.706 206.076 32.34 206.076 23.608C206.076 15.428 200.586 11.338 189.608 11.338H185.362V36.706ZM275.996 11.338V79.936H264.08V11.338H245.924V0H294.104V11.338H275.998H275.996ZM335.278 0V68.598H358.498V79.936H323.36V0H335.276H335.278ZM432 11.338H400.34V30.546H431.078V41.884H400.34V68.598H432V79.936H388.424V0H432V11.338Z" fill="#0D5C75"/>
<path d="M0 126.856L4.594 103.386L12.086 120.352L19.848 103.386L23.976 126.856H20.598L18.49 113.68L12.03 127.86L5.752 113.664L3.406 126.856H0Z" fill="#0D5C75"/>
<path d="M44.32 121.554H34.976L32.544 126.856H28.996L39.798 103.656L50.218 126.856H46.612L44.32 121.554ZM42.978 118.458L39.74 111.036L36.346 118.458H42.978Z" fill="#0D5C75"/>
<path d="M63.232 117.554L69.99 126.856H65.96L59.724 117.92H59.13V126.856H55.836V105.028H59.696C62.58 105.028 64.664 105.57 65.946 106.654C67.36 107.858 68.066 109.452 68.066 111.432C68.066 112.976 67.622 114.306 66.738 115.418C65.852 116.53 64.682 117.242 63.232 117.554ZM59.132 115.05H60.178C63.298 115.05 64.858 113.858 64.858 111.474C64.858 109.238 63.34 108.122 60.304 108.122H59.13V115.048L59.132 115.05Z" fill="#0D5C75"/>
<path d="M79.46 105.028V126.856H76.166V105.028H79.46Z" fill="#0D5C75"/>
<path d="M93.624 108.124V126.856H90.33V108.124H85.312V105.028H98.63V108.124H93.624Z" fill="#0D5C75"/>
<path d="M107.758 105.028V126.856H104.464V105.028H107.758Z" fill="#0D5C75"/>
<path d="M115.136 126.856L119.73 103.386L127.222 120.352L134.984 103.386L139.112 126.856H135.734L133.626 113.68L127.166 127.86L120.888 113.664L118.542 126.856H115.136Z" fill="#0D5C75"/>
<path d="M158.678 108.124H149.926V113.368H158.424V116.466H149.926V123.76H158.678V126.856H146.634V105.028H158.678V108.124Z" fill="#0D5C75"/>
<path d="M176.968 126.856L181.562 103.386L189.054 120.352L196.816 103.386L200.944 126.856H197.566L195.458 113.68L188.998 127.86L182.72 113.664L180.374 126.856H176.968Z" fill="#0D5C75"/>
<path d="M221.286 121.554H211.942L209.51 126.856H205.962L216.764 103.656L227.184 126.856H223.578L221.286 121.554ZM219.944 118.458L216.706 111.036L213.312 118.458H219.944Z" fill="#0D5C75"/>
<path d="M237.612 108.124V126.856H234.318V108.124H229.3V105.028H242.618V108.124H237.612Z" fill="#0D5C75"/>
<path d="M263.808 106.2V110.102C261.904 108.51 259.934 107.712 257.898 107.712C255.654 107.712 253.764 108.518 252.228 110.13C250.682 111.732 249.908 113.692 249.908 116.012C249.908 118.304 250.682 120.234 252.228 121.81C253.774 123.386 255.668 124.17 257.912 124.17C259.072 124.17 260.056 123.982 260.866 123.604C261.318 123.416 261.788 123.164 262.272 122.842C262.756 122.52 263.27 122.134 263.806 121.682V125.654C261.92 126.722 259.942 127.252 257.868 127.252C254.748 127.252 252.086 126.164 249.88 123.986C247.684 121.79 246.586 119.142 246.586 116.04C246.586 113.26 247.504 110.782 249.342 108.604C251.604 105.938 254.53 104.604 258.122 104.604C260.082 104.604 261.976 105.136 263.806 106.2H263.808Z" fill="#0D5C75"/>
<path d="M274.762 113.566H284.178V105.028H287.472V126.856H284.178V116.664H274.762V126.856H271.468V105.028H274.762V113.566Z" fill="#0D5C75"/>
<path d="M294.834 126.856L299.428 103.386L306.92 120.352L314.682 103.386L318.81 126.856H315.432L313.324 113.68L306.864 127.86L300.586 113.664L298.24 126.856H294.832H294.834Z" fill="#0D5C75"/>
<path d="M339.154 121.554H329.81L327.378 126.856H323.83L334.632 103.656L345.052 126.856H341.446L339.154 121.554ZM337.812 118.458L334.574 111.036L331.18 118.458H337.812Z" fill="#0D5C75"/>
<path d="M353.966 113.736L362.464 105.028H366.862L356.994 114.91L366.918 126.856H362.506L354.646 117.144L353.968 117.822V126.858H350.674V105.03H353.968V113.738L353.966 113.736Z" fill="#0D5C75"/>
<path d="M376.048 105.028V126.856H372.754V105.028H376.048Z" fill="#0D5C75"/>
<path d="M384.19 126.856V103.544L400.108 120.198V105.028H403.402V128.186L387.482 111.574V126.856H384.188H384.19Z" fill="#0D5C75"/>
<path d="M422.98 115.49H432V116.21C432 117.852 431.806 119.302 431.42 120.564C431.044 121.734 430.406 122.828 429.512 123.844C427.486 126.126 424.908 127.266 421.778 127.266C418.724 127.266 416.108 126.162 413.932 123.958C411.754 121.742 410.666 119.086 410.666 115.984C410.666 112.818 411.772 110.13 413.988 107.926C416.204 105.71 418.9 104.604 422.076 104.604C423.782 104.604 425.374 104.952 426.854 105.65C428.268 106.346 429.658 107.478 431.024 109.042L428.678 111.29C426.888 108.906 424.706 107.712 422.132 107.712C419.822 107.712 417.886 108.51 416.322 110.102C414.758 111.666 413.976 113.628 413.976 115.984C413.976 118.414 414.848 120.42 416.592 121.992C418.222 123.452 419.99 124.184 421.894 124.184C423.514 124.184 424.972 123.638 426.264 122.544C427.554 121.44 428.276 120.122 428.428 118.584H422.984V115.488L422.98 115.49Z" fill="#0D5C75"/>
</g>
<defs>
<clipPath id="clip0_938_10052">
<rect width="432" height="128" fill="white"/>
</clipPath>
</defs>
</svg>
